<ttFont>
<head>
    <!-- Most of this table will be recalculated by the compiler -->
    <tableVersion value="1.0"/>
    <fontRevision value="1.0"/>
    <checkSumAdjustment value="0xf262ae7a"/>
    <magicNumber value="0x5f0f3cf5"/>
    <flags value="00000000 00011011"/>
    <unitsPerEm value="1000"/>
    <created value="Tue Jan  8 12:46:00 2013"/>
    <modified value="Thu Nov  6 12:32:28 2014"/>
    <xMin value="-111"/>
    <yMin value="-282"/>
    <xMax value="1221"/>
    <yMax value="1079"/>
    <macStyle value="00000000 00000010"/>
    <lowestRecPPEM value="9"/>
    <fontDirectionHint value="2"/>
    <indexToLocFormat value="0"/>
    <glyphDataFormat value="0"/>
  </head>
    <TTGlyph name=".notdef" xMin="67" yMin="0" xMax="531" yMax="650">
      <contour>
        <pt x="67" y="650" on="1"/>
        <pt x="531" y="650" on="1"/>
        <pt x="531" y="0" on="1"/>
        <pt x="67" y="0" on="1"/>
      </contour>
      <contour>
        <pt x="457" y="604" on="1"/>
        <pt x="141" y="604" on="1"/>
        <pt x="300" y="367" on="1"/>
      </contour>
      <contour>
        <pt x="485" y="88" on="1"/>
        <pt x="485" y="562" on="1"/>
        <pt x="327" y="325" on="1"/>
      </contour>
      <contour>
        <pt x="457" y="47" on="1"/>
        <pt x="300" y="283" on="1"/>
        <pt x="141" y="47" on="1"/>
      </contour>
      <contour>
        <pt x="114" y="88" on="1"/>
        <pt x="271" y="325" on="1"/>
        <pt x="114" y="562" on="1"/>
      </contour>
    </TTGlyph>
    <TTGlyph name="A" xMin="-17" yMin="0" xMax="628" yMax="663">
      <contour>
        <pt x="466" y="143" on="1"/>
        <pt x="170" y="143" on="1"/>
        <pt x="107" y="12" on="1"/>
        <pt x="103" y="4" on="0"/>
        <pt x="96" y="0" on="0"/>
        <pt x="88" y="0" on="1"/>
        <pt x="-17" y="0" on="1"/>
        <pt x="309" y="663" on="1"/>
        <pt x="420" y="663" on="1"/>
        <pt x="435" y="663" on="0"/>
        <pt x="439" y="650" on="1"/>
        <pt x="628" y="0" on="1"/>
        <pt x="522" y="0" on="1"/>
        <pt x="514" y="0" on="0"/>
        <pt x="505" y="4" on="0"/>
        <pt x="503" y="12" on="1"/>
      </contour>
      <contour>
        <pt x="218" y="243" on="1"/>
        <pt x="438" y="243" on="1"/>
        <pt x="409" y="348" on="1"/>
        <pt x="393" y="405" on="0"/>
        <pt x="366" y="513" on="0"/>
        <pt x="360" y="551" on="1"/>
        <pt x="353" y="534" on="0"/>
        <pt x="332" y="485" on="0"/>
        <pt x="307" y="431" on="0"/>
        <pt x="282" y="376" on="0"/>
        <pt x="271" y="354" on="1"/>
      </contour>
    </TTGlyph>
    <TTGlyph name="AE" xMin="-30" yMin="0" xMax="944" yMax="663">
      <contour>
        <pt x="109" y="12" on="1"/>
        <pt x="103" y="4" on="0"/>
        <pt x="95" y="0" on="0"/>
        <pt x="84" y="0" on="1"/>
        <pt x="-30" y="0" on="1"/>
        <pt x="459" y="663" on="1"/>
        <pt x="944" y="663" on="1"/>
        <pt x="932" y="561" on="1"/>
        <pt x="604" y="561" on="1"/>
        <pt x="583" y="391" on="1"/>
        <pt x="884" y="391" on="1"/>
        <pt x="871" y="290" on="1"/>
        <pt x="572" y="290" on="1"/>
        <pt x="550" y="102" on="1"/>
        <pt x="889" y="102" on="1"/>
        <pt x="877" y="0" on="1"/>
        <pt x="423" y="0" on="1"/>
        <pt x="440" y="143" on="1"/>
        <pt x="203" y="143" on="1"/>
      </contour>
      <contour>
        <pt x="488" y="548" on="1"/>
        <pt x="475" y="528" on="0"/>
        <pt x="438" y="474" on="0"/>
        <pt x="394" y="411" on="0"/>
        <pt x="346" y="343" on="0"/>
        <pt x="322" y="309" on="1"/>
        <pt x="274" y="243" on="1"/>
        <pt x="452" y="243" on="1"/>
      </contour>
    </TTGlyph>
    <TTGlyph name="AEacute" xMin="-30" yMin="0" xMax="944" yMax="918">
      <component glyphName="AE" x="0" y="0" flags="0x204"/>
      <component glyphName="acute.cap" x="412" y="0" flags="0x4"/>
    </TTGlyph>
    <TTGlyph name="Aacute" xMin="-17" yMin="0" xMax="628" yMax="918">
      <component glyphName="A" x="0" y="0" flags="0x204"/>
      <component glyphName="acute.cap" x="136" y="0" flags="0x4"/>
    </TTGlyph>
    <TTGlyph name="Abreve" xMin="-17" yMin="0" xMax="628" yMax="889">
      <component glyphName="A" x="0" y="0" flags="0x204"/>
      <component glyphName="breve.cap" x="124" y="0" flags="0x4"/>
    </TTGlyph>
    <TTGlyph name="Acaron" xMin="-17" yMin="0" xMax="628" yMax="914">
      <component glyphName="A" x="0" y="0" flags="0x204"/>
      <component glyphName="caron.cap" x="118" y="0" flags="0x4"/>
    </TTGlyph>
    <TTGlyph name="Acircumflex" xMin="-17" yMin="0" xMax="628" yMax="904">
      <component glyphName="A" x="0" y="0" flags="0x204"/>
      <component glyphName="circumflex.cap" x="135" y="0" flags="0x4"/>
    </TTGlyph>
    <TTGlyph name="Adieresis" xMin="-17" yMin="0" xMax="628" yMax="863">
      <component glyphName="A" x="0" y="0" flags="0x204"/>
      <component glyphName="dieresis.cap" x="135" y="0" flags="0x4"/>
    </TTGlyph>
    <TTGlyph name="Agrave" xMin="-17" yMin="0" xMax="628" yMax="919">
      <component glyphName="A" x="0" y="0" flags="0x204"/>
      <component glyphName="grave.cap" x="145" y="0" flags="0x4"/>
    </TTGlyph>
    <TTGlyph name="Amacron" xMin="-17" yMin="0" xMax="628" yMax="854">
      <component glyphName="A" x="0" y="0" flags="0x204"/>
      <component glyphName="macron.cap" x="126" y="0" flags="0x4"/>
    </TTGlyph>
    <TTGlyph name="Aogonek" xMin="-17" yMin="-218" xMax="628" yMax="663">
      <contour>
        <pt x="466" y="143" on="1"/>
        <pt x="170" y="143" on="1"/>
        <pt x="107" y="12" on="1"/>
        <pt x="103" y="4" on="0"/>
        <pt x="96" y="0" on="0"/>
        <pt x="88" y="0" on="1"/>
        <pt x="-17" y="0" on="1"/>
        <pt x="309" y="663" on="1"/>
        <pt x="420" y="663" on="1"/>
        <pt x="435" y="663" on="0"/>
        <pt x="439" y="650" on="1"/>
        <pt x="628" y="0" on="1"/>
        <pt x="565" y="0" on="1"/>
        <pt x="555" y="0" on="0"/>
        <pt x="543" y="-4" on="0"/>
        <pt x="536" y="-11" on="1"/>
        <pt x="514" y="-32" on="0"/>
        <pt x="485" y="-79" on="0"/>
        <pt x="485" y="-101" on="1"/>
        <pt x="485" y="-119" on="0"/>
        <pt x="508" y="-140" on="0"/>
        <pt x="531" y="-140" on="1"/>
        <pt x="550" y="-140" on="0"/>
        <pt x="568" y="-137" on="1"/>
        <pt x="598" y="-132" on="1"/>
        <pt x="609" y="-192" on="1"/>
        <pt x="585" y="-204" on="0"/>
        <pt x="531" y="-218" on="0"/>
        <pt x="508" y="-218" on="1"/>
        <pt x="456" y="-218" on="0"/>
        <pt x="392" y="-163" on="0"/>
        <pt x="392" y="-123" on="1"/>
        <pt x="392" y="-85" on="0"/>
        <pt x="451" y="-9" on="0"/>
        <pt x="499" y="25" on="1"/>
      </contour>
      <contour>
        <pt x="218" y="243" on="1"/>
        <pt x="438" y="243" on="1"/>
        <pt x="409" y="348" on="1"/>
        <pt x="393" y="405" on="0"/>
        <pt x="366" y="513" on="0"/>
        <pt x="360" y="551" on="1"/>
        <pt x="353" y="534" on="0"/>
        <pt x="332" y="485" on="0"/>
        <pt x="307" y="431" on="0"/>
        <pt x="282" y="376" on="0"/>
        <pt x="271" y="354" on="1"/>
      </contour>
    </TTGlyph>
    <TTGlyph name="Aring" xMin="-17" yMin="0" xMax="628" yMax="877">
      <contour>
        <pt x="628" y="0" on="1"/>
        <pt x="522" y="0" on="1"/>
        <pt x="514" y="0" on="0"/>
        <pt x="505" y="4" on="0"/>
        <pt x="503" y="12" on="1"/>
        <pt x="466" y="143" on="1"/>
        <pt x="170" y="143" on="1"/>
        <pt x="107" y="12" on="1"/>
        <pt x="103" y="4" on="0"/>
        <pt x="96" y="0" on="0"/>
        <pt x="88" y="0" on="1"/>
        <pt x="-17" y="0" on="1"/>
        <pt x="306" y="656" on="1"/>
        <pt x="263" y="687" on="0"/>
        <pt x="263" y="745" on="1"/>
        <pt x="263" y="773" on="0"/>
        <pt x="283" y="821" on="0"/>
        <pt x="318" y="857" on="0"/>
        <pt x="366" y="877" on="0"/>
        <pt x="394" y="877" on="1"/>
        <pt x="447" y="877" on="0"/>
        <pt x="510" y="815" on="0"/>
        <pt x="510" y="767" on="1"/>
        <pt x="510" y="727" on="0"/>
        <pt x="471" y="664" on="0"/>
        <pt x="439" y="650" on="1"/>
      </contour>
      <contour>
        <pt x="441" y="763" on="1"/>
        <pt x="441" y="783" on="0"/>
        <pt x="416" y="809" on="0"/>
        <pt x="390" y="809" on="1"/>
        <pt x="365" y="809" on="0"/>
        <pt x="332" y="780" on="0"/>
        <pt x="332" y="749" on="1"/>
        <pt x="332" y="729" on="0"/>
        <pt x="357" y="703" on="0"/>
        <pt x="383" y="703" on="1"/>
        <pt x="408" y="703" on="0"/>
        <pt x="441" y="732" on="0"/>
      </contour>
      <contour>
        <pt x="218" y="243" on="1"/>
        <pt x="438" y="243" on="1"/>
        <pt x="409" y="348" on="1"/>
        <pt x="393" y="405" on="0"/>
        <pt x="366" y="513" on="0"/>
        <pt x="360" y="551" on="1"/>
        <pt x="353" y="534" on="0"/>
        <pt x="332" y="485" on="0"/>
        <pt x="307" y="431" on="0"/>
        <pt x="282" y="376" on="0"/>
        <pt x="271" y="354" on="1"/>
      </contour>
    </TTGlyph>
    <TTGlyph name="Aringacute" xMin="-17" yMin="0" xMax="628" yMax="1079">
      <component glyphName="acute" x="186" y="341" flags="0x4"/>
      <component glyphName="Aring" x="0" y="0" flags="0x4"/>
    </TTGlyph>
    <TTGlyph name="Atilde" xMin="-17" yMin="0" xMax="628" yMax="871">
      <component glyphName="A" x="0" y="0" flags="0x204"/>
      <component glyphName="tilde.cap" x="126" y="0" flags="0x4"/>
    </TTGlyph>
    <TTGlyph name="B" xMin="48" yMin="0" xMax="583" yMax="663">
      <contour>
        <pt x="126" y="663" on="1"/>
        <pt x="361" y="663" on="1"/>
        <pt x="418" y="663" on="0"/>
        <pt x="503" y="641" on="0"/>
        <pt x="532" y="616" on="1"/>
        <pt x="574" y="579" on="0"/>
        <pt x="574" y="512" on="1"/>
        <pt x="574" y="473" on="0"/>
        <pt x="535" y="389" on="0"/>
        <pt x="494" y="351" on="1"/>
        <pt x="494" y="350" on="1"/>
        <pt x="537" y="331" on="0"/>
        <pt x="583" y="260" on="0"/>
        <pt x="583" y="214" on="1"/>
        <pt x="583" y="167" on="0"/>
        <pt x="548" y="91" on="0"/>
        <pt x="518" y="63" on="1"/>
        <pt x="485" y="33" on="0"/>
        <pt x="393" y="0" on="0"/>
        <pt x="328" y="0" on="1"/>
        <pt x="48" y="0" on="1"/>
      </contour>
      <contour>
        <pt x="175" y="102" on="1"/>
        <pt x="327" y="102" on="1"/>
        <pt x="369" y="102" on="0"/>
        <pt x="419" y="118" on="0"/>
        <pt x="436" y="135" on="1"/>
        <pt x="450" y="149" on="0"/>
        <pt x="466" y="190" on="0"/>
        <pt x="466" y="213" on="1"/>
        <pt x="466" y="246" on="0"/>
        <pt x="450" y="262" on="1"/>
        <pt x="439" y="273" on="0"/>
        <pt x="405" y="285" on="0"/>
        <pt x="378" y="285" on="1"/>
        <pt x="196" y="285" on="1"/>
      </contour>
      <contour>
        <pt x="207" y="383" on="1"/>
        <pt x="394" y="383" on="1"/>
        <pt x="408" y="383" on="0"/>
        <pt x="425" y="389" on="0"/>
        <pt x="433" y="400" on="1"/>
        <pt x="444" y="416" on="0"/>
        <pt x="461" y="468" on="0"/>
        <pt x="461" y="491" on="1"/>
        <pt x="461" y="521" on="0"/>
        <pt x="447" y="537" on="1"/>
        <pt x="435" y="551" on="0"/>
        <pt x="393" y="561" on="0"/>
        <pt x="364" y="561" on="1"/>
        <pt x="229" y="561" on="1"/>
      </contour>
    </TTGlyph>
    <TTGlyph name="C" xMin="57" yMin="-10" xMax="646" yMax="673">
      <contour>
        <pt x="623" y="99" on="1"/>
        <pt x="598" y="76" on="0"/>
        <pt x="532" y="37" on="0"/>
        <pt x="458" y="7" on="0"/>
        <pt x="381" y="-10" on="0"/>
        <pt x="346" y="-10" on="1"/>
        <pt x="281" y="-10" on="0"/>
        <pt x="175" y="33" on="0"/>
        <pt x="99" y="112" on="0"/>
        <pt x="57" y="223" on="0"/>
        <pt x="57" y="290" on="1"/>
        <pt x="57" y="368" on="0"/>
        <pt x="108" y="507" on="0"/>
        <pt x="198" y="612" on="0"/>
        <pt x="321" y="673" on="0"/>
        <pt x="393" y="673" on="1"/>
        <pt x="440" y="673" on="0"/>
        <pt x="522" y="642" on="0"/>
        <pt x="587" y="588" on="0"/>
        <pt x="634" y="516" on="0"/>
        <pt x="646" y="476" on="1"/>
        <pt x="560" y="434" on="1"/>
        <pt x="496" y="500" on="1"/>
        <pt x="468" y="529" on="0"/>
        <pt x="417" y="560" on="0"/>
        <pt x="376" y="560" on="1"/>
        <pt x="331" y="560" on="0"/>
        <pt x="257" y="517" on="0"/>
        <pt x="204" y="445" on="0"/>
        <pt x="176" y="351" on="0"/>
        <pt x="176" y="301" on="1"/>
        <pt x="176" y="104" on="0"/>
        <pt x="360" y="104" on="1"/>
        <pt x="385" y="104" on="0"/>
        <pt x="454" y="117" on="0"/>
        <pt x="492" y="131" on="1"/>
        <pt x="586" y="165" on="1"/>
      </contour>
    </TTGlyph>
    <TTGlyph name="Cacute" xMin="57" yMin="-10" xMax="646" yMax="918">
      <component glyphName="C" x="0" y="0" flags="0x204"/>
      <component glyphName="acute.cap" x="170" y="0" flags="0x4"/>
    </TTGlyph>
    <TTGlyph name="Ccaron" xMin="57" yMin="-10" xMax="646" yMax="914">
      <component glyphName="C" x="0" y="0" flags="0x204"/>
      <component glyphName="caron.cap" x="167" y="0" flags="0x4"/>
    </TTGlyph>
    <TTGlyph name="Ccedilla" xMin="57" yMin="-240" xMax="646" yMax="673">
      <contour>
        <pt x="623" y="99" on="1"/>
        <pt x="599" y="78" on="0"/>
        <pt x="537" y="40" on="0"/>
        <pt x="468" y="11" on="0"/>
        <pt x="396" y="-8" on="0"/>
        <pt x="362" y="-9" on="1"/>
        <pt x="356" y="-17" on="0"/>
        <pt x="346" y="-35" on="0"/>
        <pt x="346" y="-43" on="1"/>
        <pt x="346" y="-52" on="0"/>
        <pt x="376" y="-62" on="0"/>
        <pt x="411" y="-78" on="0"/>
        <pt x="441" y="-103" on="0"/>
        <pt x="441" y="-127" on="1"/>
        <pt x="441" y="-159" on="0"/>
        <pt x="404" y="-202" on="0"/>
        <pt x="347" y="-228" on="0"/>
        <pt x="281" y="-239" on="0"/>
        <pt x="253" y="-240" on="1"/>
        <pt x="249" y="-178" on="1"/>
        <pt x="307" y="-167" on="1"/>
        <pt x="330" y="-162" on="0"/>
        <pt x="345" y="-150" on="0"/>
        <pt x="345" y="-142" on="1"/>
        <pt x="345" y="-134" on="0"/>
        <pt x="318" y="-123" on="0"/>
        <pt x="285" y="-110" on="0"/>
        <pt x="258" y="-90" on="0"/>
        <pt x="258" y="-73" on="1"/>
        <pt x="258" y="-56" on="0"/>
        <pt x="282" y="-20" on="0"/>
        <pt x="297" y="-6" on="1"/>
        <pt x="243" y="1" on="0"/>
        <pt x="154" y="51" on="0"/>
        <pt x="91" y="128" on="0"/>
        <pt x="57" y="230" on="0"/>
        <pt x="57" y="290" on="1"/>
        <pt x="57" y="368" on="0"/>
        <pt x="108" y="507" on="0"/>
        <pt x="198" y="612" on="0"/>
        <pt x="321" y="673" on="0"/>
        <pt x="393" y="673" on="1"/>
        <pt x="440" y="673" on="0"/>
        <pt x="522" y="642" on="0"/>
        <pt x="587" y="588" on="0"/>
        <pt x="634" y="516" on="0"/>
        <pt x="646" y="476" on="1"/>
        <pt x="560" y="434" on="1"/>
        <pt x="496" y="500" on="1"/>
        <pt x="468" y="529" on="0"/>
        <pt x="417" y="560" on="0"/>
        <pt x="376" y="560" on="1"/>
        <pt x="331" y="560" on="0"/>
        <pt x="257" y="517" on="0"/>
        <pt x="204" y="445" on="0"/>
        <pt x="176" y="351" on="0"/>
        <pt x="176" y="301" on="1"/>
        <pt x="176" y="104" on="0"/>
        <pt x="360" y="104" on="1"/>
        <pt x="385" y="104" on="0"/>
        <pt x="454" y="117" on="0"/>
        <pt x="492" y="131" on="1"/>
        <pt x="586" y="165" on="1"/>
      </contour>
    </TTGlyph>
    <TTGlyph name="Ccircumflex" xMin="57" yMin="-10" xMax="646" yMax="904">
      <component glyphName="C" x="0" y="0" flags="0x204"/>
      <component glyphName="circumflex.cap" x="164" y="0" flags="0x4"/>
    </TTGlyph>
    <TTGlyph name="Cdotaccent" xMin="57" yMin="-10" xMax="646" yMax="847">
      <component glyphName="C" x="0" y="0" flags="0x204"/>
      <component glyphName="dotaccent.cap" x="145" y="0" flags="0x4"/>
    </TTGlyph>
    <TTGlyph name="D" xMin="48" yMin="0" xMax="670" yMax="663">
      <contour>
        <pt x="126" y="663" on="1"/>
        <pt x="343" y="663" on="1"/>
        <pt x="428" y="663" on="0"/>
        <pt x="553" y="626" on="0"/>
        <pt x="597" y="584" on="1"/>
        <pt x="632" y="550" on="0"/>
        <pt x="670" y="449" on="0"/>
        <pt x="670" y="383" on="1"/>
        <pt x="670" y="297" on="0"/>
        <pt x="611" y="153" on="0"/>
        <pt x="561" y="102" on="1"/>
        <pt x="511" y="51" on="0"/>
        <pt x="372" y="0" on="0"/>
        <pt x="285" y="0" on="1"/>
        <pt x="48" y="0" on="1"/>
      </contour>
      <contour>
        <pt x="175" y="105" on="1"/>
        <pt x="282" y="105" on="1"/>
        <pt x="349" y="105" on="0"/>
        <pt x="442" y="139" on="0"/>
        <pt x="476" y="172" on="1"/>
        <pt x="514" y="210" on="0"/>
        <pt x="551" y="321" on="0"/>
        <pt x="551" y="386" on="1"/>
        <pt x="551" y="429" on="0"/>
        <pt x="528" y="491" on="0"/>
        <pt x="508" y="511" on="1"/>
        <pt x="480" y="538" on="0"/>
        <pt x="395" y="558" on="0"/>
        <pt x="338" y="558" on="1"/>
        <pt x="229" y="558" on="1"/>
      </contour>
    </TTGlyph>
    <TTGlyph name="Dcaron" xMin="48" yMin="0" xMax="670" yMax="914">
      <component glyphName="D" x="0" y="0" flags="0x204"/>
      <component glyphName="caron.cap" x="86" y="0" flags="0x4"/>
    </TTGlyph>
    <TTGlyph name="Dcroat" xMin="28" yMin="0" xMax="699" yMax="663">
      <contour>
        <pt x="155" y="663" on="1"/>
        <pt x="372" y="663" on="1"/>
        <pt x="457" y="663" on="0"/>
        <pt x="582" y="627" on="0"/>
        <pt x="626" y="585" on="1"/>
        <pt x="661" y="551" on="0"/>
        <pt x="699" y="449" on="0"/>
        <pt x="699" y="383" on="1"/>
        <pt x="699" y="297" on="0"/>
        <pt x="640" y="153" on="0"/>
        <pt x="590" y="102" on="1"/>
        <pt x="540" y="51" on="0"/>
        <pt x="401" y="0" on="0"/>
        <pt x="314" y="0" on="1"/>
        <pt x="77" y="0" on="1"/>
        <pt x="112" y="293" on="1"/>
        <pt x="28" y="293" on="1"/>
        <pt x="39" y="385" on="1"/>
        <pt x="122" y="385" on="1"/>
      </contour>
      <contour>
        <pt x="204" y="103" on="1"/>
        <pt x="311" y="103" on="1"/>
        <pt x="378" y="103" on="0"/>
        <pt x="471" y="137" on="0"/>
        <pt x="505" y="170" on="1"/>
        <pt x="543" y="208" on="0"/>
        <pt x="580" y="321" on="0"/>
        <pt x="580" y="386" on="1"/>
        <pt x="580" y="429" on="0"/>
        <pt x="557" y="494" on="0"/>
        <pt x="537" y="514" on="1"/>
        <pt x="509" y="541" on="0"/>
        <pt x="424" y="561" on="0"/>
        <pt x="367" y="561" on="1"/>
        <pt x="258" y="561" on="1"/>
        <pt x="237" y="385" on="1"/>
        <pt x="371" y="385" on="1"/>
        <pt x="360" y="293" on="1"/>
        <pt x="227" y="293" on="1"/>
      </contour>
    </TTGlyph>
    <TTGlyph name="Delta" xMin="12" yMin="0" xMax="596" yMax="663">
      <contour>
        <pt x="19" y="53" on="1"/>
        <pt x="22" y="75" on="0"/>
        <pt x="34" y="108" on="0"/>
        <pt x="49" y="138" on="1"/>
        <pt x="307" y="663" on="1"/>
        <pt x="419" y="663" on="1"/>
        <pt x="428" y="663" on="0"/>
        <pt x="436" y="658" on="0"/>
        <pt x="439" y="648" on="1"/>
        <pt x="584" y="138" on="1"/>
        <pt x="589" y="119" on="0"/>
        <pt x="596" y="84" on="0"/>
        <pt x="596" y="76" on="1"/>
        <pt x="596" y="63" on="0"/>
        <pt x="593" y="41" on="1"/>
        <pt x="588" y="0" on="1"/>
        <pt x="12" y="0" on="1"/>
      </contour>
      <contour>
        <pt x="404" y="104" on="1"/>
        <pt x="427" y="104" on="0"/>
        <pt x="466" y="103" on="0"/>
        <pt x="480" y="101" on="1"/>
        <pt x="474" y="120" on="0"/>
        <pt x="456" y="181" on="0"/>
        <pt x="446" y="216" on="1"/>
        <pt x="400" y="383" on="1"/>
        <pt x="386" y="434" on="0"/>
        <pt x="366" y="514" on="0"/>
        <pt x="359" y="548" on="1"/>
        <pt x="332" y="483" on="0"/>
        <pt x="285" y="385" on="1"/>
        <pt x="203" y="216" on="1"/>
        <pt x="186" y="181" on="0"/>
        <pt x="154" y="119" on="0"/>
        <pt x="143" y="101" on="1"/>
        <pt x="180" y="104" on="0"/>
        <pt x="220" y="104" on="1"/>
      </contour>
    </TTGlyph>
    <TTGlyph name="E" xMin="48" yMin="0" xMax="569" yMax="663">
      <contour>
        <pt x="569" y="663" on="1"/>
        <pt x="557" y="561" on="1"/>
        <pt x="229" y="561" on="1"/>
        <pt x="208" y="391" on="1"/>
        <pt x="509" y="391" on="1"/>
        <pt x="496" y="290" on="1"/>
        <pt x="197" y="290" on="1"/>
        <pt x="175" y="102" on="1"/>
        <pt x="514" y="102" on="1"/>
        <pt x="502" y="0" on="1"/>
        <pt x="48" y="0" on="1"/>
        <pt x="126" y="663" on="1"/>
      </contour>
    </TTGlyph>
    <TTGlyph name="Eacute" xMin="48" yMin="0" xMax="569" yMax="918">
      <component glyphName="E" x="0" y="0" flags="0x204"/>
      <component glyphName="acute.cap" x="115" y="0" flags="0x4"/>
    </TTGlyph>
    <TTGlyph name="Ebreve" xMin="48" yMin="0" xMax="569" yMax="889">
      <component glyphName="E" x="0" y="0" flags="0x204"/>
      <component glyphName="breve.cap" x="97" y="0" flags="0x4"/>
    </TTGlyph>
    <TTGlyph name="Ecaron" xMin="48" yMin="0" xMax="569" yMax="914">
      <component glyphName="E" x="0" y="0" flags="0x204"/>
      <component glyphName="caron.cap" x="88" y="0" flags="0x4"/>
    </TTGlyph>
    <TTGlyph name="Ecircumflex" xMin="48" yMin="0" xMax="569" yMax="904">
      <component glyphName="E" x="0" y="0" flags="0x204"/>
      <component glyphName="circumflex.cap" x="105" y="0" flags="0x4"/>
    </TTGlyph>
    <TTGlyph name="Edieresis" xMin="48" yMin="0" xMax="569" yMax="863">
      <component glyphName="E" x="0" y="0" flags="0x204"/>
      <component glyphName="dieresis.cap" x="112" y="0" flags="0x4"/>
    </TTGlyph>
    <TTGlyph name="Edotaccent" xMin="48" yMin="0" xMax="569" yMax="847">
      <component glyphName="E" x="0" y="0" flags="0x204"/>
      <component glyphName="dotaccent.cap" x="98" y="0" flags="0x4"/>
    </TTGlyph>
    <TTGlyph name="Egrave" xMin="48" yMin="0" xMax="569" yMax="919">
      <component glyphName="E" x="0" y="0" flags="0x204"/>
      <component glyphName="grave.cap" x="105" y="0" flags="0x4"/>
    </TTGlyph>
    <TTGlyph name="Emacron" xMin="48" yMin="0" xMax="569" yMax="854">
      <component glyphName="E" x="0" y="0" flags="0x204"/>
      <component glyphName="macron.cap" x="92" y="0" flags="0x4"/>
    </TTGlyph>
    <TTGlyph name="Eng" xMin="48" yMin="-238" xMax="693" yMax="663">
      <contour>
        <pt x="613" y="-18" on="1"/>
        <pt x="606" y="-78" on="0"/>
        <pt x="575" y="-167" on="0"/>
        <pt x="545" y="-195" on="1"/>
        <pt x="524" y="-215" on="0"/>
        <pt x="464" y="-238" on="0"/>
        <pt x="424" y="-238" on="1"/>
        <pt x="389" y="-238" on="0"/>
        <pt x="315" y="-217" on="0"/>
        <pt x="289" y="-203" on="1"/>
        <pt x="315" y="-128" on="1"/>
        <pt x="333" y="-131" on="0"/>
        <pt x="386" y="-137" on="0"/>
        <pt x="404" y="-137" on="1"/>
        <pt x="460" y="-137" on="0"/>
        <pt x="498" y="-84" on="0"/>
        <pt x="503" y="-32" on="1"/>
        <pt x="508" y="18" on="1"/>
        <pt x="306" y="333" on="1"/>
        <pt x="294" y="352" on="0"/>
        <pt x="267" y="394" on="0"/>
        <pt x="241" y="435" on="0"/>
        <pt x="220" y="471" on="0"/>
        <pt x="213" y="483" on="1"/>
        <pt x="212" y="483" on="1"/>
        <pt x="156" y="0" on="1"/>
        <pt x="48" y="0" on="1"/>
        <pt x="126" y="663" on="1"/>
        <pt x="207" y="663" on="1"/>
        <pt x="216" y="663" on="0"/>
        <pt x="224" y="659" on="0"/>
        <pt x="229" y="652" on="1"/>
        <pt x="435" y="331" on="1"/>
        <pt x="447" y="313" on="0"/>
        <pt x="474" y="270" on="0"/>
        <pt x="499" y="230" on="0"/>
        <pt x="521" y="193" on="0"/>
        <pt x="528" y="181" on="1"/>
        <pt x="529" y="181" on="1"/>
        <pt x="585" y="663" on="1"/>
        <pt x="693" y="663" on="1"/>
      </contour>
    </TTGlyph>
    <TTGlyph name="Eogonek" xMin="48" yMin="-218" xMax="569" yMax="663">
      <contour>
        <pt x="569" y="663" on="1"/>
        <pt x="557" y="561" on="1"/>
        <pt x="229" y="561" on="1"/>
        <pt x="208" y="391" on="1"/>
        <pt x="509" y="391" on="1"/>
        <pt x="496" y="290" on="1"/>
        <pt x="197" y="290" on="1"/>
        <pt x="175" y="102" on="1"/>
        <pt x="514" y="102" on="1"/>
        <pt x="502" y="0" on="1"/>
        <pt x="422" y="0" on="1"/>
        <pt x="407" y="0" on="0"/>
        <pt x="397" y="-10" on="1"/>
        <pt x="374" y="-33" on="0"/>
        <pt x="345" y="-80" on="0"/>
        <pt x="345" y="-101" on="1"/>
        <pt x="345" y="-119" on="0"/>
        <pt x="368" y="-140" on="0"/>
        <pt x="391" y="-140" on="1"/>
        <pt x="410" y="-140" on="0"/>
        <pt x="428" y="-137" on="1"/>
        <pt x="458" y="-132" on="1"/>
        <pt x="469" y="-192" on="1"/>
        <pt x="445" y="-204" on="0"/>
        <pt x="391" y="-218" on="0"/>
        <pt x="368" y="-218" on="1"/>
        <pt x="316" y="-218" on="0"/>
        <pt x="252" y="-163" on="0"/>
        <pt x="252" y="-123" on="1"/>
        <pt x="252" y="-91" on="0"/>
        <pt x="291" y="-30" on="0"/>
        <pt x="326" y="0" on="1"/>
        <pt x="48" y="0" on="1"/>
        <pt x="126" y="663" on="1"/>
      </contour>
    </TTGlyph>
    <TTGlyph name="Eth" xMin="28" yMin="0" xMax="699" yMax="663">
      <contour>
        <pt x="155" y="663" on="1"/>
        <pt x="372" y="663" on="1"/>
        <pt x="457" y="663" on="0"/>
        <pt x="582" y="627" on="0"/>
        <pt x="626" y="585" on="1"/>
        <pt x="661" y="551" on="0"/>
        <pt x="699" y="449" on="0"/>
        <pt x="699" y="383" on="1"/>
        <pt x="699" y="297" on="0"/>
        <pt x="640" y="153" on="0"/>
        <pt x="590" y="102" on="1"/>
        <pt x="540" y="51" on="0"/>
        <pt x="401" y="0" on="0"/>
        <pt x="314" y="0" on="1"/>
        <pt x="77" y="0" on="1"/>
        <pt x="112" y="293" on="1"/>
        <pt x="28" y="293" on="1"/>
        <pt x="39" y="385" on="1"/>
        <pt x="122" y="385" on="1"/>
      </contour>
      <contour>
        <pt x="204" y="103" on="1"/>
        <pt x="311" y="103" on="1"/>
        <pt x="378" y="103" on="0"/>
        <pt x="471" y="137" on="0"/>
        <pt x="505" y="170" on="1"/>
        <pt x="543" y="208" on="0"/>
        <pt x="580" y="321" on="0"/>
        <pt x="580" y="386" on="1"/>
        <pt x="580" y="429" on="0"/>
        <pt x="557" y="494" on="0"/>
        <pt x="537" y="514" on="1"/>
        <pt x="509" y="541" on="0"/>
        <pt x="424" y="561" on="0"/>
        <pt x="367" y="561" on="1"/>
        <pt x="258" y="561" on="1"/>
        <pt x="237" y="385" on="1"/>
        <pt x="371" y="385" on="1"/>
        <pt x="360" y="293" on="1"/>
        <pt x="227" y="293" on="1"/>
      </contour>
    </TTGlyph>
    <TTGlyph name="Euro" xMin="56" yMin="-10" xMax="619" yMax="673">
      <contour>
        <pt x="504" y="521" on="1"/>
        <pt x="473" y="545" on="0"/>
        <pt x="428" y="567" on="0"/>
        <pt x="401" y="567" on="1"/>
        <pt x="354" y="567" on="0"/>
        <pt x="281" y="492" on="0"/>
        <pt x="261" y="420" on="1"/>
        <pt x="455" y="420" on="1"/>
        <pt x="447" y="355" on="1"/>
        <pt x="247" y="355" on="1"/>
        <pt x="242" y="326" on="0"/>
        <pt x="241" y="295" on="1"/>
        <pt x="439" y="295" on="1"/>
        <pt x="431" y="230" on="1"/>
        <pt x="240" y="230" on="1"/>
        <pt x="244" y="165" on="0"/>
        <pt x="308" y="98" on="0"/>
        <pt x="362" y="98" on="1"/>
        <pt x="387" y="98" on="0"/>
        <pt x="444" y="110" on="0"/>
        <pt x="486" y="127" on="1"/>
        <pt x="545" y="151" on="1"/>
        <pt x="578" y="95" on="1"/>
        <pt x="533" y="48" on="0"/>
        <pt x="408" y="-10" on="0"/>
        <pt x="348" y="-10" on="1"/>
        <pt x="299" y="-10" on="0"/>
        <pt x="219" y="24" on="0"/>
        <pt x="161" y="87" on="0"/>
        <pt x="127" y="175" on="0"/>
        <pt x="124" y="230" on="1"/>
        <pt x="56" y="230" on="1"/>
        <pt x="63" y="285" on="1"/>
        <pt x="125" y="294" on="1"/>
        <pt x="127" y="310" on="0"/>
        <pt x="129" y="340" on="0"/>
        <pt x="131" y="355" on="1"/>
        <pt x="72" y="355" on="1"/>
        <pt x="79" y="410" on="1"/>
        <pt x="146" y="419" on="1"/>
        <pt x="162" y="474" on="0"/>
        <pt x="213" y="568" on="0"/>
        <pt x="282" y="635" on="0"/>
        <pt x="366" y="673" on="0"/>
        <pt x="414" y="673" on="1"/>
        <pt x="485" y="673" on="0"/>
        <pt x="587" y="594" on="0"/>
        <pt x="619" y="533" on="1"/>
        <pt x="556" y="480" on="1"/>
      </contour>
    </TTGlyph>
    <TTGlyph name="Euro.lprop" xMin="45" yMin="-10" xMax="608" yMax="673">
      <component glyphName="Euro" x="-11" y="0" flags="0x4"/>
    </TTGlyph>
    <TTGlyph name="Euro.oprop" xMin="32" yMin="-8" xMax="552" yMax="496">
      <component glyphName="Euro.otab" x="-8" y="0" flags="0x4"/>
    </TTGlyph>
    <TTGlyph name="Euro.otab" xMin="40" yMin="-8" xMax="560" yMax="496">
      <contour>
        <pt x="481" y="305" on="1"/>
        <pt x="444" y="342" on="1"/>
        <pt x="418" y="368" on="0"/>
        <pt x="374" y="394" on="0"/>
        <pt x="345" y="394" on="1"/>
        <pt x="308" y="394" on="0"/>
        <pt x="253" y="347" on="0"/>
        <pt x="237" y="309" on="1"/>
        <pt x="385" y="309" on="1"/>
        <pt x="378" y="255" on="1"/>
        <pt x="223" y="255" on="1"/>
        <pt x="222" y="248" on="0"/>
        <pt x="221" y="235" on="0"/>
        <pt x="221" y="228" on="1"/>
        <pt x="375" y="228" on="1"/>
        <pt x="368" y="174" on="1"/>
        <pt x="226" y="174" on="1"/>
        <pt x="236" y="135" on="0"/>
        <pt x="292" y="93" on="0"/>
        <pt x="340" y="93" on="1"/>
        <pt x="363" y="93" on="0"/>
        <pt x="417" y="105" on="0"/>
        <pt x="441" y="114" on="1"/>
        <pt x="506" y="138" on="1"/>
        <pt x="539" y="79" on="1"/>
        <pt x="519" y="61" on="0"/>
        <pt x="467" y="29" on="0"/>
        <pt x="411" y="5" on="0"/>
        <pt x="352" y="-8" on="0"/>
        <pt x="324" y="-8" on="1"/>
        <pt x="234" y="-8" on="0"/>
        <pt x="125" y="93" on="0"/>
        <pt x="114" y="174" on="1"/>
        <pt x="40" y="174" on="1"/>
        <pt x="45" y="218" on="1"/>
        <pt x="111" y="226" on="1"/>
        <pt x="111" y="234" on="0"/>
        <pt x="112" y="247" on="0"/>
        <pt x="113" y="255" on="1"/>
        <pt x="50" y="255" on="1"/>
        <pt x="55" y="299" on="1"/>
        <pt x="125" y="308" on="1"/>
        <pt x="137" y="348" on="0"/>
        <pt x="182" y="417" on="0"/>
        <pt x="244" y="468" on="0"/>
        <pt x="321" y="496" on="0"/>
        <pt x="366" y="496" on="1"/>
        <pt x="399" y="496" on="0"/>
        <pt x="461" y="474" on="0"/>
        <pt x="513" y="434" on="0"/>
        <pt x="551" y="377" on="0"/>
        <pt x="560" y="341" on="1"/>
      </contour>
    </TTGlyph>
    <TTGlyph name="F" xMin="48" yMin="0" xMax="569" yMax="663">
      <contour>
        <pt x="569" y="663" on="1"/>
        <pt x="557" y="561" on="1"/>
        <pt x="229" y="561" on="1"/>
        <pt x="209" y="391" on="1"/>
        <pt x="509" y="391" on="1"/>
        <pt x="496" y="290" on="1"/>
        <pt x="197" y="290" on="1"/>
        <pt x="163" y="0" on="1"/>
        <pt x="48" y="0" on="1"/>
        <pt x="126" y="663" on="1"/>
      </contour>
    </TTGlyph>
    <TTGlyph name="G" xMin="57" yMin="-10" xMax="671" yMax="673">
      <contour>
        <pt x="581" y="444" on="1"/>
        <pt x="522" y="500" on="1"/>
        <pt x="505" y="515" on="0"/>
        <pt x="476" y="538" on="0"/>
        <pt x="444" y="553" on="0"/>
        <pt x="408" y="561" on="0"/>
        <pt x="384" y="561" on="1"/>
        <pt x="336" y="561" on="0"/>
        <pt x="259" y="519" on="0"/>
        <pt x="205" y="447" on="0"/>
        <pt x="176" y="352" on="0"/>
        <pt x="176" y="299" on="1"/>
        <pt x="176" y="257" on="0"/>
        <pt x="199" y="185" on="0"/>
        <pt x="246" y="132" on="0"/>
        <pt x="315" y="103" on="0"/>
        <pt x="361" y="103" on="1"/>
        <pt x="398" y="103" on="0"/>
        <pt x="487" y="123" on="0"/>
        <pt x="521" y="137" on="1"/>
        <pt x="532" y="142" on="0"/>
        <pt x="537" y="152" on="0"/>
        <pt x="539" y="163" on="1"/>
        <pt x="549" y="251" on="1"/>
        <pt x="427" y="251" on="1"/>
        <pt x="438" y="346" on="1"/>
        <pt x="656" y="346" on="1"/>
        <pt x="671" y="346" on="0"/>
        <pt x="670" y="333" on="1"/>
        <pt x="631" y="0" on="1"/>
        <pt x="553" y="0" on="1"/>
        <pt x="535" y="57" on="1"/>
        <pt x="487" y="32" on="1"/>
        <pt x="447" y="12" on="0"/>
        <pt x="375" y="-10" on="0"/>
        <pt x="333" y="-10" on="1"/>
        <pt x="271" y="-10" on="0"/>
        <pt x="170" y="35" on="0"/>
        <pt x="97" y="116" on="0"/>
        <pt x="57" y="226" on="0"/>
        <pt x="57" y="291" on="1"/>
        <pt x="57" y="370" on="0"/>
        <pt x="108" y="509" on="0"/>
        <pt x="201" y="613" on="0"/>
        <pt x="330" y="673" on="0"/>
        <pt x="407" y="673" on="1"/>
        <pt x="452" y="673" on="0"/>
        <pt x="532" y="646" on="0"/>
        <pt x="597" y="598" on="0"/>
        <pt x="645" y="532" on="0"/>
        <pt x="660" y="492" on="1"/>
      </contour>
    </TTGlyph>
    <TTGlyph name="Gbreve" xMin="57" yMin="-10" xMax="671" yMax="889">
      <component glyphName="G" x="0" y="0" flags="0x204"/>
      <component glyphName="breve.cap" x="171" y="0" flags="0x4"/>
    </TTGlyph>
    <TTGlyph name="Gcircumflex" xMin="57" yMin="-10" xMax="671" yMax="904">
      <component glyphName="G" x="0" y="0" flags="0x204"/>
      <component glyphName="circumflex.cap" x="164" y="0" flags="0x4"/>
    </TTGlyph>
    <TTGlyph name="Gcommaaccent" xMin="57" yMin="-282" xMax="671" yMax="673">
      <component glyphName="G" x="0" y="0" flags="0x204"/>
      <component glyphName="commaaccent" x="164" y="0" flags="0x4"/>
    </TTGlyph>
    <TTGlyph name="Gdotaccent" xMin="57" yMin="-10" xMax="671" yMax="847">
      <component glyphName="G" x="0" y="0" flags="0x204"/>
      <component glyphName="dotaccent.cap" x="161" y="0" flags="0x4"/>
    </TTGlyph>
    <TTGlyph name="H" xMin="48" yMin="0" xMax="676" yMax="663">
      <contour>
        <pt x="517" y="289" on="1"/>
        <pt x="197" y="289" on="1"/>
        <pt x="163" y="0" on="1"/>
        <pt x="48" y="0" on="1"/>
        <pt x="126" y="663" on="1"/>
        <pt x="241" y="663" on="1"/>
        <pt x="209" y="395" on="1"/>
        <pt x="529" y="395" on="1"/>
        <pt x="561" y="663" on="1"/>
        <pt x="676" y="663" on="1"/>
        <pt x="598" y="0" on="1"/>
        <pt x="483" y="0" on="1"/>
      </contour>
    </TTGlyph>
    <TTGlyph name="Hbar" xMin="51" yMin="0" xMax="757" yMax="663">
      <contour>
        <pt x="535" y="289" on="1"/>
        <pt x="215" y="289" on="1"/>
        <pt x="181" y="0" on="1"/>
        <pt x="66" y="0" on="1"/>
        <pt x="124" y="492" on="1"/>
        <pt x="51" y="492" on="1"/>
        <pt x="61" y="578" on="1"/>
        <pt x="134" y="578" on="1"/>
        <pt x="144" y="663" on="1"/>
        <pt x="259" y="663" on="1"/>
        <pt x="249" y="578" on="1"/>
        <pt x="569" y="578" on="1"/>
        <pt x="579" y="663" on="1"/>
        <pt x="694" y="663" on="1"/>
        <pt x="684" y="578" on="1"/>
        <pt x="757" y="578" on="1"/>
        <pt x="747" y="492" on="1"/>
        <pt x="674" y="492" on="1"/>
        <pt x="616" y="0" on="1"/>
        <pt x="501" y="0" on="1"/>
      </contour>
      <contour>
        <pt x="548" y="395" on="1"/>
        <pt x="559" y="492" on="1"/>
        <pt x="239" y="492" on="1"/>
        <pt x="228" y="395" on="1"/>
      </contour>
    </TTGlyph>
    <TTGlyph name="Hcircumflex" xMin="48" yMin="0" xMax="676" yMax="904">
      <component glyphName="H" x="0" y="0" flags="0x204"/>
      <component glyphName="circumflex.cap" x="161" y="0" flags="0x4"/>
    </TTGlyph>
    <TTGlyph name="I" xMin="50" yMin="0" xMax="243" yMax="663">
      <contour>
        <pt x="128" y="663" on="1"/>
        <pt x="243" y="663" on="1"/>
        <pt x="165" y="0" on="1"/>
        <pt x="50" y="0" on="1"/>
      </contour>
    </TTGlyph>
    <TTGlyph name="IJ" xMin="50" yMin="-10" xMax="746" yMax="663">
      <component glyphName="I" x="0" y="0" flags="0x4"/>
      <component glyphName="J" x="273" y="0" flags="0x4"/>
    </TTGlyph>
    <TTGlyph name="Iacute" xMin="50" yMin="0" xMax="356" yMax="918">
      <component glyphName="I" x="0" y="0" flags="0x4"/>
      <component glyphName="acute.cap" x="-30" y="0" flags="0x4"/>
    </TTGlyph>
    <TTGlyph name="Ibreve" xMin="49" yMin="0" xMax="361" yMax="889">
      <component glyphName="I" x="0" y="0" flags="0x4"/>
      <component glyphName="breve.cap" x="-63" y="0" flags="0x4"/>
    </TTGlyph>
    <TTGlyph name="Icircumflex" xMin="38" yMin="0" xMax="375" yMax="904">
      <component glyphName="I" x="0" y="0" flags="0x4"/>
      <component glyphName="circumflex.cap" x="-50" y="0" flags="0x4"/>
    </TTGlyph>
    <TTGlyph name="Idieresis" xMin="50" yMin="0" xMax="365" yMax="863">
      <component glyphName="I" x="0" y="0" flags="0x4"/>
      <component glyphName="dieresis.cap" x="-50" y="0" flags="0x4"/>
    </TTGlyph>
    <TTGlyph name="Idotaccent" xMin="50" yMin="0" xMax="269" yMax="847">
      <component glyphName="I" x="0" y="0" flags="0x204"/>
      <component glyphName="dotaccent.cap" x="-67" y="0" flags="0x4"/>
    </TTGlyph>
    <TTGlyph name="Igrave" xMin="47" yMin="0" xMax="288" yMax="919">
      <component glyphName="I" x="0" y="0" flags="0x204"/>
      <component glyphName="grave.cap" x="-80" y="0" flags="0x4"/>
    </TTGlyph>
    <TTGlyph name="Imacron" xMin="50" yMin="0" xMax="362" yMax="854">
      <component glyphName="I" x="0" y="0" flags="0x4"/>
      <component glyphName="macron.cap" x="-60" y="0" flags="0x4"/>
    </TTGlyph>
    <TTGlyph name="Iogonek" xMin="-25" yMin="-218" xMax="242" yMax="663">
      <contour>
        <pt x="145" y="0" on="1"/>
        <pt x="130" y="0" on="0"/>
        <pt x="120" y="-10" on="1"/>
        <pt x="97" y="-33" on="0"/>
        <pt x="68" y="-80" on="0"/>
        <pt x="68" y="-101" on="1"/>
        <pt x="68" y="-119" on="0"/>
        <pt x="91" y="-140" on="0"/>
        <pt x="114" y="-140" on="1"/>
        <pt x="133" y="-140" on="0"/>
        <pt x="151" y="-137" on="1"/>
        <pt x="181" y="-132" on="1"/>
        <pt x="192" y="-192" on="1"/>
        <pt x="168" y="-204" on="0"/>
        <pt x="114" y="-218" on="0"/>
        <pt x="91" y="-218" on="1"/>
        <pt x="39" y="-218" on="0"/>
        <pt x="-25" y="-163" on="0"/>
        <pt x="-25" y="-123" on="1"/>
        <pt x="-25" y="-91" on="0"/>
        <pt x="14" y="-30" on="0"/>
        <pt x="49" y="0" on="1"/>
        <pt x="127" y="663" on="1"/>
        <pt x="242" y="663" on="1"/>
        <pt x="164" y="0" on="1"/>
      </contour>
    </TTGlyph>
    <TTGlyph name="Itilde" xMin="27" yMin="0" xMax="380" yMax="871">
      <component glyphName="I" x="-1" y="0" flags="0x4"/>
      <component glyphName="tilde.cap" x="-63" y="0" flags="0x4"/>
    </TTGlyph>
    <TTGlyph name="J" xMin="4" yMin="-10" xMax="473" yMax="663">
      <contour>
        <pt x="26" y="118" on="1"/>
        <pt x="77" y="110" on="1"/>
        <pt x="115" y="104" on="0"/>
        <pt x="173" y="97" on="0"/>
        <pt x="191" y="97" on="1"/>
        <pt x="222" y="97" on="0"/>
        <pt x="263" y="112" on="0"/>
        <pt x="276" y="126" on="1"/>
        <pt x="289" y="140" on="0"/>
        <pt x="302" y="179" on="0"/>
        <pt x="305" y="207" on="1"/>
        <pt x="358" y="663" on="1"/>
        <pt x="473" y="663" on="1"/>
        <pt x="418" y="198" on="1"/>
        <pt x="411" y="144" on="0"/>
        <pt x="377" y="69" on="0"/>
        <pt x="349" y="43" on="1"/>
        <pt x="321" y="17" on="0"/>
        <pt x="248" y="-10" on="0"/>
        <pt x="203" y="-10" on="1"/>
        <pt x="177" y="-10" on="0"/>
        <pt x="122" y="-1" on="0"/>
        <pt x="70" y="16" on="0"/>
        <pt x="23" y="38" on="0"/>
        <pt x="4" y="51" on="1"/>
      </contour>
    </TTGlyph>
    <TTGlyph name="Jcircumflex" xMin="4" yMin="-10" xMax="597" yMax="904">
      <component glyphName="J" x="0" y="0" flags="0x4"/>
      <component glyphName="circumflex.cap" x="172" y="0" flags="0x4"/>
    </TTGlyph>
    <TTGlyph name="K" xMin="48" yMin="0" xMax="646" yMax="669">
      <contour>
        <pt x="287" y="316" on="1"/>
        <pt x="278" y="309" on="0"/>
        <pt x="253" y="292" on="0"/>
        <pt x="227" y="275" on="0"/>
        <pt x="202" y="260" on="0"/>
        <pt x="193" y="256" on="1"/>
        <pt x="163" y="0" on="1"/>
        <pt x="48" y="0" on="1"/>
        <pt x="126" y="663" on="1"/>
        <pt x="241" y="663" on="1"/>
        <pt x="206" y="365" on="1"/>
        <pt x="588" y="669" on="1"/>
        <pt x="646" y="599" on="1"/>
        <pt x="375" y="383" on="1"/>
        <pt x="597" y="0" on="1"/>
        <pt x="483" y="0" on="1"/>
        <pt x="473" y="0" on="0"/>
        <pt x="464" y="4" on="0"/>
        <pt x="460" y="11" on="1"/>
      </contour>
    </TTGlyph>
    <TTGlyph name="Kcommaaccent" xMin="48" yMin="-282" xMax="646" yMax="669">
      <component glyphName="K" x="0" y="0" flags="0x204"/>
      <component glyphName="commaaccent" x="112" y="0" flags="0x4"/>
    </TTGlyph>
    <TTGlyph name="L" xMin="48" yMin="0" xMax="488" yMax="663">
      <contour>
        <pt x="175" y="102" on="1"/>
        <pt x="488" y="102" on="1"/>
        <pt x="476" y="0" on="1"/>
        <pt x="48" y="0" on="1"/>
        <pt x="126" y="663" on="1"/>
        <pt x="241" y="663" on="1"/>
      </contour>
    </TTGlyph>
    <TTGlyph name="Lacute" xMin="48" yMin="0" xMax="488" yMax="918">
      <component glyphName="L" x="0" y="0" flags="0x204"/>
      <component glyphName="acute.cap" x="-28" y="0" flags="0x4"/>
    </TTGlyph>
    <TTGlyph name="Lcaron" xMin="48" yMin="0" xMax="488" yMax="663">
      <component glyphName="L" x="0" y="0" flags="0x204"/>
      <component glyphName="commaaccent" x="238" y="721" flags="0x4"/>
    </TTGlyph>
    <TTGlyph name="Lcommaaccent" xMin="48" yMin="-282" xMax="488" yMax="663">
      <component glyphName="L" x="0" y="0" flags="0x204"/>
      <component glyphName="commaaccent" x="100" y="0" flags="0x4"/>
    </TTGlyph>
    <TTGlyph name="Ldot" xMin="48" yMin="0" xMax="512" yMax="663">
      <component glyphName="L" x="0" y="0" flags="0x4"/>
      <component glyphName="dotaccent" x="228" y="-249" flags="0x4"/>
    </TTGlyph>
    <TTGlyph name="Lslash" xMin="-2" yMin="0" xMax="537" yMax="663">
      <contour>
        <pt x="224" y="102" on="1"/>
        <pt x="537" y="102" on="1"/>
        <pt x="525" y="0" on="1"/>
        <pt x="97" y="0" on="1"/>
        <pt x="126" y="246" on="1"/>
        <pt x="52" y="199" on="1"/>
        <pt x="-2" y="279" on="1"/>
        <pt x="141" y="370" on="1"/>
        <pt x="175" y="663" on="1"/>
        <pt x="290" y="663" on="1"/>
        <pt x="262" y="425" on="1"/>
        <pt x="412" y="521" on="1"/>
        <pt x="466" y="439" on="1"/>
        <pt x="247" y="299" on="1"/>
      </contour>
    </TTGlyph>
    <TTGlyph name="M" xMin="48" yMin="0" xMax="800" yMax="663">
      <contour>
        <pt x="800" y="663" on="1"/>
        <pt x="722" y="0" on="1"/>
        <pt x="611" y="0" on="1"/>
        <pt x="667" y="477" on="1"/>
        <pt x="665" y="477" on="1"/>
        <pt x="452" y="237" on="1"/>
        <pt x="379" y="237" on="1"/>
        <pt x="371" y="237" on="0"/>
        <pt x="364" y="240" on="0"/>
        <pt x="359" y="247" on="1"/>
        <pt x="215" y="477" on="1"/>
        <pt x="213" y="477" on="1"/>
        <pt x="157" y="0" on="1"/>
        <pt x="48" y="0" on="1"/>
        <pt x="126" y="663" on="1"/>
        <pt x="211" y="663" on="1"/>
        <pt x="220" y="663" on="0"/>
        <pt x="229" y="658" on="0"/>
        <pt x="234" y="650" on="1"/>
        <pt x="421" y="353" on="1"/>
        <pt x="423" y="353" on="1"/>
        <pt x="688" y="650" on="1"/>
        <pt x="695" y="658" on="0"/>
        <pt x="705" y="663" on="0"/>
        <pt x="715" y="663" on="1"/>
      </contour>
    </TTGlyph>
    <TTGlyph name="N" xMin="48" yMin="0" xMax="693" yMax="663">
      <contour>
        <pt x="207" y="663" on="1"/>
        <pt x="216" y="663" on="0"/>
        <pt x="224" y="659" on="0"/>
        <pt x="229" y="652" on="1"/>
        <pt x="435" y="330" on="1"/>
        <pt x="447" y="311" on="0"/>
        <pt x="475" y="265" on="0"/>
        <pt x="502" y="222" on="0"/>
        <pt x="523" y="186" on="0"/>
        <pt x="528" y="177" on="1"/>
        <pt x="529" y="177" on="1"/>
        <pt x="585" y="663" on="1"/>
        <pt x="693" y="663" on="1"/>
        <pt x="615" y="0" on="1"/>
        <pt x="534" y="0" on="1"/>
        <pt x="525" y="0" on="0"/>
        <pt x="517" y="4" on="0"/>
        <pt x="512" y="11" on="1"/>
        <pt x="306" y="334" on="1"/>
        <pt x="294" y="352" on="0"/>
        <pt x="268" y="395" on="0"/>
        <pt x="242" y="438" on="0"/>
        <pt x="220" y="476" on="0"/>
        <pt x="213" y="489" on="1"/>
        <pt x="212" y="489" on="1"/>
        <pt x="156" y="0" on="1"/>
        <pt x="48" y="0" on="1"/>
        <pt x="126" y="663" on="1"/>
      </contour>
    </TTGlyph>
    <TTGlyph name="Nacute" xMin="47" yMin="0" xMax="692" yMax="918">
      <component glyphName="N" x="-1" y="0" flags="0x204"/>
      <component glyphName="acute.cap" x="181" y="0" flags="0x4"/>
    </TTGlyph>
    <TTGlyph name="Ncaron" xMin="47" yMin="0" xMax="692" yMax="914">
      <component glyphName="N" x="-1" y="0" flags="0x204"/>
      <component glyphName="caron.cap" x="151" y="0" flags="0x4"/>
    </TTGlyph>
    <TTGlyph name="Ncommaaccent" xMin="47" yMin="-282" xMax="692" yMax="663">
      <component glyphName="N" x="-1" y="0" flags="0x204"/>
      <component glyphName="commaaccent" x="152" y="0" flags="0x4"/>
    </TTGlyph>
    <TTGlyph name="Ntilde" xMin="47" yMin="0" xMax="692" yMax="871">
      <component glyphName="N" x="-1" y="0" flags="0x204"/>
      <component glyphName="tilde.cap" x="164" y="0" flags="0x4"/>
    </TTGlyph>
    <TTGlyph name="O" xMin="57" yMin="-10" xMax="695" yMax="673">
      <contour>
        <pt x="576" y="356" on="1"/>
        <pt x="576" y="399" on="0"/>
        <pt x="551" y="472" on="0"/>
        <pt x="504" y="526" on="0"/>
        <pt x="436" y="557" on="0"/>
        <pt x="393" y="557" on="1"/>
        <pt x="343" y="557" on="0"/>
        <pt x="263" y="519" on="0"/>
        <pt x="207" y="452" on="0"/>
        <pt x="176" y="360" on="0"/>
        <pt x="176" y="307" on="1"/>
        <pt x="176" y="265" on="0"/>
        <pt x="201" y="192" on="0"/>
        <pt x="248" y="137" on="0"/>
        <pt x="316" y="106" on="0"/>
        <pt x="359" y="106" on="1"/>
        <pt x="408" y="106" on="0"/>
        <pt x="489" y="145" on="0"/>
        <pt x="545" y="212" on="0"/>
        <pt x="576" y="303" on="0"/>
      </contour>
      <contour>
        <pt x="695" y="367" on="1"/>
        <pt x="695" y="286" on="0"/>
        <pt x="641" y="148" on="0"/>
        <pt x="548" y="47" on="0"/>
        <pt x="424" y="-10" on="0"/>
        <pt x="354" y="-10" on="1"/>
        <pt x="293" y="-10" on="0"/>
        <pt x="185" y="34" on="0"/>
        <pt x="104" y="115" on="0"/>
        <pt x="57" y="228" on="0"/>
        <pt x="57" y="296" on="1"/>
        <pt x="57" y="377" on="0"/>
        <pt x="112" y="515" on="0"/>
        <pt x="205" y="616" on="0"/>
        <pt x="329" y="673" on="0"/>
        <pt x="398" y="673" on="1"/>
        <pt x="459" y="673" on="0"/>
        <pt x="567" y="629" on="0"/>
        <pt x="648" y="548" on="0"/>
        <pt x="695" y="435" on="0"/>
      </contour>
    </TTGlyph>
    <TTGlyph name="OE" xMin="57" yMin="-10" xMax="1052" yMax="673">
      <contour>
        <pt x="609" y="663" on="1"/>
        <pt x="1052" y="663" on="1"/>
        <pt x="1040" y="561" on="1"/>
        <pt x="712" y="561" on="1"/>
        <pt x="691" y="391" on="1"/>
        <pt x="992" y="391" on="1"/>
        <pt x="979" y="290" on="1"/>
        <pt x="680" y="290" on="1"/>
        <pt x="658" y="102" on="1"/>
        <pt x="997" y="102" on="1"/>
        <pt x="985" y="0" on="1"/>
        <pt x="531" y="0" on="1"/>
        <pt x="540" y="72" on="1"/>
        <pt x="505" y="35" on="0"/>
        <pt x="408" y="-10" on="0"/>
        <pt x="351" y="-10" on="1"/>
        <pt x="291" y="-10" on="0"/>
        <pt x="185" y="34" on="0"/>
        <pt x="104" y="115" on="0"/>
        <pt x="57" y="228" on="0"/>
        <pt x="57" y="296" on="1"/>
        <pt x="57" y="377" on="0"/>
        <pt x="111" y="515" on="0"/>
        <pt x="204" y="616" on="0"/>
        <pt x="328" y="673" on="0"/>
        <pt x="398" y="673" on="1"/>
        <pt x="461" y="673" on="0"/>
        <pt x="566" y="616" on="0"/>
        <pt x="598" y="571" on="1"/>
      </contour>
      <contour>
        <pt x="359" y="106" on="1"/>
        <pt x="408" y="106" on="0"/>
        <pt x="488" y="145" on="0"/>
        <pt x="545" y="211" on="0"/>
        <pt x="576" y="301" on="0"/>
        <pt x="576" y="352" on="1"/>
        <pt x="576" y="397" on="0"/>
        <pt x="551" y="472" on="0"/>
        <pt x="504" y="527" on="0"/>
        <pt x="436" y="557" on="0"/>
        <pt x="393" y="557" on="1"/>
        <pt x="344" y="557" on="0"/>
        <pt x="264" y="519" on="0"/>
        <pt x="207" y="453" on="0"/>
        <pt x="176" y="363" on="0"/>
        <pt x="176" y="311" on="1"/>
        <pt x="176" y="267" on="0"/>
        <pt x="201" y="192" on="0"/>
        <pt x="248" y="137" on="0"/>
        <pt x="316" y="106" on="0"/>
      </contour>
    </TTGlyph>
    <TTGlyph name="Oacute" xMin="57" yMin="-10" xMax="695" yMax="918">
      <component glyphName="O" x="0" y="0" flags="0x204"/>
      <component glyphName="acute.cap" x="172" y="0" flags="0x4"/>
    </TTGlyph>
    <TTGlyph name="Obreve" xMin="57" yMin="-10" xMax="695" yMax="889">
      <component glyphName="O" x="0" y="0" flags="0x204"/>
      <component glyphName="breve.cap" x="165" y="0" flags="0x4"/>
    </TTGlyph>
    <TTGlyph name="Ocircumflex" xMin="57" yMin="-10" xMax="695" yMax="904">
      <component glyphName="O" x="0" y="0" flags="0x204"/>
      <component glyphName="circumflex.cap" x="170" y="0" flags="0x4"/>
    </TTGlyph>
    <TTGlyph name="Odieresis" xMin="57" yMin="-10" xMax="695" yMax="863">
      <component glyphName="O" x="0" y="0" flags="0x204"/>
      <component glyphName="dieresis.cap" x="177" y="0" flags="0x4"/>
    </TTGlyph>
    <TTGlyph name="Ograve" xMin="57" yMin="-10" xMax="695" yMax="919">
      <component glyphName="O" x="0" y="0" flags="0x204"/>
      <component glyphName="grave.cap" x="186" y="0" flags="0x4"/>
    </TTGlyph>
    <TTGlyph name="Ohungarumlaut" xMin="57" yMin="-10" xMax="698" yMax="957">
      <component glyphName="O" x="0" y="0" flags="0x204"/>
      <component glyphName="hungarumlaut.cap" x="207" y="0" flags="0x4"/>
    </TTGlyph>
    <TTGlyph name="Omacron" xMin="57" yMin="-10" xMax="695" yMax="854">
      <component glyphName="O" x="0" y="0" flags="0x204"/>
      <component glyphName="macron.cap" x="164" y="0" flags="0x4"/>
    </TTGlyph>
    <TTGlyph name="Omega" xMin="51" yMin="0" xMax="686" yMax="673">
      <contour>
        <pt x="294" y="0" on="1"/>
        <pt x="51" y="0" on="1"/>
        <pt x="62" y="95" on="1"/>
        <pt x="192" y="95" on="1"/>
        <pt x="173" y="120" on="1"/>
        <pt x="121" y="189" on="0"/>
        <pt x="66" y="313" on="0"/>
        <pt x="66" y="376" on="1"/>
        <pt x="66" y="443" on="0"/>
        <pt x="120" y="552" on="0"/>
        <pt x="211" y="630" on="0"/>
        <pt x="329" y="673" on="0"/>
        <pt x="393" y="673" on="1"/>
        <pt x="452" y="673" on="0"/>
        <pt x="559" y="634" on="0"/>
        <pt x="639" y="565" on="0"/>
        <pt x="686" y="468" on="0"/>
        <pt x="686" y="410" on="1"/>
        <pt x="686" y="337" on="0"/>
        <pt x="607" y="198" on="0"/>
        <pt x="533" y="121" on="1"/>
        <pt x="507" y="95" on="1"/>
        <pt x="633" y="95" on="1"/>
        <pt x="622" y="0" on="1"/>
        <pt x="379" y="0" on="1"/>
        <pt x="385" y="49" on="1"/>
        <pt x="387" y="60" on="0"/>
        <pt x="392" y="71" on="0"/>
        <pt x="400" y="82" on="1"/>
        <pt x="470" y="172" on="1"/>
        <pt x="519" y="235" on="0"/>
        <pt x="570" y="339" on="0"/>
        <pt x="570" y="395" on="1"/>
        <pt x="570" y="434" on="0"/>
        <pt x="542" y="496" on="0"/>
        <pt x="492" y="539" on="0"/>
        <pt x="424" y="561" on="0"/>
        <pt x="385" y="561" on="1"/>
        <pt x="340" y="561" on="0"/>
        <pt x="265" y="535" on="0"/>
        <pt x="210" y="485" on="0"/>
        <pt x="179" y="413" on="0"/>
        <pt x="179" y="367" on="1"/>
        <pt x="179" y="340" on="0"/>
        <pt x="188" y="291" on="0"/>
        <pt x="207" y="240" on="0"/>
        <pt x="236" y="184" on="0"/>
        <pt x="255" y="149" on="1"/>
        <pt x="293" y="80" on="1"/>
        <pt x="301" y="66" on="0"/>
        <pt x="302" y="53" on="0"/>
        <pt x="300" y="44" on="1"/>
      </contour>
    </TTGlyph>
    <TTGlyph name="Oslash" xMin="32" yMin="-46" xMax="717" yMax="714">
      <contour>
        <pt x="694" y="367" on="1"/>
        <pt x="694" y="286" on="0"/>
        <pt x="640" y="148" on="0"/>
        <pt x="547" y="47" on="0"/>
        <pt x="423" y="-10" on="0"/>
        <pt x="353" y="-10" on="1"/>
        <pt x="302" y="-10" on="0"/>
        <pt x="213" y="20" on="0"/>
        <pt x="175" y="48" on="1"/>
        <pt x="92" y="-46" on="1"/>
        <pt x="32" y="7" on="1"/>
        <pt x="118" y="104" on="1"/>
        <pt x="89" y="142" on="0"/>
        <pt x="56" y="239" on="0"/>
        <pt x="56" y="296" on="1"/>
        <pt x="56" y="377" on="0"/>
        <pt x="110" y="515" on="0"/>
        <pt x="203" y="616" on="0"/>
        <pt x="327" y="673" on="0"/>
        <pt x="397" y="673" on="1"/>
        <pt x="446" y="673" on="0"/>
        <pt x="535" y="644" on="0"/>
        <pt x="572" y="617" on="1"/>
        <pt x="657" y="714" on="1"/>
        <pt x="717" y="661" on="1"/>
        <pt x="630" y="562" on="1"/>
        <pt x="660" y="523" on="0"/>
        <pt x="694" y="425" on="0"/>
      </contour>
      <contour>
        <pt x="575" y="356" on="1"/>
        <pt x="575" y="391" on="0"/>
        <pt x="560" y="448" on="0"/>
        <pt x="548" y="470" on="1"/>
        <pt x="254" y="137" on="1"/>
        <pt x="274" y="123" on="0"/>
        <pt x="327" y="106" on="0"/>
        <pt x="358" y="106" on="1"/>
        <pt x="407" y="106" on="0"/>
        <pt x="488" y="144" on="0"/>
        <pt x="544" y="212" on="0"/>
        <pt x="575" y="303" on="0"/>
      </contour>
      <contour>
        <pt x="175" y="307" on="1"/>
        <pt x="175" y="278" on="0"/>
        <pt x="188" y="220" on="0"/>
        <pt x="201" y="198" on="1"/>
        <pt x="494" y="529" on="1"/>
        <pt x="477" y="542" on="0"/>
        <pt x="422" y="557" on="0"/>
        <pt x="392" y="557" on="1"/>
        <pt x="342" y="557" on="0"/>
        <pt x="262" y="519" on="0"/>
        <pt x="206" y="452" on="0"/>
        <pt x="175" y="360" on="0"/>
      </contour>
    </TTGlyph>
    <TTGlyph name="Oslashacute" xMin="32" yMin="-46" xMax="717" yMax="918">
      <component glyphName="Oslash" x="0" y="0" flags="0x204"/>
      <component glyphName="acute.cap" x="179" y="0" flags="0x4"/>
    </TTGlyph>
    <TTGlyph name="Otilde" xMin="57" yMin="-10" xMax="695" yMax="871">
      <component glyphName="O" x="0" y="0" flags="0x204"/>
      <component glyphName="tilde.cap" x="167" y="0" flags="0x4"/>
    </TTGlyph>
    <TTGlyph name="P" xMin="48" yMin="0" xMax="602" yMax="663">
      <contour>
        <pt x="163" y="0" on="1"/>
        <pt x="48" y="0" on="1"/>
        <pt x="126" y="663" on="1"/>
        <pt x="356" y="663" on="1"/>
        <pt x="416" y="663" on="0"/>
        <pt x="517" y="637" on="0"/>
        <pt x="551" y="605" on="1"/>
        <pt x="575" y="582" on="0"/>
        <pt x="602" y="515" on="0"/>
        <pt x="602" y="469" on="1"/>
        <pt x="602" y="414" on="0"/>
        <pt x="558" y="308" on="0"/>
        <pt x="516" y="270" on="1"/>
        <pt x="487" y="244" on="0"/>
        <pt x="410" y="218" on="0"/>
        <pt x="350" y="218" on="1"/>
        <pt x="189" y="218" on="1"/>
      </contour>
      <contour>
        <pt x="392" y="319" on="1"/>
        <pt x="413" y="319" on="0"/>
        <pt x="434" y="327" on="0"/>
        <pt x="446" y="343" on="1"/>
        <pt x="463" y="366" on="0"/>
        <pt x="485" y="433" on="0"/>
        <pt x="485" y="464" on="1"/>
        <pt x="485" y="511" on="0"/>
        <pt x="463" y="533" on="1"/>
        <pt x="436" y="560" on="0"/>
        <pt x="360" y="560" on="1"/>
        <pt x="229" y="560" on="1"/>
        <pt x="201" y="319" on="1"/>
      </contour>
    </TTGlyph>
    <TTGlyph name="Q" xMin="57" yMin="-195" xMax="695" yMax="673">
      <contour>
        <pt x="695" y="367" on="1"/>
        <pt x="695" y="310" on="0"/>
        <pt x="667" y="207" on="0"/>
        <pt x="617" y="120" on="0"/>
        <pt x="548" y="51" on="0"/>
        <pt x="506" y="29" on="1"/>
        <pt x="633" y="-131" on="1"/>
        <pt x="522" y="-195" on="1"/>
        <pt x="403" y="-6" on="1"/>
        <pt x="391" y="-8" on="0"/>
        <pt x="367" y="-10" on="0"/>
        <pt x="354" y="-10" on="1"/>
        <pt x="293" y="-10" on="0"/>
        <pt x="185" y="34" on="0"/>
        <pt x="104" y="115" on="0"/>
        <pt x="57" y="228" on="0"/>
        <pt x="57" y="296" on="1"/>
        <pt x="57" y="377" on="0"/>
        <pt x="111" y="515" on="0"/>
        <pt x="204" y="616" on="0"/>
        <pt x="328" y="673" on="0"/>
        <pt x="398" y="673" on="1"/>
        <pt x="459" y="673" on="0"/>
        <pt x="567" y="629" on="0"/>
        <pt x="648" y="548" on="0"/>
        <pt x="695" y="435" on="0"/>
      </contour>
      <contour>
        <pt x="576" y="356" on="1"/>
        <pt x="576" y="399" on="0"/>
        <pt x="551" y="472" on="0"/>
        <pt x="504" y="526" on="0"/>
        <pt x="436" y="557" on="0"/>
        <pt x="393" y="557" on="1"/>
        <pt x="343" y="557" on="0"/>
        <pt x="263" y="519" on="0"/>
        <pt x="207" y="452" on="0"/>
        <pt x="176" y="360" on="0"/>
        <pt x="176" y="307" on="1"/>
        <pt x="176" y="265" on="0"/>
        <pt x="201" y="192" on="0"/>
        <pt x="248" y="137" on="0"/>
        <pt x="316" y="106" on="0"/>
        <pt x="359" y="106" on="1"/>
        <pt x="408" y="106" on="0"/>
        <pt x="489" y="145" on="0"/>
        <pt x="545" y="212" on="0"/>
        <pt x="576" y="303" on="0"/>
      </contour>
    </TTGlyph>
    <TTGlyph name="R" xMin="48" yMin="0" xMax="605" yMax="663">
      <contour>
        <pt x="366" y="218" on="1"/>
        <pt x="362" y="227" on="0"/>
        <pt x="354" y="231" on="0"/>
        <pt x="344" y="231" on="1"/>
        <pt x="190" y="231" on="1"/>
        <pt x="163" y="0" on="1"/>
        <pt x="48" y="0" on="1"/>
        <pt x="126" y="663" on="1"/>
        <pt x="363" y="663" on="1"/>
        <pt x="428" y="663" on="0"/>
        <pt x="524" y="635" on="0"/>
        <pt x="557" y="603" on="1"/>
        <pt x="605" y="555" on="0"/>
        <pt x="605" y="473" on="1"/>
        <pt x="605" y="403" on="0"/>
        <pt x="538" y="291" on="0"/>
        <pt x="476" y="250" on="1"/>
        <pt x="590" y="0" on="1"/>
        <pt x="476" y="0" on="1"/>
        <pt x="467" y="0" on="0"/>
        <pt x="459" y="6" on="0"/>
        <pt x="456" y="13" on="1"/>
      </contour>
      <contour>
        <pt x="398" y="332" on="1"/>
        <pt x="417" y="332" on="0"/>
        <pt x="439" y="340" on="0"/>
        <pt x="450" y="355" on="1"/>
        <pt x="466" y="378" on="0"/>
        <pt x="488" y="441" on="0"/>
        <pt x="488" y="468" on="1"/>
        <pt x="488" y="513" on="0"/>
        <pt x="465" y="534" on="1"/>
        <pt x="450" y="548" on="0"/>
        <pt x="399" y="560" on="0"/>
        <pt x="361" y="560" on="1"/>
        <pt x="229" y="560" on="1"/>
        <pt x="202" y="332" on="1"/>
      </contour>
    </TTGlyph>
    <TTGlyph name="Racute" xMin="48" yMin="0" xMax="605" yMax="918">
      <component glyphName="R" x="0" y="0" flags="0x204"/>
      <component glyphName="acute.cap" x="124" y="0" flags="0x4"/>
    </TTGlyph>
    <TTGlyph name="Rcaron" xMin="48" yMin="0" xMax="605" yMax="914">
      <component glyphName="R" x="0" y="0" flags="0x204"/>
      <component glyphName="caron.cap" x="104" y="0" flags="0x4"/>
    </TTGlyph>
    <TTGlyph name="Rcommaaccent" xMin="48" yMin="-282" xMax="605" yMax="663">
      <component glyphName="R" x="0" y="0" flags="0x204"/>
      <component glyphName="commaaccent" x="133" y="0" flags="0x4"/>
    </TTGlyph>
    <TTGlyph name="S" xMin="16" yMin="-10" xMax="521" yMax="673">
      <contour>
        <pt x="506" y="561" on="1"/>
        <pt x="437" y="565" on="1"/>
        <pt x="402" y="567" on="0"/>
        <pt x="339" y="570" on="0"/>
        <pt x="313" y="570" on="1"/>
        <pt x="246" y="570" on="0"/>
        <pt x="171" y="542" on="0"/>
        <pt x="171" y="506" on="1"/>
        <pt x="171" y="480" on="0"/>
        <pt x="222" y="444" on="0"/>
        <pt x="284" y="419" on="1"/>
        <pt x="324" y="403" on="1"/>
        <pt x="377" y="382" on="0"/>
        <pt x="448" y="343" on="0"/>
        <pt x="470" y="320" on="1"/>
        <pt x="515" y="272" on="0"/>
        <pt x="515" y="203" on="1"/>
        <pt x="515" y="156" on="0"/>
        <pt x="481" y="77" on="0"/>
        <pt x="417" y="21" on="0"/>
        <pt x="324" y="-10" on="0"/>
        <pt x="266" y="-10" on="1"/>
        <pt x="237" y="-10" on="0"/>
        <pt x="171" y="-1" on="0"/>
        <pt x="105" y="15" on="0"/>
        <pt x="42" y="37" on="0"/>
        <pt x="16" y="50" on="1"/>
        <pt x="43" y="124" on="1"/>
        <pt x="100" y="113" on="1"/>
        <pt x="154" y="102" on="0"/>
        <pt x="238" y="93" on="0"/>
        <pt x="264" y="93" on="1"/>
        <pt x="330" y="93" on="0"/>
        <pt x="406" y="146" on="0"/>
        <pt x="406" y="196" on="1"/>
        <pt x="406" y="235" on="0"/>
        <pt x="352" y="276" on="0"/>
        <pt x="293" y="299" on="1"/>
        <pt x="248" y="317" on="1"/>
        <pt x="205" y="334" on="0"/>
        <pt x="137" y="370" on="0"/>
        <pt x="89" y="414" on="0"/>
        <pt x="64" y="468" on="0"/>
        <pt x="64" y="504" on="1"/>
        <pt x="64" y="546" on="0"/>
        <pt x="103" y="609" on="0"/>
        <pt x="170" y="652" on="0"/>
        <pt x="261" y="673" on="0"/>
        <pt x="314" y="673" on="1"/>
        <pt x="364" y="673" on="0"/>
        <pt x="472" y="655" on="0"/>
        <pt x="521" y="639" on="1"/>
      </contour>
    </TTGlyph>
    <TTGlyph name="Sacute" xMin="17" yMin="-10" xMax="522" yMax="918">
      <component glyphName="S" x="1" y="0" flags="0x4"/>
      <component glyphName="acute.cap" x="93" y="0" flags="0x4"/>
    </TTGlyph>
    <TTGlyph name="Scaron" xMin="17" yMin="-10" xMax="526" yMax="914">
      <component glyphName="S" x="1" y="0" flags="0x4"/>
      <component glyphName="caron.cap" x="80" y="0" flags="0x4"/>
    </TTGlyph>
    <TTGlyph name="Scedilla" xMin="16" yMin="-240" xMax="521" yMax="673">
      <contour>
        <pt x="506" y="561" on="1"/>
        <pt x="437" y="565" on="1"/>
        <pt x="402" y="567" on="0"/>
        <pt x="339" y="570" on="0"/>
        <pt x="313" y="570" on="1"/>
        <pt x="246" y="570" on="0"/>
        <pt x="171" y="542" on="0"/>
        <pt x="171" y="506" on="1"/>
        <pt x="171" y="480" on="0"/>
        <pt x="222" y="444" on="0"/>
        <pt x="284" y="419" on="1"/>
        <pt x="324" y="403" on="1"/>
        <pt x="377" y="382" on="0"/>
        <pt x="448" y="343" on="0"/>
        <pt x="470" y="320" on="1"/>
        <pt x="515" y="272" on="0"/>
        <pt x="515" y="203" on="1"/>
        <pt x="515" y="158" on="0"/>
        <pt x="484" y="82" on="0"/>
        <pt x="425" y="26" on="0"/>
        <pt x="340" y="-6" on="0"/>
        <pt x="286" y="-9" on="1"/>
        <pt x="280" y="-17" on="0"/>
        <pt x="271" y="-35" on="0"/>
        <pt x="271" y="-43" on="1"/>
        <pt x="271" y="-52" on="0"/>
        <pt x="301" y="-62" on="0"/>
        <pt x="336" y="-78" on="0"/>
        <pt x="366" y="-103" on="0"/>
        <pt x="366" y="-127" on="1"/>
        <pt x="366" y="-159" on="0"/>
        <pt x="329" y="-202" on="0"/>
        <pt x="272" y="-228" on="0"/>
        <pt x="206" y="-239" on="0"/>
        <pt x="178" y="-240" on="1"/>
        <pt x="174" y="-178" on="1"/>
        <pt x="232" y="-167" on="1"/>
        <pt x="255" y="-162" on="0"/>
        <pt x="270" y="-150" on="0"/>
        <pt x="270" y="-142" on="1"/>
        <pt x="270" y="-134" on="0"/>
        <pt x="243" y="-123" on="0"/>
        <pt x="210" y="-110" on="0"/>
        <pt x="183" y="-90" on="0"/>
        <pt x="183" y="-73" on="1"/>
        <pt x="183" y="-56" on="0"/>
        <pt x="205" y="-21" on="0"/>
        <pt x="220" y="-7" on="1"/>
        <pt x="168" y="-2" on="0"/>
        <pt x="58" y="29" on="0"/>
        <pt x="16" y="50" on="1"/>
        <pt x="43" y="124" on="1"/>
        <pt x="100" y="113" on="1"/>
        <pt x="154" y="102" on="0"/>
        <pt x="238" y="93" on="0"/>
        <pt x="264" y="93" on="1"/>
        <pt x="330" y="93" on="0"/>
        <pt x="406" y="146" on="0"/>
        <pt x="406" y="196" on="1"/>
        <pt x="406" y="235" on="0"/>
        <pt x="352" y="276" on="0"/>
        <pt x="293" y="299" on="1"/>
        <pt x="248" y="317" on="1"/>
        <pt x="205" y="334" on="0"/>
        <pt x="137" y="370" on="0"/>
        <pt x="89" y="414" on="0"/>
        <pt x="64" y="468" on="0"/>
        <pt x="64" y="504" on="1"/>
        <pt x="64" y="546" on="0"/>
        <pt x="103" y="609" on="0"/>
        <pt x="170" y="652" on="0"/>
        <pt x="261" y="673" on="0"/>
        <pt x="314" y="673" on="1"/>
        <pt x="364" y="673" on="0"/>
        <pt x="472" y="655" on="0"/>
        <pt x="521" y="639" on="1"/>
      </contour>
    </TTGlyph>
    <TTGlyph name="Scircumflex" xMin="17" yMin="-10" xMax="522" yMax="904">
      <component glyphName="S" x="1" y="0" flags="0x4"/>
      <component glyphName="circumflex.cap" x="96" y="0" flags="0x4"/>
    </TTGlyph>
    <TTGlyph name="Scommaaccent" xMin="17" yMin="-282" xMax="522" yMax="673">
      <component glyphName="S" x="1" y="0" flags="0x4"/>
      <component glyphName="commaaccent" x="75" y="0" flags="0x4"/>
    </TTGlyph>
    <TTGlyph name="T" xMin="59" yMin="0" xMax="611" yMax="663">
      <contour>
        <pt x="320" y="0" on="1"/>
        <pt x="206" y="0" on="1"/>
        <pt x="272" y="561" on="1"/>
        <pt x="59" y="561" on="1"/>
        <pt x="72" y="663" on="1"/>
        <pt x="611" y="663" on="1"/>
        <pt x="599" y="561" on="1"/>
        <pt x="387" y="561" on="1"/>
      </contour>
    </TTGlyph>
    <TTGlyph name="Tbar" xMin="80" yMin="0" xMax="632" yMax="663">
      <contour>
        <pt x="342" y="0" on="1"/>
        <pt x="227" y="0" on="1"/>
        <pt x="261" y="288" on="1"/>
        <pt x="127" y="288" on="1"/>
        <pt x="137" y="377" on="1"/>
        <pt x="271" y="377" on="1"/>
        <pt x="293" y="561" on="1"/>
        <pt x="80" y="561" on="1"/>
        <pt x="93" y="663" on="1"/>
        <pt x="632" y="663" on="1"/>
        <pt x="620" y="561" on="1"/>
        <pt x="408" y="561" on="1"/>
        <pt x="386" y="377" on="1"/>
        <pt x="520" y="377" on="1"/>
        <pt x="510" y="288" on="1"/>
        <pt x="376" y="288" on="1"/>
      </contour>
    </TTGlyph>
    <TTGlyph name="Tcaron" xMin="59" yMin="0" xMax="611" yMax="914">
      <component glyphName="T" x="0" y="0" flags="0x204"/>
      <component glyphName="caron.cap" x="87" y="0" flags="0x4"/>
    </TTGlyph>
    <TTGlyph name="Tcommaaccent" xMin="59" yMin="-282" xMax="611" yMax="663">
      <component glyphName="T" x="0" y="0" flags="0x204"/>
      <component glyphName="commaaccent" x="79" y="0" flags="0x4"/>
    </TTGlyph>
    <TTGlyph name="Thorn" xMin="48" yMin="0" xMax="577" yMax="663">
      <contour>
        <pt x="241" y="663" on="1"/>
        <pt x="228" y="557" on="1"/>
        <pt x="331" y="557" on="1"/>
        <pt x="391" y="557" on="0"/>
        <pt x="492" y="531" on="0"/>
        <pt x="526" y="499" on="1"/>
        <pt x="550" y="476" on="0"/>
        <pt x="577" y="409" on="0"/>
        <pt x="577" y="363" on="1"/>
        <pt x="577" y="308" on="0"/>
        <pt x="533" y="202" on="0"/>
        <pt x="491" y="164" on="1"/>
        <pt x="462" y="138" on="0"/>
        <pt x="385" y="112" on="0"/>
        <pt x="325" y="112" on="1"/>
        <pt x="176" y="112" on="1"/>
        <pt x="163" y="0" on="1"/>
        <pt x="48" y="0" on="1"/>
        <pt x="126" y="663" on="1"/>
      </contour>
      <contour>
        <pt x="367" y="214" on="1"/>
        <pt x="388" y="214" on="0"/>
        <pt x="409" y="221" on="0"/>
        <pt x="421" y="237" on="1"/>
        <pt x="438" y="260" on="0"/>
        <pt x="460" y="327" on="0"/>
        <pt x="460" y="358" on="1"/>
        <pt x="460" y="405" on="0"/>
        <pt x="438" y="427" on="1"/>
        <pt x="411" y="454" on="0"/>
        <pt x="335" y="454" on="1"/>
        <pt x="216" y="454" on="1"/>
        <pt x="188" y="214" on="1"/>
      </contour>
    </TTGlyph>
    <TTGlyph name="U" xMin="69" yMin="-10" xMax="666" yMax="663">
      <contour>
        <pt x="193" y="334" on="1"/>
        <pt x="188" y="298" on="0"/>
        <pt x="184" y="250" on="0"/>
        <pt x="184" y="234" on="1"/>
        <pt x="184" y="199" on="0"/>
        <pt x="205" y="150" on="0"/>
        <pt x="244" y="119" on="0"/>
        <pt x="299" y="105" on="0"/>
        <pt x="332" y="105" on="1"/>
        <pt x="370" y="105" on="0"/>
        <pt x="434" y="127" on="0"/>
        <pt x="454" y="147" on="1"/>
        <pt x="480" y="172" on="0"/>
        <pt x="506" y="247" on="0"/>
        <pt x="511" y="295" on="1"/>
        <pt x="554" y="663" on="1"/>
        <pt x="666" y="663" on="1"/>
        <pt x="620" y="273" on="1"/>
        <pt x="612" y="201" on="0"/>
        <pt x="565" y="103" on="0"/>
        <pt x="528" y="68" on="1"/>
        <pt x="488" y="30" on="0"/>
        <pt x="381" y="-10" on="0"/>
        <pt x="318" y="-10" on="1"/>
        <pt x="259" y="-10" on="0"/>
        <pt x="167" y="24" on="0"/>
        <pt x="103" y="86" on="0"/>
        <pt x="69" y="169" on="0"/>
        <pt x="69" y="219" on="1"/>
        <pt x="69" y="240" on="0"/>
        <pt x="74" y="298" on="0"/>
        <pt x="78" y="332" on="1"/>
        <pt x="117" y="663" on="1"/>
        <pt x="231" y="663" on="1"/>
      </contour>
    </TTGlyph>
    <TTGlyph name="Uacute" xMin="69" yMin="-10" xMax="666" yMax="918">
      <component glyphName="U" x="0" y="0" flags="0x204"/>
      <component glyphName="acute.cap" x="175" y="0" flags="0x4"/>
    </TTGlyph>
    <TTGlyph name="Ubreve" xMin="69" yMin="-10" xMax="666" yMax="889">
      <component glyphName="U" x="0" y="0" flags="0x204"/>
      <component glyphName="breve.cap" x="146" y="0" flags="0x4"/>
    </TTGlyph>
    <TTGlyph name="Ucircumflex" xMin="69" yMin="-10" xMax="666" yMax="904">
      <component glyphName="U" x="0" y="0" flags="0x204"/>
      <component glyphName="circumflex.cap" x="155" y="0" flags="0x4"/>
    </TTGlyph>
    <TTGlyph name="Udieresis" xMin="69" yMin="-10" xMax="666" yMax="863">
      <component glyphName="U" x="0" y="0" flags="0x204"/>
      <component glyphName="dieresis.cap" x="152" y="0" flags="0x4"/>
    </TTGlyph>
    <TTGlyph name="Ugrave" xMin="69" yMin="-10" xMax="666" yMax="919">
      <component glyphName="U" x="0" y="0" flags="0x204"/>
      <component glyphName="grave.cap" x="135" y="0" flags="0x4"/>
    </TTGlyph>
    <TTGlyph name="Uhungarumlaut" xMin="69" yMin="-10" xMax="666" yMax="957">
      <component glyphName="U" x="0" y="0" flags="0x204"/>
      <component glyphName="hungarumlaut.cap" x="173" y="0" flags="0x4"/>
    </TTGlyph>
    <TTGlyph name="Umacron" xMin="69" yMin="-10" xMax="666" yMax="854">
      <component glyphName="U" x="0" y="0" flags="0x204"/>
      <component glyphName="macron.cap" x="142" y="0" flags="0x4"/>
    </TTGlyph>
    <TTGlyph name="Uogonek" xMin="69" yMin="-218" xMax="666" yMax="663">
      <contour>
        <pt x="666" y="663" on="1"/>
        <pt x="620" y="273" on="1"/>
        <pt x="612" y="201" on="0"/>
        <pt x="567" y="103" on="0"/>
        <pt x="530" y="68" on="1"/>
        <pt x="510" y="50" on="0"/>
        <pt x="461" y="22" on="0"/>
        <pt x="430" y="8" on="1"/>
        <pt x="375" y="-16" on="0"/>
        <pt x="316" y="-69" on="0"/>
        <pt x="316" y="-101" on="1"/>
        <pt x="316" y="-119" on="0"/>
        <pt x="339" y="-140" on="0"/>
        <pt x="362" y="-140" on="1"/>
        <pt x="381" y="-140" on="0"/>
        <pt x="399" y="-137" on="1"/>
        <pt x="429" y="-132" on="1"/>
        <pt x="440" y="-192" on="1"/>
        <pt x="416" y="-204" on="0"/>
        <pt x="362" y="-218" on="0"/>
        <pt x="339" y="-218" on="1"/>
        <pt x="287" y="-218" on="0"/>
        <pt x="223" y="-163" on="0"/>
        <pt x="223" y="-123" on="1"/>
        <pt x="223" y="-92" on="0"/>
        <pt x="259" y="-36" on="0"/>
        <pt x="292" y="-9" on="1"/>
        <pt x="239" y="-5" on="0"/>
        <pt x="156" y="32" on="0"/>
        <pt x="99" y="92" on="0"/>
        <pt x="69" y="172" on="0"/>
        <pt x="69" y="219" on="1"/>
        <pt x="69" y="240" on="0"/>
        <pt x="74" y="298" on="0"/>
        <pt x="78" y="332" on="1"/>
        <pt x="117" y="663" on="1"/>
        <pt x="231" y="663" on="1"/>
        <pt x="193" y="334" on="1"/>
        <pt x="188" y="298" on="0"/>
        <pt x="184" y="250" on="0"/>
        <pt x="184" y="234" on="1"/>
        <pt x="184" y="199" on="0"/>
        <pt x="205" y="150" on="0"/>
        <pt x="244" y="119" on="0"/>
        <pt x="299" y="105" on="0"/>
        <pt x="332" y="105" on="1"/>
        <pt x="370" y="105" on="0"/>
        <pt x="434" y="127" on="0"/>
        <pt x="454" y="147" on="1"/>
        <pt x="480" y="172" on="0"/>
        <pt x="506" y="247" on="0"/>
        <pt x="511" y="295" on="1"/>
        <pt x="554" y="663" on="1"/>
      </contour>
    </TTGlyph>
    <TTGlyph name="Uring" xMin="69" yMin="-10" xMax="666" yMax="962">
      <component glyphName="U" x="0" y="0" flags="0x204"/>
      <component glyphName="ring.cap" x="139" y="0" flags="0x4"/>
    </TTGlyph>
    <TTGlyph name="Utilde" xMin="69" yMin="-10" xMax="666" yMax="871">
      <component glyphName="U" x="0" y="0" flags="0x204"/>
      <component glyphName="tilde.cap" x="145" y="0" flags="0x4"/>
    </TTGlyph>
    <TTGlyph name="V" xMin="59" yMin="0" xMax="674" yMax="663">
      <contour>
        <pt x="674" y="663" on="1"/>
        <pt x="360" y="0" on="1"/>
        <pt x="240" y="0" on="1"/>
        <pt x="231" y="0" on="0"/>
        <pt x="224" y="7" on="0"/>
        <pt x="222" y="14" on="1"/>
        <pt x="59" y="663" on="1"/>
        <pt x="165" y="663" on="1"/>
        <pt x="173" y="663" on="0"/>
        <pt x="179" y="658" on="0"/>
        <pt x="181" y="653" on="1"/>
        <pt x="256" y="345" on="1"/>
        <pt x="264" y="312" on="0"/>
        <pt x="280" y="241" on="0"/>
        <pt x="292" y="176" on="0"/>
        <pt x="301" y="121" on="0"/>
        <pt x="303" y="102" on="1"/>
        <pt x="304" y="102" on="1"/>
        <pt x="310" y="118" on="0"/>
        <pt x="332" y="175" on="0"/>
        <pt x="360" y="243" on="0"/>
        <pt x="390" y="313" on="0"/>
        <pt x="404" y="342" on="1"/>
        <pt x="549" y="652" on="1"/>
        <pt x="552" y="658" on="0"/>
        <pt x="559" y="663" on="0"/>
        <pt x="567" y="663" on="1"/>
      </contour>
    </TTGlyph>
    <TTGlyph name="W" xMin="71" yMin="0" xMax="1010" yMax="663">
      <contour>
        <pt x="619" y="0" on="1"/>
        <pt x="602" y="0" on="0"/>
        <pt x="599" y="14" on="1"/>
        <pt x="556" y="244" on="1"/>
        <pt x="549" y="281" on="0"/>
        <pt x="536" y="354" on="0"/>
        <pt x="526" y="418" on="0"/>
        <pt x="519" y="472" on="0"/>
        <pt x="518" y="490" on="1"/>
        <pt x="517" y="490" on="1"/>
        <pt x="512" y="473" on="0"/>
        <pt x="492" y="414" on="0"/>
        <pt x="466" y="346" on="0"/>
        <pt x="439" y="275" on="0"/>
        <pt x="427" y="245" on="1"/>
        <pt x="328" y="0" on="1"/>
        <pt x="212" y="0" on="1"/>
        <pt x="196" y="0" on="0"/>
        <pt x="193" y="14" on="1"/>
        <pt x="71" y="663" on="1"/>
        <pt x="177" y="663" on="1"/>
        <pt x="184" y="663" on="0"/>
        <pt x="189" y="660" on="0"/>
        <pt x="191" y="653" on="1"/>
        <pt x="243" y="372" on="1"/>
        <pt x="248" y="345" on="0"/>
        <pt x="259" y="278" on="0"/>
        <pt x="268" y="210" on="0"/>
        <pt x="276" y="146" on="0"/>
        <pt x="279" y="121" on="1"/>
        <pt x="280" y="121" on="1"/>
        <pt x="286" y="142" on="0"/>
        <pt x="304" y="202" on="0"/>
        <pt x="327" y="270" on="0"/>
        <pt x="353" y="340" on="0"/>
        <pt x="365" y="371" on="1"/>
        <pt x="484" y="663" on="1"/>
        <pt x="582" y="663" on="1"/>
        <pt x="595" y="663" on="0"/>
        <pt x="596" y="653" on="1"/>
        <pt x="647" y="370" on="1"/>
        <pt x="659" y="304" on="0"/>
        <pt x="678" y="175" on="0"/>
        <pt x="683" y="121" on="1"/>
        <pt x="684" y="121" on="1"/>
        <pt x="691" y="146" on="0"/>
        <pt x="711" y="207" on="0"/>
        <pt x="734" y="271" on="0"/>
        <pt x="759" y="337" on="0"/>
        <pt x="772" y="369" on="1"/>
        <pt x="888" y="651" on="1"/>
        <pt x="893" y="663" on="0"/>
        <pt x="906" y="663" on="1"/>
        <pt x="1010" y="663" on="1"/>
        <pt x="734" y="0" on="1"/>
      </contour>
    </TTGlyph>
    <TTGlyph name="Wacute" xMin="71" yMin="0" xMax="1010" yMax="918">
      <component glyphName="W" x="0" y="0" flags="0x204"/>
      <component glyphName="acute.cap" x="301" y="0" flags="0x4"/>
    </TTGlyph>
    <TTGlyph name="Wcircumflex" xMin="71" yMin="0" xMax="1010" yMax="904">
      <component glyphName="W" x="0" y="0" flags="0x204"/>
      <component glyphName="circumflex.cap" x="301" y="0" flags="0x4"/>
    </TTGlyph>
    <TTGlyph name="Wdieresis" xMin="71" yMin="0" xMax="1010" yMax="863">
      <component glyphName="W" x="0" y="0" flags="0x204"/>
      <component glyphName="dieresis.cap" x="300" y="0" flags="0x4"/>
    </TTGlyph>
    <TTGlyph name="Wgrave" xMin="71" yMin="0" xMax="1010" yMax="919">
      <component glyphName="W" x="0" y="0" flags="0x204"/>
      <component glyphName="grave.cap" x="312" y="0" flags="0x4"/>
    </TTGlyph>
    <TTGlyph name="X" xMin="-19" yMin="0" xMax="639" yMax="663">
      <contour>
        <pt x="387" y="343" on="1"/>
        <pt x="597" y="0" on="1"/>
        <pt x="486" y="0" on="1"/>
        <pt x="476" y="0" on="0"/>
        <pt x="468" y="5" on="0"/>
        <pt x="464" y="11" on="1"/>
        <pt x="309" y="265" on="1"/>
        <pt x="116" y="10" on="1"/>
        <pt x="111" y="4" on="0"/>
        <pt x="103" y="0" on="0"/>
        <pt x="94" y="0" on="1"/>
        <pt x="-19" y="0" on="1"/>
        <pt x="252" y="350" on="1"/>
        <pt x="63" y="663" on="1"/>
        <pt x="176" y="663" on="1"/>
        <pt x="185" y="663" on="0"/>
        <pt x="192" y="660" on="0"/>
        <pt x="197" y="653" on="1"/>
        <pt x="332" y="428" on="1"/>
        <pt x="505" y="654" on="1"/>
        <pt x="510" y="659" on="0"/>
        <pt x="517" y="663" on="0"/>
        <pt x="526" y="663" on="1"/>
        <pt x="639" y="663" on="1"/>
      </contour>
    </TTGlyph>
    <TTGlyph name="Y" xMin="47" yMin="0" xMax="666" yMax="663">
      <contour>
        <pt x="364" y="218" on="1"/>
        <pt x="339" y="0" on="1"/>
        <pt x="223" y="0" on="1"/>
        <pt x="249" y="218" on="1"/>
        <pt x="47" y="663" on="1"/>
        <pt x="159" y="663" on="1"/>
        <pt x="167" y="663" on="0"/>
        <pt x="173" y="659" on="0"/>
        <pt x="176" y="652" on="1"/>
        <pt x="249" y="485" on="1"/>
        <pt x="272" y="432" on="0"/>
        <pt x="305" y="347" on="0"/>
        <pt x="316" y="311" on="1"/>
        <pt x="318" y="311" on="1"/>
        <pt x="338" y="349" on="0"/>
        <pt x="398" y="445" on="0"/>
        <pt x="425" y="486" on="1"/>
        <pt x="537" y="653" on="1"/>
        <pt x="542" y="659" on="0"/>
        <pt x="549" y="663" on="0"/>
        <pt x="557" y="663" on="1"/>
        <pt x="666" y="663" on="1"/>
      </contour>
    </TTGlyph>
    <TTGlyph name="Yacute" xMin="47" yMin="0" xMax="666" yMax="918">
      <component glyphName="Y" x="0" y="0" flags="0x204"/>
      <component glyphName="acute.cap" x="139" y="0" flags="0x4"/>
    </TTGlyph>
    <TTGlyph name="Ycircumflex" xMin="47" yMin="0" xMax="666" yMax="904">
      <component glyphName="Y" x="0" y="0" flags="0x204"/>
      <component glyphName="circumflex.cap" x="113" y="0" flags="0x4"/>
    </TTGlyph>
    <TTGlyph name="Ydieresis" xMin="47" yMin="0" xMax="666" yMax="863">
      <component glyphName="Y" x="0" y="0" flags="0x204"/>
      <component glyphName="dieresis.cap" x="120" y="0" flags="0x4"/>
    </TTGlyph>
    <TTGlyph name="Ygrave" xMin="47" yMin="0" xMax="666" yMax="919">
      <component glyphName="Y" x="0" y="0" flags="0x204"/>
      <component glyphName="grave.cap" x="73" y="0" flags="0x4"/>
    </TTGlyph>
    <TTGlyph name="Z" xMin="22" yMin="0" xMax="575" yMax="663">
      <contour>
        <pt x="29" y="64" on="1"/>
        <pt x="31" y="78" on="0"/>
        <pt x="36" y="91" on="0"/>
        <pt x="45" y="102" on="1"/>
        <pt x="303" y="422" on="1"/>
        <pt x="335" y="462" on="0"/>
        <pt x="399" y="536" on="0"/>
        <pt x="422" y="561" on="1"/>
        <pt x="82" y="561" on="1"/>
        <pt x="94" y="663" on="1"/>
        <pt x="575" y="663" on="1"/>
        <pt x="568" y="598" on="1"/>
        <pt x="566" y="584" on="0"/>
        <pt x="561" y="572" on="0"/>
        <pt x="552" y="561" on="1"/>
        <pt x="293" y="241" on="1"/>
        <pt x="265" y="206" on="0"/>
        <pt x="201" y="129" on="0"/>
        <pt x="175" y="102" on="1"/>
        <pt x="513" y="102" on="1"/>
        <pt x="501" y="0" on="1"/>
        <pt x="22" y="0" on="1"/>
      </contour>
    </TTGlyph>
    <TTGlyph name="Zacute" xMin="22" yMin="0" xMax="575" yMax="918">
      <component glyphName="Z" x="0" y="0" flags="0x204"/>
      <component glyphName="acute.cap" x="102" y="0" flags="0x4"/>
    </TTGlyph>
    <TTGlyph name="Zcaron" xMin="22" yMin="0" xMax="575" yMax="914">
      <component glyphName="Z" x="0" y="0" flags="0x204"/>
      <component glyphName="caron.cap" x="83" y="0" flags="0x4"/>
    </TTGlyph>
    <TTGlyph name="Zdotaccent" xMin="22" yMin="0" xMax="575" yMax="847">
      <component glyphName="Z" x="0" y="0" flags="0x204"/>
      <component glyphName="dotaccent.cap" x="74" y="0" flags="0x4"/>
    </TTGlyph>
    <TTGlyph name="a" xMin="30" yMin="-8" xMax="523" yMax="496">
      <contour>
        <pt x="420" y="488" on="1"/>
        <pt x="496" y="481" on="1"/>
        <pt x="451" y="92" on="1"/>
        <pt x="523" y="77" on="1"/>
        <pt x="516" y="20" on="1"/>
        <pt x="498" y="12" on="0"/>
        <pt x="451" y="-2" on="0"/>
        <pt x="433" y="-2" on="1"/>
        <pt x="406" y="-2" on="0"/>
        <pt x="359" y="27" on="0"/>
        <pt x="350" y="47" on="1"/>
        <pt x="331" y="35" on="1"/>
        <pt x="305" y="18" on="0"/>
        <pt x="240" y="-8" on="0"/>
        <pt x="207" y="-8" on="1"/>
        <pt x="171" y="-8" on="0"/>
        <pt x="107" y="24" on="0"/>
        <pt x="58" y="82" on="0"/>
        <pt x="30" y="163" on="0"/>
        <pt x="30" y="212" on="1"/>
        <pt x="30" y="282" on="0"/>
        <pt x="82" y="397" on="0"/>
        <pt x="123" y="435" on="1"/>
        <pt x="154" y="464" on="0"/>
        <pt x="230" y="496" on="0"/>
        <pt x="265" y="496" on="1"/>
        <pt x="294" y="496" on="0"/>
        <pt x="345" y="479" on="0"/>
        <pt x="377" y="460" on="1"/>
        <pt x="398" y="447" on="1"/>
      </contour>
      <contour>
        <pt x="374" y="353" on="1"/>
        <pt x="376" y="364" on="0"/>
        <pt x="373" y="373" on="0"/>
        <pt x="365" y="377" on="1"/>
        <pt x="324" y="396" on="0"/>
        <pt x="280" y="396" on="1"/>
        <pt x="250" y="396" on="0"/>
        <pt x="199" y="372" on="0"/>
        <pt x="161" y="326" on="0"/>
        <pt x="139" y="257" on="0"/>
        <pt x="139" y="212" on="1"/>
        <pt x="139" y="152" on="0"/>
        <pt x="191" y="92" on="0"/>
        <pt x="233" y="92" on="1"/>
        <pt x="256" y="92" on="0"/>
        <pt x="307" y="106" on="0"/>
        <pt x="330" y="118" on="1"/>
        <pt x="341" y="124" on="0"/>
        <pt x="347" y="132" on="0"/>
        <pt x="348" y="140" on="1"/>
      </contour>
    </TTGlyph>
    <TTGlyph name="aacute" xMin="30" yMin="-8" xMax="523" yMax="738">
      <component glyphName="a" x="0" y="0" flags="0x204"/>
      <component glyphName="acute" x="132" y="0" flags="0x4"/>
    </TTGlyph>
    <TTGlyph name="abreve" xMin="30" yMin="-8" xMax="523" yMax="709">
      <component glyphName="a" x="0" y="0" flags="0x204"/>
      <component glyphName="breve" x="80" y="0" flags="0x4"/>
    </TTGlyph>
    <TTGlyph name="acaron" xMin="30" yMin="-8" xMax="523" yMax="734">
      <component glyphName="a" x="0" y="0" flags="0x204"/>
      <component glyphName="caron" x="133" y="0" flags="0x4"/>
    </TTGlyph>
    <TTGlyph name="acircumflex" xMin="30" yMin="-8" xMax="523" yMax="724">
      <component glyphName="a" x="0" y="0" flags="0x204"/>
      <component glyphName="circumflex" x="100" y="0" flags="0x4"/>
    </TTGlyph>
    <TTGlyph name="acute" xMin="98" yMin="540" xMax="355" yMax="738">
      <contour>
        <pt x="129" y="540" on="1"/>
        <pt x="98" y="593" on="1"/>
        <pt x="292" y="731" on="1"/>
        <pt x="302" y="738" on="0"/>
        <pt x="312" y="736" on="0"/>
        <pt x="317" y="727" on="1"/>
        <pt x="355" y="658" on="1"/>
      </contour>
    </TTGlyph>
    <TTGlyph name="acute.cap" xMin="129" yMin="720" xMax="386" yMax="918">
      <contour>
        <pt x="160" y="720" on="1"/>
        <pt x="129" y="773" on="1"/>
        <pt x="323" y="911" on="1"/>
        <pt x="333" y="918" on="0"/>
        <pt x="343" y="916" on="0"/>
        <pt x="348" y="907" on="1"/>
        <pt x="386" y="838" on="1"/>
      </contour>
    </TTGlyph>
    <TTGlyph name="adieresis" xMin="30" yMin="-8" xMax="523" yMax="683">
      <component glyphName="a" x="0" y="0" flags="0x204"/>
      <component glyphName="dieresis" x="95" y="0" flags="0x4"/>
    </TTGlyph>
    <TTGlyph name="ae" xMin="28" yMin="-8" xMax="799" yMax="496">
      <contour>
        <pt x="287" y="496" on="1"/>
        <pt x="332" y="496" on="0"/>
        <pt x="409" y="465" on="0"/>
        <pt x="433" y="432" on="1"/>
        <pt x="467" y="463" on="0"/>
        <pt x="549" y="496" on="0"/>
        <pt x="594" y="496" on="1"/>
        <pt x="638" y="496" on="0"/>
        <pt x="713" y="465" on="0"/>
        <pt x="768" y="407" on="0"/>
        <pt x="799" y="326" on="0"/>
        <pt x="799" y="277" on="1"/>
        <pt x="799" y="266" on="0"/>
        <pt x="795" y="237" on="0"/>
        <pt x="791" y="226" on="1"/>
        <pt x="787" y="215" on="0"/>
        <pt x="775" y="209" on="0"/>
        <pt x="765" y="209" on="1"/>
        <pt x="451" y="209" on="1"/>
        <pt x="453" y="153" on="0"/>
        <pt x="517" y="91" on="0"/>
        <pt x="577" y="91" on="1"/>
        <pt x="597" y="91" on="0"/>
        <pt x="642" y="99" on="0"/>
        <pt x="674" y="108" on="1"/>
        <pt x="740" y="126" on="1"/>
        <pt x="770" y="65" on="1"/>
        <pt x="730" y="34" on="0"/>
        <pt x="619" y="-8" on="0"/>
        <pt x="565" y="-8" on="1"/>
        <pt x="511" y="-8" on="0"/>
        <pt x="428" y="27" on="0"/>
        <pt x="399" y="59" on="1"/>
        <pt x="352" y="35" on="1"/>
        <pt x="320" y="18" on="0"/>
        <pt x="241" y="-8" on="0"/>
        <pt x="201" y="-8" on="1"/>
        <pt x="159" y="-8" on="0"/>
        <pt x="95" y="18" on="0"/>
        <pt x="51" y="61" on="0"/>
        <pt x="28" y="117" on="0"/>
        <pt x="28" y="147" on="1"/>
        <pt x="28" y="209" on="0"/>
        <pt x="67" y="247" on="1"/>
        <pt x="90" y="269" on="0"/>
        <pt x="162" y="293" on="0"/>
        <pt x="213" y="293" on="1"/>
        <pt x="225" y="293" on="0"/>
        <pt x="259" y="291" on="0"/>
        <pt x="297" y="287" on="0"/>
        <pt x="335" y="283" on="0"/>
        <pt x="351" y="281" on="1"/>
        <pt x="353" y="289" on="0"/>
        <pt x="355" y="322" on="0"/>
        <pt x="355" y="329" on="1"/>
        <pt x="355" y="346" on="0"/>
        <pt x="350" y="364" on="0"/>
        <pt x="342" y="372" on="1"/>
        <pt x="331" y="383" on="0"/>
        <pt x="293" y="394" on="0"/>
        <pt x="267" y="394" on="1"/>
        <pt x="241" y="394" on="0"/>
        <pt x="182" y="382" on="0"/>
        <pt x="153" y="372" on="1"/>
        <pt x="102" y="354" on="1"/>
        <pt x="73" y="415" on="1"/>
        <pt x="129" y="454" on="0"/>
        <pt x="237" y="496" on="0"/>
      </contour>
      <contour>
        <pt x="360" y="124" on="1"/>
        <pt x="352" y="144" on="0"/>
        <pt x="345" y="186" on="0"/>
        <pt x="344" y="206" on="1"/>
        <pt x="190" y="206" on="1"/>
        <pt x="162" y="206" on="0"/>
        <pt x="150" y="192" on="1"/>
        <pt x="137" y="178" on="0"/>
        <pt x="137" y="151" on="1"/>
        <pt x="137" y="124" on="0"/>
        <pt x="176" y="89" on="0"/>
        <pt x="216" y="89" on="1"/>
        <pt x="239" y="89" on="0"/>
        <pt x="301" y="102" on="0"/>
        <pt x="330" y="113" on="1"/>
      </contour>
      <contour>
        <pt x="695" y="291" on="1"/>
        <pt x="693" y="335" on="0"/>
        <pt x="643" y="396" on="0"/>
        <pt x="593" y="396" on="1"/>
        <pt x="542" y="396" on="0"/>
        <pt x="475" y="340" on="0"/>
        <pt x="461" y="291" on="1"/>
      </contour>
    </TTGlyph>
    <TTGlyph name="aeacute" xMin="28" yMin="-8" xMax="799" yMax="738">
      <component glyphName="ae" x="0" y="0" flags="0x204"/>
      <component glyphName="acute" x="289" y="0" flags="0x4"/>
    </TTGlyph>
    <TTGlyph name="agrave" xMin="30" yMin="-8" xMax="523" yMax="739">
      <component glyphName="a" x="0" y="0" flags="0x204"/>
      <component glyphName="grave" x="97" y="0" flags="0x4"/>
    </TTGlyph>
    <TTGlyph name="amacron" xMin="30" yMin="-8" xMax="523" yMax="674">
      <component glyphName="a" x="0" y="0" flags="0x204"/>
      <component glyphName="macron" x="84" y="0" flags="0x4"/>
    </TTGlyph>
    <TTGlyph name="ampersand" xMin="45" yMin="-10" xMax="700" yMax="673">
      <contour>
        <pt x="599" y="89" on="1"/>
        <pt x="679" y="79" on="1"/>
        <pt x="674" y="24" on="1"/>
        <pt x="656" y="14" on="0"/>
        <pt x="606" y="-3" on="0"/>
        <pt x="586" y="-3" on="1"/>
        <pt x="560" y="-3" on="0"/>
        <pt x="518" y="20" on="0"/>
        <pt x="498" y="43" on="1"/>
        <pt x="480" y="63" on="1"/>
        <pt x="437" y="29" on="0"/>
        <pt x="338" y="-10" on="0"/>
        <pt x="284" y="-10" on="1"/>
        <pt x="227" y="-10" on="0"/>
        <pt x="145" y="20" on="0"/>
        <pt x="115" y="46" on="1"/>
        <pt x="81" y="75" on="0"/>
        <pt x="45" y="152" on="0"/>
        <pt x="45" y="197" on="1"/>
        <pt x="45" y="230" on="0"/>
        <pt x="68" y="286" on="0"/>
        <pt x="109" y="333" on="0"/>
        <pt x="165" y="373" on="0"/>
        <pt x="199" y="391" on="1"/>
        <pt x="187" y="413" on="0"/>
        <pt x="173" y="461" on="0"/>
        <pt x="173" y="489" on="1"/>
        <pt x="173" y="527" on="0"/>
        <pt x="203" y="594" on="0"/>
        <pt x="257" y="644" on="0"/>
        <pt x="330" y="673" on="0"/>
        <pt x="373" y="673" on="1"/>
        <pt x="408" y="673" on="0"/>
        <pt x="469" y="650" on="0"/>
        <pt x="513" y="610" on="0"/>
        <pt x="538" y="554" on="0"/>
        <pt x="538" y="521" on="1"/>
        <pt x="538" y="487" on="0"/>
        <pt x="516" y="434" on="0"/>
        <pt x="477" y="389" on="0"/>
        <pt x="424" y="350" on="0"/>
        <pt x="394" y="331" on="1"/>
        <pt x="386" y="326" on="1"/>
        <pt x="493" y="208" on="1"/>
        <pt x="508" y="226" on="0"/>
        <pt x="555" y="286" on="0"/>
        <pt x="573" y="315" on="1"/>
        <pt x="634" y="412" on="1"/>
        <pt x="700" y="382" on="1"/>
        <pt x="671" y="313" on="0"/>
        <pt x="595" y="191" on="0"/>
        <pt x="553" y="140" on="1"/>
      </contour>
      <contour>
        <pt x="156" y="208" on="1"/>
        <pt x="156" y="183" on="0"/>
        <pt x="176" y="141" on="0"/>
        <pt x="212" y="110" on="0"/>
        <pt x="262" y="92" on="0"/>
        <pt x="291" y="92" on="1"/>
        <pt x="323" y="92" on="0"/>
        <pt x="390" y="112" on="0"/>
        <pt x="417" y="133" on="1"/>
        <pt x="267" y="301" on="1"/>
        <pt x="259" y="309" on="0"/>
        <pt x="245" y="326" on="0"/>
        <pt x="238" y="334" on="1"/>
        <pt x="225" y="322" on="1"/>
        <pt x="192" y="291" on="0"/>
        <pt x="156" y="242" on="0"/>
      </contour>
      <contour>
        <pt x="379" y="410" on="1"/>
        <pt x="405" y="433" on="0"/>
        <pt x="440" y="482" on="0"/>
        <pt x="440" y="513" on="1"/>
        <pt x="440" y="544" on="0"/>
        <pt x="399" y="582" on="0"/>
        <pt x="365" y="582" on="1"/>
        <pt x="326" y="582" on="0"/>
        <pt x="274" y="533" on="0"/>
        <pt x="274" y="495" on="1"/>
        <pt x="274" y="466" on="0"/>
        <pt x="308" y="414" on="0"/>
        <pt x="341" y="377" on="1"/>
      </contour>
    </TTGlyph>
    <TTGlyph name="aogonek" xMin="30" yMin="-218" xMax="523" yMax="496">
      <contour>
        <pt x="374" y="353" on="1"/>
        <pt x="376" y="364" on="0"/>
        <pt x="373" y="373" on="0"/>
        <pt x="365" y="377" on="1"/>
        <pt x="324" y="396" on="0"/>
        <pt x="280" y="396" on="1"/>
        <pt x="250" y="396" on="0"/>
        <pt x="199" y="372" on="0"/>
        <pt x="161" y="326" on="0"/>
        <pt x="139" y="257" on="0"/>
        <pt x="139" y="212" on="1"/>
        <pt x="139" y="152" on="0"/>
        <pt x="191" y="92" on="0"/>
        <pt x="233" y="92" on="1"/>
        <pt x="256" y="92" on="0"/>
        <pt x="307" y="106" on="0"/>
        <pt x="330" y="118" on="1"/>
        <pt x="341" y="124" on="0"/>
        <pt x="347" y="132" on="0"/>
        <pt x="348" y="140" on="1"/>
      </contour>
      <contour>
        <pt x="331" y="35" on="1"/>
        <pt x="305" y="18" on="0"/>
        <pt x="240" y="-8" on="0"/>
        <pt x="207" y="-8" on="1"/>
        <pt x="171" y="-8" on="0"/>
        <pt x="107" y="24" on="0"/>
        <pt x="58" y="82" on="0"/>
        <pt x="30" y="163" on="0"/>
        <pt x="30" y="212" on="1"/>
        <pt x="30" y="282" on="0"/>
        <pt x="82" y="397" on="0"/>
        <pt x="123" y="435" on="1"/>
        <pt x="154" y="464" on="0"/>
        <pt x="230" y="496" on="0"/>
        <pt x="265" y="496" on="1"/>
        <pt x="294" y="496" on="0"/>
        <pt x="345" y="479" on="0"/>
        <pt x="377" y="460" on="1"/>
        <pt x="398" y="447" on="1"/>
        <pt x="420" y="488" on="1"/>
        <pt x="496" y="481" on="1"/>
        <pt x="451" y="92" on="1"/>
        <pt x="523" y="77" on="1"/>
        <pt x="516" y="20" on="1"/>
        <pt x="438" y="-10" on="0"/>
        <pt x="370" y="-71" on="0"/>
        <pt x="370" y="-101" on="1"/>
        <pt x="370" y="-119" on="0"/>
        <pt x="393" y="-140" on="0"/>
        <pt x="416" y="-140" on="1"/>
        <pt x="435" y="-140" on="0"/>
        <pt x="453" y="-137" on="1"/>
        <pt x="483" y="-132" on="1"/>
        <pt x="494" y="-192" on="1"/>
        <pt x="470" y="-204" on="0"/>
        <pt x="416" y="-218" on="0"/>
        <pt x="393" y="-218" on="1"/>
        <pt x="341" y="-218" on="0"/>
        <pt x="277" y="-163" on="0"/>
        <pt x="277" y="-123" on="1"/>
        <pt x="277" y="-83" on="0"/>
        <pt x="329" y="-20" on="0"/>
        <pt x="384" y="11" on="1"/>
        <pt x="373" y="18" on="0"/>
        <pt x="355" y="36" on="0"/>
        <pt x="350" y="47" on="1"/>
      </contour>
    </TTGlyph>
    <TTGlyph name="apple" xMin="78" yMin="0" xMax="466" yMax="650">
      <contour>
        <pt x="208" y="357" on="1"/>
        <pt x="208" y="370" on="0"/>
        <pt x="227" y="388" on="0"/>
        <pt x="239" y="388" on="1"/>
        <pt x="252" y="388" on="0"/>
        <pt x="269" y="370" on="0"/>
        <pt x="269" y="357" on="1"/>
        <pt x="269" y="344" on="0"/>
        <pt x="252" y="327" on="0"/>
        <pt x="239" y="327" on="1"/>
        <pt x="227" y="327" on="0"/>
        <pt x="208" y="344" on="0"/>
      </contour>
      <contour>
        <pt x="405" y="357" on="1"/>
        <pt x="405" y="370" on="0"/>
        <pt x="424" y="388" on="0"/>
        <pt x="436" y="388" on="1"/>
        <pt x="449" y="388" on="0"/>
        <pt x="466" y="370" on="0"/>
        <pt x="466" y="357" on="1"/>
        <pt x="466" y="344" on="0"/>
        <pt x="449" y="327" on="0"/>
        <pt x="436" y="327" on="1"/>
        <pt x="424" y="327" on="0"/>
        <pt x="405" y="344" on="0"/>
      </contour>
      <contour>
        <pt x="78" y="161" on="1"/>
        <pt x="78" y="174" on="0"/>
        <pt x="95" y="191" on="0"/>
        <pt x="108" y="191" on="1"/>
        <pt x="120" y="191" on="0"/>
        <pt x="139" y="174" on="0"/>
        <pt x="139" y="161" on="1"/>
        <pt x="139" y="148" on="0"/>
        <pt x="120" y="130" on="0"/>
        <pt x="108" y="130" on="1"/>
        <pt x="95" y="130" on="0"/>
        <pt x="78" y="148" on="0"/>
      </contour>
      <contour>
        <pt x="78" y="357" on="1"/>
        <pt x="78" y="370" on="0"/>
        <pt x="95" y="388" on="0"/>
        <pt x="108" y="388" on="1"/>
        <pt x="120" y="388" on="0"/>
        <pt x="139" y="370" on="0"/>
        <pt x="139" y="357" on="1"/>
        <pt x="139" y="344" on="0"/>
        <pt x="120" y="327" on="0"/>
        <pt x="108" y="327" on="1"/>
        <pt x="95" y="327" on="0"/>
        <pt x="78" y="344" on="0"/>
      </contour>
      <contour>
        <pt x="275" y="357" on="1"/>
        <pt x="275" y="370" on="0"/>
        <pt x="292" y="388" on="0"/>
        <pt x="305" y="388" on="1"/>
        <pt x="317" y="388" on="0"/>
        <pt x="336" y="370" on="0"/>
        <pt x="336" y="357" on="1"/>
        <pt x="336" y="344" on="0"/>
        <pt x="317" y="327" on="0"/>
        <pt x="305" y="327" on="1"/>
        <pt x="292" y="327" on="0"/>
        <pt x="275" y="344" on="0"/>
      </contour>
      <contour>
        <pt x="340" y="620" on="1"/>
        <pt x="340" y="632" on="0"/>
        <pt x="357" y="650" on="0"/>
        <pt x="371" y="650" on="1"/>
        <pt x="382" y="650" on="0"/>
        <pt x="401" y="632" on="0"/>
        <pt x="401" y="620" on="1"/>
        <pt x="401" y="606" on="0"/>
        <pt x="382" y="589" on="0"/>
        <pt x="371" y="589" on="1"/>
        <pt x="357" y="589" on="0"/>
        <pt x="340" y="606" on="0"/>
      </contour>
      <contour>
        <pt x="78" y="620" on="1"/>
        <pt x="78" y="632" on="0"/>
        <pt x="95" y="650" on="0"/>
        <pt x="108" y="650" on="1"/>
        <pt x="120" y="650" on="0"/>
        <pt x="139" y="632" on="0"/>
        <pt x="139" y="620" on="1"/>
        <pt x="139" y="606" on="0"/>
        <pt x="120" y="589" on="0"/>
        <pt x="108" y="589" on="1"/>
        <pt x="95" y="589" on="0"/>
        <pt x="78" y="606" on="0"/>
      </contour>
      <contour>
        <pt x="275" y="620" on="1"/>
        <pt x="275" y="632" on="0"/>
        <pt x="292" y="650" on="0"/>
        <pt x="305" y="650" on="1"/>
        <pt x="317" y="650" on="0"/>
        <pt x="336" y="632" on="0"/>
        <pt x="336" y="620" on="1"/>
        <pt x="336" y="606" on="0"/>
        <pt x="317" y="589" on="0"/>
        <pt x="305" y="589" on="1"/>
        <pt x="292" y="589" on="0"/>
        <pt x="275" y="606" on="0"/>
      </contour>
      <contour>
        <pt x="405" y="620" on="1"/>
        <pt x="405" y="632" on="0"/>
        <pt x="424" y="650" on="0"/>
        <pt x="436" y="650" on="1"/>
        <pt x="449" y="650" on="0"/>
        <pt x="466" y="632" on="0"/>
        <pt x="466" y="620" on="1"/>
        <pt x="466" y="606" on="0"/>
        <pt x="449" y="589" on="0"/>
        <pt x="436" y="589" on="1"/>
        <pt x="424" y="589" on="0"/>
        <pt x="405" y="606" on="0"/>
      </contour>
      <contour>
        <pt x="208" y="620" on="1"/>
        <pt x="208" y="632" on="0"/>
        <pt x="227" y="650" on="0"/>
        <pt x="239" y="650" on="1"/>
        <pt x="252" y="650" on="0"/>
        <pt x="269" y="632" on="0"/>
        <pt x="269" y="620" on="1"/>
        <pt x="269" y="606" on="0"/>
        <pt x="252" y="589" on="0"/>
        <pt x="239" y="589" on="1"/>
        <pt x="227" y="589" on="0"/>
        <pt x="208" y="606" on="0"/>
      </contour>
      <contour>
        <pt x="340" y="357" on="1"/>
        <pt x="340" y="370" on="0"/>
        <pt x="357" y="388" on="0"/>
        <pt x="371" y="388" on="1"/>
        <pt x="382" y="388" on="0"/>
        <pt x="401" y="370" on="0"/>
        <pt x="401" y="357" on="1"/>
        <pt x="401" y="344" on="0"/>
        <pt x="382" y="327" on="0"/>
        <pt x="371" y="327" on="1"/>
        <pt x="357" y="327" on="0"/>
        <pt x="340" y="344" on="0"/>
      </contour>
      <contour>
        <pt x="208" y="30" on="1"/>
        <pt x="208" y="42" on="0"/>
        <pt x="227" y="61" on="0"/>
        <pt x="239" y="61" on="1"/>
        <pt x="252" y="61" on="0"/>
        <pt x="269" y="42" on="0"/>
        <pt x="269" y="30" on="1"/>
        <pt x="269" y="17" on="0"/>
        <pt x="252" y="0" on="0"/>
        <pt x="239" y="0" on="1"/>
        <pt x="227" y="0" on="0"/>
        <pt x="208" y="17" on="0"/>
      </contour>
      <contour>
        <pt x="78" y="30" on="1"/>
        <pt x="78" y="42" on="0"/>
        <pt x="95" y="61" on="0"/>
        <pt x="108" y="61" on="1"/>
        <pt x="120" y="61" on="0"/>
        <pt x="139" y="42" on="0"/>
        <pt x="139" y="30" on="1"/>
        <pt x="139" y="17" on="0"/>
        <pt x="120" y="0" on="0"/>
        <pt x="108" y="0" on="1"/>
        <pt x="95" y="0" on="0"/>
        <pt x="78" y="17" on="0"/>
      </contour>
      <contour>
        <pt x="208" y="95" on="1"/>
        <pt x="208" y="109" on="0"/>
        <pt x="227" y="125" on="0"/>
        <pt x="239" y="125" on="1"/>
        <pt x="252" y="125" on="0"/>
        <pt x="269" y="109" on="0"/>
        <pt x="269" y="95" on="1"/>
        <pt x="269" y="82" on="0"/>
        <pt x="252" y="65" on="0"/>
        <pt x="239" y="65" on="1"/>
        <pt x="227" y="65" on="0"/>
        <pt x="208" y="82" on="0"/>
      </contour>
      <contour>
        <pt x="78" y="95" on="1"/>
        <pt x="78" y="109" on="0"/>
        <pt x="95" y="125" on="0"/>
        <pt x="108" y="125" on="1"/>
        <pt x="120" y="125" on="0"/>
        <pt x="139" y="109" on="0"/>
        <pt x="139" y="95" on="1"/>
        <pt x="139" y="82" on="0"/>
        <pt x="120" y="65" on="0"/>
        <pt x="108" y="65" on="1"/>
        <pt x="95" y="65" on="0"/>
        <pt x="78" y="82" on="0"/>
      </contour>
      <contour>
        <pt x="144" y="620" on="1"/>
        <pt x="144" y="632" on="0"/>
        <pt x="162" y="650" on="0"/>
        <pt x="174" y="650" on="1"/>
        <pt x="187" y="650" on="0"/>
        <pt x="204" y="632" on="0"/>
        <pt x="204" y="620" on="1"/>
        <pt x="204" y="606" on="0"/>
        <pt x="187" y="589" on="0"/>
        <pt x="174" y="589" on="1"/>
        <pt x="162" y="589" on="0"/>
        <pt x="144" y="606" on="0"/>
      </contour>
      <contour>
        <pt x="78" y="489" on="1"/>
        <pt x="78" y="501" on="0"/>
        <pt x="95" y="518" on="0"/>
        <pt x="108" y="518" on="1"/>
        <pt x="120" y="518" on="0"/>
        <pt x="139" y="501" on="0"/>
        <pt x="139" y="489" on="1"/>
        <pt x="139" y="476" on="0"/>
        <pt x="120" y="458" on="0"/>
        <pt x="108" y="458" on="1"/>
        <pt x="95" y="458" on="0"/>
        <pt x="78" y="476" on="0"/>
      </contour>
      <contour>
        <pt x="275" y="489" on="1"/>
        <pt x="275" y="501" on="0"/>
        <pt x="292" y="518" on="0"/>
        <pt x="305" y="518" on="1"/>
        <pt x="317" y="518" on="0"/>
        <pt x="336" y="501" on="0"/>
        <pt x="336" y="489" on="1"/>
        <pt x="336" y="476" on="0"/>
        <pt x="317" y="458" on="0"/>
        <pt x="305" y="458" on="1"/>
        <pt x="292" y="458" on="0"/>
        <pt x="275" y="476" on="0"/>
      </contour>
      <contour>
        <pt x="208" y="489" on="1"/>
        <pt x="208" y="501" on="0"/>
        <pt x="227" y="518" on="0"/>
        <pt x="239" y="518" on="1"/>
        <pt x="252" y="518" on="0"/>
        <pt x="269" y="501" on="0"/>
        <pt x="269" y="489" on="1"/>
        <pt x="269" y="476" on="0"/>
        <pt x="252" y="458" on="0"/>
        <pt x="239" y="458" on="1"/>
        <pt x="227" y="458" on="0"/>
        <pt x="208" y="476" on="0"/>
      </contour>
      <contour>
        <pt x="405" y="489" on="1"/>
        <pt x="405" y="501" on="0"/>
        <pt x="424" y="518" on="0"/>
        <pt x="436" y="518" on="1"/>
        <pt x="449" y="518" on="0"/>
        <pt x="466" y="501" on="0"/>
        <pt x="466" y="489" on="1"/>
        <pt x="466" y="476" on="0"/>
        <pt x="449" y="458" on="0"/>
        <pt x="436" y="458" on="1"/>
        <pt x="424" y="458" on="0"/>
        <pt x="405" y="476" on="0"/>
      </contour>
      <contour>
        <pt x="340" y="489" on="1"/>
        <pt x="340" y="501" on="0"/>
        <pt x="357" y="518" on="0"/>
        <pt x="371" y="518" on="1"/>
        <pt x="382" y="518" on="0"/>
        <pt x="401" y="501" on="0"/>
        <pt x="401" y="489" on="1"/>
        <pt x="401" y="476" on="0"/>
        <pt x="382" y="458" on="0"/>
        <pt x="371" y="458" on="1"/>
        <pt x="357" y="458" on="0"/>
        <pt x="340" y="476" on="0"/>
      </contour>
      <contour>
        <pt x="144" y="30" on="1"/>
        <pt x="144" y="42" on="0"/>
        <pt x="162" y="61" on="0"/>
        <pt x="174" y="61" on="1"/>
        <pt x="187" y="61" on="0"/>
        <pt x="204" y="42" on="0"/>
        <pt x="204" y="30" on="1"/>
        <pt x="204" y="17" on="0"/>
        <pt x="187" y="0" on="0"/>
        <pt x="174" y="0" on="1"/>
        <pt x="162" y="0" on="0"/>
        <pt x="144" y="17" on="0"/>
      </contour>
      <contour>
        <pt x="78" y="292" on="1"/>
        <pt x="78" y="304" on="0"/>
        <pt x="95" y="322" on="0"/>
        <pt x="108" y="322" on="1"/>
        <pt x="120" y="322" on="0"/>
        <pt x="139" y="304" on="0"/>
        <pt x="139" y="292" on="1"/>
        <pt x="139" y="279" on="0"/>
        <pt x="120" y="262" on="0"/>
        <pt x="108" y="262" on="1"/>
        <pt x="95" y="262" on="0"/>
        <pt x="78" y="279" on="0"/>
      </contour>
      <contour>
        <pt x="78" y="554" on="1"/>
        <pt x="78" y="566" on="0"/>
        <pt x="95" y="584" on="0"/>
        <pt x="108" y="584" on="1"/>
        <pt x="120" y="584" on="0"/>
        <pt x="139" y="566" on="0"/>
        <pt x="139" y="554" on="1"/>
        <pt x="139" y="541" on="0"/>
        <pt x="120" y="524" on="0"/>
        <pt x="108" y="524" on="1"/>
        <pt x="95" y="524" on="0"/>
        <pt x="78" y="541" on="0"/>
      </contour>
      <contour>
        <pt x="405" y="292" on="1"/>
        <pt x="405" y="304" on="0"/>
        <pt x="424" y="322" on="0"/>
        <pt x="436" y="322" on="1"/>
        <pt x="449" y="322" on="0"/>
        <pt x="466" y="304" on="0"/>
        <pt x="466" y="292" on="1"/>
        <pt x="466" y="279" on="0"/>
        <pt x="449" y="262" on="0"/>
        <pt x="436" y="262" on="1"/>
        <pt x="424" y="262" on="0"/>
        <pt x="405" y="279" on="0"/>
      </contour>
      <contour>
        <pt x="78" y="423" on="1"/>
        <pt x="78" y="436" on="0"/>
        <pt x="95" y="453" on="0"/>
        <pt x="108" y="453" on="1"/>
        <pt x="120" y="453" on="0"/>
        <pt x="139" y="436" on="0"/>
        <pt x="139" y="423" on="1"/>
        <pt x="139" y="410" on="0"/>
        <pt x="120" y="394" on="0"/>
        <pt x="108" y="394" on="1"/>
        <pt x="95" y="394" on="0"/>
        <pt x="78" y="410" on="0"/>
      </contour>
      <contour>
        <pt x="208" y="423" on="1"/>
        <pt x="208" y="436" on="0"/>
        <pt x="227" y="453" on="0"/>
        <pt x="239" y="453" on="1"/>
        <pt x="252" y="453" on="0"/>
        <pt x="269" y="436" on="0"/>
        <pt x="269" y="423" on="1"/>
        <pt x="269" y="410" on="0"/>
        <pt x="252" y="394" on="0"/>
        <pt x="239" y="394" on="1"/>
        <pt x="227" y="394" on="0"/>
        <pt x="208" y="410" on="0"/>
      </contour>
      <contour>
        <pt x="208" y="227" on="1"/>
        <pt x="208" y="239" on="0"/>
        <pt x="227" y="256" on="0"/>
        <pt x="239" y="256" on="1"/>
        <pt x="252" y="256" on="0"/>
        <pt x="269" y="239" on="0"/>
        <pt x="269" y="227" on="1"/>
        <pt x="269" y="214" on="0"/>
        <pt x="252" y="197" on="0"/>
        <pt x="239" y="197" on="1"/>
        <pt x="227" y="197" on="0"/>
        <pt x="208" y="214" on="0"/>
      </contour>
      <contour>
        <pt x="405" y="227" on="1"/>
        <pt x="405" y="239" on="0"/>
        <pt x="424" y="256" on="0"/>
        <pt x="436" y="256" on="1"/>
        <pt x="449" y="256" on="0"/>
        <pt x="466" y="239" on="0"/>
        <pt x="466" y="227" on="1"/>
        <pt x="466" y="214" on="0"/>
        <pt x="449" y="197" on="0"/>
        <pt x="436" y="197" on="1"/>
        <pt x="424" y="197" on="0"/>
        <pt x="405" y="214" on="0"/>
      </contour>
      <contour>
        <pt x="78" y="227" on="1"/>
        <pt x="78" y="239" on="0"/>
        <pt x="95" y="256" on="0"/>
        <pt x="108" y="256" on="1"/>
        <pt x="120" y="256" on="0"/>
        <pt x="139" y="239" on="0"/>
        <pt x="139" y="227" on="1"/>
        <pt x="139" y="214" on="0"/>
        <pt x="120" y="197" on="0"/>
        <pt x="108" y="197" on="1"/>
        <pt x="95" y="197" on="0"/>
        <pt x="78" y="214" on="0"/>
      </contour>
      <contour>
        <pt x="275" y="227" on="1"/>
        <pt x="275" y="239" on="0"/>
        <pt x="292" y="256" on="0"/>
        <pt x="305" y="256" on="1"/>
        <pt x="317" y="256" on="0"/>
        <pt x="336" y="239" on="0"/>
        <pt x="336" y="227" on="1"/>
        <pt x="336" y="214" on="0"/>
        <pt x="317" y="197" on="0"/>
        <pt x="305" y="197" on="1"/>
        <pt x="292" y="197" on="0"/>
        <pt x="275" y="214" on="0"/>
      </contour>
      <contour>
        <pt x="340" y="227" on="1"/>
        <pt x="340" y="239" on="0"/>
        <pt x="357" y="256" on="0"/>
        <pt x="371" y="256" on="1"/>
        <pt x="382" y="256" on="0"/>
        <pt x="401" y="239" on="0"/>
        <pt x="401" y="227" on="1"/>
        <pt x="401" y="214" on="0"/>
        <pt x="382" y="197" on="0"/>
        <pt x="371" y="197" on="1"/>
        <pt x="357" y="197" on="0"/>
        <pt x="340" y="214" on="0"/>
      </contour>
    </TTGlyph>
    <TTGlyph name="approxequal" xMin="42" yMin="67" xMax="491" yMax="425">
      <contour>
        <pt x="491" y="402" on="1"/>
        <pt x="483" y="376" on="0"/>
        <pt x="453" y="332" on="0"/>
        <pt x="414" y="299" on="0"/>
        <pt x="369" y="280" on="0"/>
        <pt x="345" y="280" on="1"/>
        <pt x="323" y="280" on="0"/>
        <pt x="284" y="294" on="0"/>
        <pt x="248" y="311" on="0"/>
        <pt x="215" y="325" on="0"/>
        <pt x="199" y="325" on="1"/>
        <pt x="178" y="325" on="0"/>
        <pt x="144" y="302" on="0"/>
        <pt x="127" y="277" on="1"/>
        <pt x="67" y="300" on="1"/>
        <pt x="75" y="325" on="0"/>
        <pt x="105" y="370" on="0"/>
        <pt x="144" y="403" on="0"/>
        <pt x="189" y="422" on="0"/>
        <pt x="213" y="422" on="1"/>
        <pt x="235" y="422" on="0"/>
        <pt x="274" y="408" on="0"/>
        <pt x="310" y="391" on="0"/>
        <pt x="343" y="377" on="0"/>
        <pt x="359" y="377" on="1"/>
        <pt x="380" y="377" on="0"/>
        <pt x="414" y="400" on="0"/>
        <pt x="431" y="425" on="1"/>
      </contour>
      <contour>
        <pt x="466" y="192" on="1"/>
        <pt x="458" y="166" on="0"/>
        <pt x="428" y="122" on="0"/>
        <pt x="389" y="89" on="0"/>
        <pt x="344" y="70" on="0"/>
        <pt x="320" y="70" on="1"/>
        <pt x="298" y="70" on="0"/>
        <pt x="259" y="84" on="0"/>
        <pt x="223" y="101" on="0"/>
        <pt x="190" y="115" on="0"/>
        <pt x="174" y="115" on="1"/>
        <pt x="153" y="115" on="0"/>
        <pt x="119" y="92" on="0"/>
        <pt x="102" y="67" on="1"/>
        <pt x="42" y="90" on="1"/>
        <pt x="50" y="115" on="0"/>
        <pt x="80" y="160" on="0"/>
        <pt x="119" y="193" on="0"/>
        <pt x="164" y="212" on="0"/>
        <pt x="188" y="212" on="1"/>
        <pt x="210" y="212" on="0"/>
        <pt x="249" y="198" on="0"/>
        <pt x="285" y="181" on="0"/>
        <pt x="318" y="167" on="0"/>
        <pt x="334" y="167" on="1"/>
        <pt x="355" y="167" on="0"/>
        <pt x="389" y="190" on="0"/>
        <pt x="406" y="215" on="1"/>
      </contour>
    </TTGlyph>
    <TTGlyph name="aring" xMin="30" yMin="-8" xMax="523" yMax="782">
      <component glyphName="a" x="0" y="0" flags="0x204"/>
      <component glyphName="ring" x="99" y="0" flags="0x4"/>
    </TTGlyph>
    <TTGlyph name="aringacute" xMin="30" yMin="-8" xMax="523" yMax="980">
      <component glyphName="a" x="0" y="0" flags="0x204"/>
      <component glyphName="ring" x="93" y="-18" flags="0x4"/>
      <component glyphName="acute" x="133" y="242" flags="0x4"/>
    </TTGlyph>
    <TTGlyph name="arrowdown" xMin="158" yMin="-89" xMax="628" yMax="577">
      <contour>
        <pt x="354" y="-81" on="1"/>
        <pt x="158" y="117" on="1"/>
        <pt x="206" y="165" on="1"/>
        <pt x="343" y="44" on="1"/>
        <pt x="343" y="577" on="1"/>
        <pt x="439" y="577" on="1"/>
        <pt x="439" y="43" on="1"/>
        <pt x="580" y="165" on="1"/>
        <pt x="628" y="117" on="1"/>
        <pt x="423" y="-89" on="1"/>
        <pt x="376" y="-89" on="1"/>
        <pt x="369" y="-89" on="0"/>
        <pt x="360" y="-86" on="0"/>
      </contour>
    </TTGlyph>
    <TTGlyph name="arrowdown.cap" xMin="158" yMin="-3" xMax="628" yMax="663">
      <contour>
        <pt x="354" y="5" on="1"/>
        <pt x="158" y="203" on="1"/>
        <pt x="206" y="251" on="1"/>
        <pt x="343" y="130" on="1"/>
        <pt x="343" y="663" on="1"/>
        <pt x="439" y="663" on="1"/>
        <pt x="439" y="129" on="1"/>
        <pt x="580" y="251" on="1"/>
        <pt x="628" y="203" on="1"/>
        <pt x="423" y="-3" on="1"/>
        <pt x="376" y="-3" on="1"/>
        <pt x="369" y="-3" on="0"/>
        <pt x="360" y="0" on="0"/>
      </contour>
    </TTGlyph>
    <TTGlyph name="arrowleft" xMin="60" yMin="7" xMax="725" yMax="478">
      <contour>
        <pt x="266" y="478" on="1"/>
        <pt x="314" y="429" on="1"/>
        <pt x="193" y="290" on="1"/>
        <pt x="725" y="290" on="1"/>
        <pt x="725" y="199" on="1"/>
        <pt x="191" y="199" on="1"/>
        <pt x="314" y="56" on="1"/>
        <pt x="266" y="7" on="1"/>
        <pt x="60" y="213" on="1"/>
        <pt x="60" y="259" on="1"/>
        <pt x="60" y="267" on="0"/>
        <pt x="63" y="276" on="0"/>
        <pt x="68" y="281" on="1"/>
      </contour>
    </TTGlyph>
    <TTGlyph name="arrowleft.cap" xMin="60" yMin="93" xMax="725" yMax="564">
      <contour>
        <pt x="266" y="564" on="1"/>
        <pt x="314" y="515" on="1"/>
        <pt x="193" y="376" on="1"/>
        <pt x="725" y="376" on="1"/>
        <pt x="725" y="285" on="1"/>
        <pt x="191" y="285" on="1"/>
        <pt x="314" y="142" on="1"/>
        <pt x="266" y="93" on="1"/>
        <pt x="60" y="299" on="1"/>
        <pt x="60" y="345" on="1"/>
        <pt x="60" y="353" on="0"/>
        <pt x="63" y="362" on="0"/>
        <pt x="68" y="367" on="1"/>
      </contour>
    </TTGlyph>
    <TTGlyph name="arrowright" xMin="60" yMin="11" xMax="725" yMax="482">
      <contour>
        <pt x="717" y="208" on="1"/>
        <pt x="519" y="11" on="1"/>
        <pt x="471" y="60" on="1"/>
        <pt x="592" y="199" on="1"/>
        <pt x="60" y="199" on="1"/>
        <pt x="60" y="290" on="1"/>
        <pt x="594" y="290" on="1"/>
        <pt x="471" y="433" on="1"/>
        <pt x="519" y="482" on="1"/>
        <pt x="725" y="276" on="1"/>
        <pt x="725" y="230" on="1"/>
        <pt x="725" y="222" on="0"/>
        <pt x="722" y="213" on="0"/>
      </contour>
    </TTGlyph>
    <TTGlyph name="arrowright.cap" xMin="60" yMin="97" xMax="725" yMax="568">
      <contour>
        <pt x="717" y="294" on="1"/>
        <pt x="519" y="97" on="1"/>
        <pt x="471" y="146" on="1"/>
        <pt x="592" y="285" on="1"/>
        <pt x="60" y="285" on="1"/>
        <pt x="60" y="376" on="1"/>
        <pt x="594" y="376" on="1"/>
        <pt x="471" y="519" on="1"/>
        <pt x="519" y="568" on="1"/>
        <pt x="725" y="362" on="1"/>
        <pt x="725" y="316" on="1"/>
        <pt x="725" y="308" on="0"/>
        <pt x="722" y="299" on="0"/>
      </contour>
    </TTGlyph>
    <TTGlyph name="arrowup" xMin="158" yMin="-89" xMax="628" yMax="577">
      <contour>
        <pt x="431" y="568" on="1"/>
        <pt x="628" y="371" on="1"/>
        <pt x="580" y="322" on="1"/>
        <pt x="443" y="443" on="1"/>
        <pt x="443" y="-89" on="1"/>
        <pt x="347" y="-89" on="1"/>
        <pt x="347" y="445" on="1"/>
        <pt x="206" y="322" on="1"/>
        <pt x="158" y="370" on="1"/>
        <pt x="363" y="577" on="1"/>
        <pt x="410" y="577" on="1"/>
        <pt x="418" y="577" on="0"/>
        <pt x="426" y="573" on="0"/>
      </contour>
    </TTGlyph>
    <TTGlyph name="arrowup.cap" xMin="158" yMin="-3" xMax="628" yMax="663">
      <contour>
        <pt x="431" y="654" on="1"/>
        <pt x="628" y="457" on="1"/>
        <pt x="580" y="408" on="1"/>
        <pt x="443" y="529" on="1"/>
        <pt x="443" y="-3" on="1"/>
        <pt x="347" y="-3" on="1"/>
        <pt x="347" y="531" on="1"/>
        <pt x="206" y="408" on="1"/>
        <pt x="158" y="456" on="1"/>
        <pt x="363" y="663" on="1"/>
        <pt x="410" y="663" on="1"/>
        <pt x="418" y="663" on="0"/>
        <pt x="426" y="659" on="0"/>
      </contour>
    </TTGlyph>
    <TTGlyph name="asciicircum" xMin="82" yMin="394" xMax="490" yMax="673">
      <contour>
        <pt x="352" y="673" on="1"/>
        <pt x="490" y="449" on="1"/>
        <pt x="405" y="394" on="1"/>
        <pt x="300" y="562" on="1"/>
        <pt x="298" y="562" on="1"/>
        <pt x="154" y="394" on="1"/>
        <pt x="82" y="449" on="1"/>
        <pt x="274" y="673" on="1"/>
      </contour>
    </TTGlyph>
    <TTGlyph name="asciitilde" xMin="64" yMin="276" xMax="488" yMax="424">
      <contour>
        <pt x="488" y="401" on="1"/>
        <pt x="480" y="375" on="0"/>
        <pt x="450" y="331" on="0"/>
        <pt x="411" y="298" on="0"/>
        <pt x="366" y="279" on="0"/>
        <pt x="342" y="279" on="1"/>
        <pt x="320" y="279" on="0"/>
        <pt x="281" y="293" on="0"/>
        <pt x="245" y="310" on="0"/>
        <pt x="212" y="324" on="0"/>
        <pt x="196" y="324" on="1"/>
        <pt x="175" y="324" on="0"/>
        <pt x="141" y="301" on="0"/>
        <pt x="124" y="276" on="1"/>
        <pt x="64" y="299" on="1"/>
        <pt x="72" y="324" on="0"/>
        <pt x="102" y="369" on="0"/>
        <pt x="141" y="402" on="0"/>
        <pt x="186" y="421" on="0"/>
        <pt x="210" y="421" on="1"/>
        <pt x="232" y="421" on="0"/>
        <pt x="271" y="407" on="0"/>
        <pt x="307" y="390" on="0"/>
        <pt x="340" y="376" on="0"/>
        <pt x="356" y="376" on="1"/>
        <pt x="377" y="376" on="0"/>
        <pt x="411" y="399" on="0"/>
        <pt x="428" y="424" on="1"/>
      </contour>
    </TTGlyph>
    <TTGlyph name="asterisk" xMin="63" yMin="298" xMax="420" yMax="663">
      <contour>
        <pt x="306" y="306" on="1"/>
        <pt x="293" y="298" on="0"/>
        <pt x="287" y="311" on="1"/>
        <pt x="233" y="429" on="1"/>
        <pt x="142" y="298" on="1"/>
        <pt x="83" y="342" on="1"/>
        <pt x="71" y="351" on="0"/>
        <pt x="86" y="366" on="1"/>
        <pt x="192" y="470" on="1"/>
        <pt x="63" y="504" on="1"/>
        <pt x="95" y="567" on="1"/>
        <pt x="100" y="578" on="0"/>
        <pt x="111" y="582" on="0"/>
        <pt x="121" y="576" on="1"/>
        <pt x="215" y="519" on="1"/>
        <pt x="215" y="663" on="1"/>
        <pt x="294" y="663" on="1"/>
        <pt x="307" y="663" on="0"/>
        <pt x="304" y="649" on="1"/>
        <pt x="273" y="519" on="1"/>
        <pt x="398" y="585" on="1"/>
        <pt x="417" y="519" on="1"/>
        <pt x="420" y="509" on="0"/>
        <pt x="412" y="501" on="0"/>
        <pt x="402" y="499" on="1"/>
        <pt x="284" y="470" on="1"/>
        <pt x="375" y="350" on="1"/>
      </contour>
    </TTGlyph>
    <TTGlyph name="at" xMin="41" yMin="-101" xMax="712" yMax="583">
      <contour>
        <pt x="446" y="119" on="1"/>
        <pt x="415" y="97" on="0"/>
        <pt x="371" y="78" on="0"/>
        <pt x="348" y="78" on="1"/>
        <pt x="322" y="78" on="0"/>
        <pt x="277" y="99" on="0"/>
        <pt x="243" y="136" on="0"/>
        <pt x="223" y="190" on="0"/>
        <pt x="223" y="223" on="1"/>
        <pt x="223" y="264" on="0"/>
        <pt x="249" y="332" on="0"/>
        <pt x="292" y="382" on="0"/>
        <pt x="347" y="409" on="0"/>
        <pt x="375" y="409" on="1"/>
        <pt x="396" y="409" on="0"/>
        <pt x="440" y="392" on="0"/>
        <pt x="466" y="372" on="1"/>
        <pt x="483" y="403" on="1"/>
        <pt x="533" y="398" on="1"/>
        <pt x="509" y="200" on="1"/>
        <pt x="508" y="193" on="0"/>
        <pt x="507" y="181" on="0"/>
        <pt x="507" y="177" on="1"/>
        <pt x="507" y="165" on="0"/>
        <pt x="523" y="146" on="0"/>
        <pt x="543" y="146" on="1"/>
        <pt x="583" y="146" on="0"/>
        <pt x="632" y="224" on="0"/>
        <pt x="632" y="289" on="1"/>
        <pt x="632" y="339" on="0"/>
        <pt x="598" y="418" on="0"/>
        <pt x="538" y="472" on="0"/>
        <pt x="456" y="501" on="0"/>
        <pt x="409" y="501" on="1"/>
        <pt x="346" y="501" on="0"/>
        <pt x="245" y="457" on="0"/>
        <pt x="174" y="381" on="0"/>
        <pt x="135" y="275" on="0"/>
        <pt x="135" y="214" on="1"/>
        <pt x="135" y="159" on="0"/>
        <pt x="169" y="72" on="0"/>
        <pt x="232" y="12" on="0"/>
        <pt x="321" y="-20" on="0"/>
        <pt x="376" y="-20" on="1"/>
        <pt x="411" y="-20" on="0"/>
        <pt x="510" y="4" on="0"/>
        <pt x="565" y="24" on="1"/>
        <pt x="620" y="44" on="1"/>
        <pt x="645" y="-6" on="1"/>
        <pt x="579" y="-51" on="0"/>
        <pt x="433" y="-101" on="0"/>
        <pt x="353" y="-101" on="1"/>
        <pt x="282" y="-101" on="0"/>
        <pt x="167" y="-53" on="0"/>
        <pt x="85" y="31" on="0"/>
        <pt x="41" y="144" on="0"/>
        <pt x="41" y="210" on="1"/>
        <pt x="41" y="288" on="0"/>
        <pt x="98" y="424" on="0"/>
        <pt x="198" y="525" on="0"/>
        <pt x="334" y="583" on="0"/>
        <pt x="413" y="583" on="1"/>
        <pt x="474" y="583" on="0"/>
        <pt x="583" y="542" on="0"/>
        <pt x="664" y="467" on="0"/>
        <pt x="712" y="363" on="0"/>
        <pt x="712" y="300" on="1"/>
        <pt x="712" y="255" on="0"/>
        <pt x="685" y="175" on="0"/>
        <pt x="638" y="116" on="0"/>
        <pt x="573" y="81" on="0"/>
        <pt x="535" y="81" on="1"/>
        <pt x="503" y="81" on="0"/>
        <pt x="460" y="103" on="0"/>
      </contour>
      <contour>
        <pt x="442" y="310" on="1"/>
        <pt x="443" y="315" on="0"/>
        <pt x="442" y="320" on="0"/>
        <pt x="437" y="322" on="1"/>
        <pt x="427" y="327" on="0"/>
        <pt x="399" y="334" on="0"/>
        <pt x="385" y="334" on="1"/>
        <pt x="347" y="334" on="0"/>
        <pt x="305" y="275" on="0"/>
        <pt x="305" y="227" on="1"/>
        <pt x="305" y="193" on="0"/>
        <pt x="335" y="156" on="0"/>
        <pt x="366" y="156" on="1"/>
        <pt x="378" y="156" on="0"/>
        <pt x="406" y="162" on="0"/>
        <pt x="417" y="168" on="1"/>
        <pt x="422" y="171" on="0"/>
        <pt x="426" y="176" on="0"/>
        <pt x="427" y="182" on="1"/>
      </contour>
    </TTGlyph>
    <TTGlyph name="at.cap" xMin="53" yMin="-11" xMax="724" yMax="673">
      <component glyphName="at" x="12" y="90" flags="0x4"/>
    </TTGlyph>
    <TTGlyph name="atilde" xMin="30" yMin="-8" xMax="523" yMax="691">
      <component glyphName="a" x="0" y="0" flags="0x204"/>
      <component glyphName="tilde" x="97" y="0" flags="0x4"/>
    </TTGlyph>
    <TTGlyph name="b" xMin="36" yMin="-8" xMax="510" yMax="709">
      <contour>
        <pt x="194" y="445" on="1"/>
        <pt x="210" y="455" on="1"/>
        <pt x="239" y="472" on="0"/>
        <pt x="301" y="496" on="0"/>
        <pt x="333" y="496" on="1"/>
        <pt x="369" y="496" on="0"/>
        <pt x="433" y="464" on="0"/>
        <pt x="482" y="406" on="0"/>
        <pt x="510" y="325" on="0"/>
        <pt x="510" y="276" on="1"/>
        <pt x="510" y="206" on="0"/>
        <pt x="461" y="91" on="0"/>
        <pt x="420" y="53" on="1"/>
        <pt x="389" y="24" on="0"/>
        <pt x="313" y="-8" on="0"/>
        <pt x="278" y="-8" on="1"/>
        <pt x="249" y="-8" on="0"/>
        <pt x="186" y="13" on="0"/>
        <pt x="156" y="30" on="1"/>
        <pt x="134" y="43" on="1"/>
        <pt x="111" y="-3" on="1"/>
        <pt x="36" y="4" on="1"/>
        <pt x="118" y="709" on="1"/>
        <pt x="225" y="709" on="1"/>
      </contour>
      <contour>
        <pt x="158" y="135" on="1"/>
        <pt x="156" y="125" on="0"/>
        <pt x="159" y="116" on="0"/>
        <pt x="167" y="112" on="1"/>
        <pt x="187" y="103" on="0"/>
        <pt x="240" y="92" on="0"/>
        <pt x="263" y="92" on="1"/>
        <pt x="293" y="92" on="0"/>
        <pt x="343" y="116" on="0"/>
        <pt x="380" y="162" on="0"/>
        <pt x="401" y="231" on="0"/>
        <pt x="401" y="276" on="1"/>
        <pt x="401" y="335" on="0"/>
        <pt x="352" y="396" on="0"/>
        <pt x="304" y="396" on="1"/>
        <pt x="279" y="396" on="0"/>
        <pt x="223" y="382" on="0"/>
        <pt x="203" y="372" on="1"/>
        <pt x="192" y="367" on="0"/>
        <pt x="185" y="358" on="0"/>
        <pt x="183" y="348" on="1"/>
      </contour>
    </TTGlyph>
    <TTGlyph name="backslash" xMin="61" yMin="0" xMax="419" yMax="663">
      <contour>
        <pt x="305" y="0" on="1"/>
        <pt x="61" y="663" on="1"/>
        <pt x="175" y="663" on="1"/>
        <pt x="419" y="0" on="1"/>
      </contour>
    </TTGlyph>
    <TTGlyph name="bar" xMin="20" yMin="-229" xMax="233" yMax="709">
      <contour>
        <pt x="131" y="709" on="1"/>
        <pt x="233" y="709" on="1"/>
        <pt x="122" y="-229" on="1"/>
        <pt x="20" y="-229" on="1"/>
      </contour>
    </TTGlyph>
    <TTGlyph name="braceleft" xMin="39" yMin="-238" xMax="399" yMax="673">
      <contour>
        <pt x="48" y="255" on="1"/>
        <pt x="85" y="265" on="0"/>
        <pt x="130" y="286" on="0"/>
        <pt x="155" y="314" on="0"/>
        <pt x="164" y="352" on="0"/>
        <pt x="164" y="379" on="1"/>
        <pt x="164" y="392" on="0"/>
        <pt x="162" y="429" on="0"/>
        <pt x="159" y="470" on="0"/>
        <pt x="157" y="509" on="0"/>
        <pt x="157" y="524" on="1"/>
        <pt x="157" y="596" on="0"/>
        <pt x="239" y="673" on="0"/>
        <pt x="307" y="673" on="1"/>
        <pt x="328" y="673" on="0"/>
        <pt x="379" y="664" on="0"/>
        <pt x="399" y="658" on="1"/>
        <pt x="391" y="591" on="1"/>
        <pt x="290" y="571" on="1"/>
        <pt x="273" y="568" on="0"/>
        <pt x="262" y="552" on="0"/>
        <pt x="262" y="535" on="1"/>
        <pt x="262" y="523" on="0"/>
        <pt x="264" y="485" on="0"/>
        <pt x="267" y="442" on="0"/>
        <pt x="269" y="401" on="0"/>
        <pt x="269" y="388" on="1"/>
        <pt x="269" y="348" on="0"/>
        <pt x="252" y="293" on="0"/>
        <pt x="219" y="255" on="0"/>
        <pt x="171" y="228" on="0"/>
        <pt x="139" y="217" on="1"/>
        <pt x="188" y="196" on="0"/>
        <pt x="236" y="144" on="0"/>
        <pt x="236" y="102" on="1"/>
        <pt x="236" y="77" on="0"/>
        <pt x="221" y="15" on="0"/>
        <pt x="204" y="-45" on="0"/>
        <pt x="189" y="-96" on="0"/>
        <pt x="189" y="-110" on="1"/>
        <pt x="189" y="-124" on="0"/>
        <pt x="201" y="-135" on="0"/>
        <pt x="217" y="-138" on="1"/>
        <pt x="303" y="-156" on="1"/>
        <pt x="295" y="-223" on="1"/>
        <pt x="275" y="-229" on="0"/>
        <pt x="222" y="-238" on="0"/>
        <pt x="202" y="-238" on="1"/>
        <pt x="142" y="-238" on="0"/>
        <pt x="82" y="-171" on="0"/>
        <pt x="82" y="-123" on="1"/>
        <pt x="82" y="-97" on="0"/>
        <pt x="97" y="-35" on="0"/>
        <pt x="114" y="28" on="0"/>
        <pt x="129" y="84" on="0"/>
        <pt x="129" y="104" on="1"/>
        <pt x="129" y="135" on="0"/>
        <pt x="87" y="167" on="0"/>
        <pt x="39" y="177" on="1"/>
      </contour>
    </TTGlyph>
    <TTGlyph name="braceleft.cap" xMin="51" yMin="-123" xMax="411" yMax="788">
      <component glyphName="braceleft" x="12" y="115" flags="0x204"/>
    </TTGlyph>
    <TTGlyph name="braceright" xMin="-43" yMin="-238" xMax="317" yMax="673">
      <contour>
        <pt x="308" y="180" on="1"/>
        <pt x="271" y="170" on="0"/>
        <pt x="226" y="149" on="0"/>
        <pt x="201" y="121" on="0"/>
        <pt x="192" y="83" on="0"/>
        <pt x="192" y="56" on="1"/>
        <pt x="192" y="43" on="0"/>
        <pt x="194" y="6" on="0"/>
        <pt x="197" y="-35" on="0"/>
        <pt x="199" y="-74" on="0"/>
        <pt x="199" y="-89" on="1"/>
        <pt x="199" y="-161" on="0"/>
        <pt x="117" y="-238" on="0"/>
        <pt x="49" y="-238" on="1"/>
        <pt x="28" y="-238" on="0"/>
        <pt x="-23" y="-229" on="0"/>
        <pt x="-43" y="-223" on="1"/>
        <pt x="-35" y="-156" on="1"/>
        <pt x="66" y="-136" on="1"/>
        <pt x="83" y="-133" on="0"/>
        <pt x="94" y="-117" on="0"/>
        <pt x="94" y="-100" on="1"/>
        <pt x="94" y="-88" on="0"/>
        <pt x="92" y="-50" on="0"/>
        <pt x="89" y="-7" on="0"/>
        <pt x="87" y="33" on="0"/>
        <pt x="87" y="47" on="1"/>
        <pt x="87" y="87" on="0"/>
        <pt x="104" y="142" on="0"/>
        <pt x="137" y="180" on="0"/>
        <pt x="185" y="207" on="0"/>
        <pt x="217" y="218" on="1"/>
        <pt x="168" y="239" on="0"/>
        <pt x="120" y="291" on="0"/>
        <pt x="120" y="333" on="1"/>
        <pt x="120" y="358" on="0"/>
        <pt x="135" y="420" on="0"/>
        <pt x="152" y="480" on="0"/>
        <pt x="167" y="531" on="0"/>
        <pt x="167" y="545" on="1"/>
        <pt x="167" y="559" on="0"/>
        <pt x="155" y="570" on="0"/>
        <pt x="139" y="573" on="1"/>
        <pt x="53" y="591" on="1"/>
        <pt x="61" y="658" on="1"/>
        <pt x="81" y="664" on="0"/>
        <pt x="134" y="673" on="0"/>
        <pt x="154" y="673" on="1"/>
        <pt x="214" y="673" on="0"/>
        <pt x="274" y="606" on="0"/>
        <pt x="274" y="558" on="1"/>
        <pt x="274" y="532" on="0"/>
        <pt x="259" y="470" on="0"/>
        <pt x="242" y="407" on="0"/>
        <pt x="227" y="351" on="0"/>
        <pt x="227" y="331" on="1"/>
        <pt x="227" y="300" on="0"/>
        <pt x="269" y="268" on="0"/>
        <pt x="317" y="258" on="1"/>
      </contour>
    </TTGlyph>
    <TTGlyph name="braceright.cap" xMin="-30" yMin="-123" xMax="330" yMax="788">
      <component glyphName="braceright" x="13" y="115" flags="0x204"/>
    </TTGlyph>
    <TTGlyph name="bracketleft" xMin="22" yMin="-229" xMax="360" yMax="663">
      <contour>
        <pt x="127" y="663" on="1"/>
        <pt x="360" y="663" on="1"/>
        <pt x="347" y="561" on="1"/>
        <pt x="220" y="561" on="1"/>
        <pt x="139" y="-127" on="1"/>
        <pt x="268" y="-127" on="1"/>
        <pt x="255" y="-229" on="1"/>
        <pt x="22" y="-229" on="1"/>
      </contour>
    </TTGlyph>
    <TTGlyph name="bracketleft.cap" xMin="35" yMin="-114" xMax="373" yMax="778">
      <component glyphName="bracketleft" x="13" y="115" flags="0x4"/>
    </TTGlyph>
    <TTGlyph name="bracketright" xMin="-31" yMin="-229" xMax="307" yMax="663">
      <contour>
        <pt x="202" y="-229" on="1"/>
        <pt x="-31" y="-229" on="1"/>
        <pt x="-18" y="-127" on="1"/>
        <pt x="109" y="-127" on="1"/>
        <pt x="190" y="561" on="1"/>
        <pt x="61" y="561" on="1"/>
        <pt x="74" y="663" on="1"/>
        <pt x="307" y="663" on="1"/>
      </contour>
    </TTGlyph>
    <TTGlyph name="bracketright.cap" xMin="-23" yMin="-114" xMax="315" yMax="778">
      <component glyphName="bracketright" x="8" y="115" flags="0x4"/>
    </TTGlyph>
    <TTGlyph name="breve" xMin="92" yMin="554" xMax="404" yMax="709">
      <contour>
        <pt x="404" y="697" on="1"/>
        <pt x="387" y="633" on="0"/>
        <pt x="300" y="554" on="0"/>
        <pt x="237" y="554" on="1"/>
        <pt x="165" y="554" on="0"/>
        <pt x="92" y="636" on="0"/>
        <pt x="92" y="697" on="1"/>
        <pt x="161" y="709" on="1"/>
        <pt x="169" y="674" on="0"/>
        <pt x="206" y="637" on="0"/>
        <pt x="240" y="637" on="1"/>
        <pt x="275" y="637" on="0"/>
        <pt x="320" y="674" on="0"/>
        <pt x="337" y="709" on="1"/>
      </contour>
    </TTGlyph>
    <TTGlyph name="breve.cap" xMin="112" yMin="734" xMax="424" yMax="889">
      <contour>
        <pt x="424" y="877" on="1"/>
        <pt x="407" y="813" on="0"/>
        <pt x="320" y="734" on="0"/>
        <pt x="257" y="734" on="1"/>
        <pt x="185" y="734" on="0"/>
        <pt x="112" y="816" on="0"/>
        <pt x="112" y="877" on="1"/>
        <pt x="181" y="889" on="1"/>
        <pt x="189" y="854" on="0"/>
        <pt x="226" y="817" on="0"/>
        <pt x="260" y="817" on="1"/>
        <pt x="295" y="817" on="0"/>
        <pt x="340" y="854" on="0"/>
        <pt x="357" y="889" on="1"/>
      </contour>
    </TTGlyph>
    <TTGlyph name="brokenbar" xMin="20" yMin="-229" xMax="233" yMax="709">
      <contour>
        <pt x="131" y="709" on="1"/>
        <pt x="233" y="709" on="1"/>
        <pt x="184" y="291" on="1"/>
        <pt x="82" y="291" on="1"/>
      </contour>
      <contour>
        <pt x="69" y="189" on="1"/>
        <pt x="171" y="189" on="1"/>
        <pt x="122" y="-229" on="1"/>
        <pt x="20" y="-229" on="1"/>
      </contour>
    </TTGlyph>
    <TTGlyph name="bullet" xMin="53" yMin="177" xMax="288" yMax="387">
      <contour>
        <pt x="264" y="177" on="1"/>
        <pt x="53" y="177" on="1"/>
        <pt x="77" y="387" on="1"/>
        <pt x="266" y="387" on="1"/>
        <pt x="279" y="387" on="0"/>
        <pt x="288" y="378" on="0"/>
        <pt x="286" y="366" on="1"/>
      </contour>
    </TTGlyph>
    <TTGlyph name="bullet.cap" xMin="65" yMin="227" xMax="300" yMax="437">
      <component glyphName="bullet" x="12" y="50" flags="0x204"/>
    </TTGlyph>
    <TTGlyph name="c" xMin="31" yMin="-8" xMax="472" yMax="496">
      <contour>
        <pt x="393" y="306" on="1"/>
        <pt x="356" y="343" on="1"/>
        <pt x="330" y="369" on="0"/>
        <pt x="293" y="395" on="0"/>
        <pt x="265" y="395" on="1"/>
        <pt x="237" y="395" on="0"/>
        <pt x="191" y="366" on="0"/>
        <pt x="158" y="318" on="0"/>
        <pt x="140" y="255" on="0"/>
        <pt x="140" y="221" on="1"/>
        <pt x="140" y="161" on="0"/>
        <pt x="200" y="93" on="0"/>
        <pt x="260" y="93" on="1"/>
        <pt x="283" y="93" on="0"/>
        <pt x="337" y="105" on="0"/>
        <pt x="361" y="114" on="1"/>
        <pt x="426" y="138" on="1"/>
        <pt x="459" y="79" on="1"/>
        <pt x="439" y="61" on="0"/>
        <pt x="387" y="29" on="0"/>
        <pt x="331" y="5" on="0"/>
        <pt x="273" y="-8" on="0"/>
        <pt x="246" y="-8" on="1"/>
        <pt x="196" y="-8" on="0"/>
        <pt x="116" y="26" on="0"/>
        <pt x="60" y="85" on="0"/>
        <pt x="31" y="166" on="0"/>
        <pt x="31" y="214" on="1"/>
        <pt x="31" y="271" on="0"/>
        <pt x="68" y="373" on="0"/>
        <pt x="136" y="451" on="0"/>
        <pt x="229" y="496" on="0"/>
        <pt x="286" y="496" on="1"/>
        <pt x="353" y="496" on="0"/>
        <pt x="453" y="413" on="0"/>
        <pt x="472" y="341" on="1"/>
      </contour>
    </TTGlyph>
    <TTGlyph name="cacute" xMin="31" yMin="-8" xMax="472" yMax="738">
      <component glyphName="c" x="0" y="0" flags="0x204"/>
      <component glyphName="acute" x="92" y="0" flags="0x4"/>
    </TTGlyph>
    <TTGlyph name="caron" xMin="26" yMin="551" xMax="363" yMax="734">
      <contour>
        <pt x="324" y="734" on="1"/>
        <pt x="363" y="689" on="1"/>
        <pt x="226" y="564" on="1"/>
        <pt x="218" y="556" on="0"/>
        <pt x="205" y="551" on="0"/>
        <pt x="194" y="551" on="1"/>
        <pt x="162" y="551" on="1"/>
        <pt x="151" y="551" on="0"/>
        <pt x="141" y="556" on="0"/>
        <pt x="134" y="564" on="1"/>
        <pt x="26" y="689" on="1"/>
        <pt x="77" y="734" on="1"/>
        <pt x="187" y="638" on="1"/>
        <pt x="190" y="638" on="1"/>
      </contour>
    </TTGlyph>
    <TTGlyph name="caron.cap" xMin="109" yMin="731" xMax="446" yMax="914">
      <contour>
        <pt x="407" y="914" on="1"/>
        <pt x="446" y="869" on="1"/>
        <pt x="309" y="744" on="1"/>
        <pt x="301" y="736" on="0"/>
        <pt x="288" y="731" on="0"/>
        <pt x="277" y="731" on="1"/>
        <pt x="245" y="731" on="1"/>
        <pt x="234" y="731" on="0"/>
        <pt x="224" y="736" on="0"/>
        <pt x="217" y="744" on="1"/>
        <pt x="109" y="869" on="1"/>
        <pt x="160" y="914" on="1"/>
        <pt x="270" y="818" on="1"/>
        <pt x="273" y="818" on="1"/>
      </contour>
    </TTGlyph>
    <TTGlyph name="ccaron" xMin="31" yMin="-8" xMax="486" yMax="734">
      <component glyphName="c" x="0" y="0" flags="0x204"/>
      <component glyphName="caron" x="123" y="0" flags="0x4"/>
    </TTGlyph>
    <TTGlyph name="ccedilla" xMin="31" yMin="-240" xMax="472" yMax="496">
      <contour>
        <pt x="393" y="305" on="1"/>
        <pt x="356" y="342" on="1"/>
        <pt x="330" y="368" on="0"/>
        <pt x="293" y="394" on="0"/>
        <pt x="265" y="394" on="1"/>
        <pt x="237" y="394" on="0"/>
        <pt x="191" y="366" on="0"/>
        <pt x="159" y="318" on="0"/>
        <pt x="141" y="255" on="0"/>
        <pt x="141" y="221" on="1"/>
        <pt x="141" y="161" on="0"/>
        <pt x="200" y="93" on="0"/>
        <pt x="260" y="93" on="1"/>
        <pt x="283" y="93" on="0"/>
        <pt x="337" y="105" on="0"/>
        <pt x="361" y="114" on="1"/>
        <pt x="426" y="138" on="1"/>
        <pt x="459" y="79" on="1"/>
        <pt x="422" y="46" on="0"/>
        <pt x="318" y="-2" on="0"/>
        <pt x="267" y="-7" on="1"/>
        <pt x="260" y="-15" on="0"/>
        <pt x="250" y="-35" on="0"/>
        <pt x="250" y="-43" on="1"/>
        <pt x="250" y="-52" on="0"/>
        <pt x="280" y="-62" on="0"/>
        <pt x="315" y="-78" on="0"/>
        <pt x="345" y="-103" on="0"/>
        <pt x="345" y="-127" on="1"/>
        <pt x="345" y="-159" on="0"/>
        <pt x="308" y="-202" on="0"/>
        <pt x="251" y="-228" on="0"/>
        <pt x="185" y="-239" on="0"/>
        <pt x="157" y="-240" on="1"/>
        <pt x="153" y="-178" on="1"/>
        <pt x="211" y="-167" on="1"/>
        <pt x="234" y="-162" on="0"/>
        <pt x="249" y="-150" on="0"/>
        <pt x="249" y="-142" on="1"/>
        <pt x="249" y="-134" on="0"/>
        <pt x="222" y="-123" on="0"/>
        <pt x="189" y="-110" on="0"/>
        <pt x="162" y="-90" on="0"/>
        <pt x="162" y="-73" on="1"/>
        <pt x="162" y="-56" on="0"/>
        <pt x="186" y="-19" on="0"/>
        <pt x="202" y="-5" on="1"/>
        <pt x="120" y="8" on="0"/>
        <pt x="31" y="127" on="0"/>
        <pt x="31" y="214" on="1"/>
        <pt x="31" y="271" on="0"/>
        <pt x="68" y="373" on="0"/>
        <pt x="136" y="451" on="0"/>
        <pt x="229" y="496" on="0"/>
        <pt x="286" y="496" on="1"/>
        <pt x="353" y="496" on="0"/>
        <pt x="453" y="413" on="0"/>
        <pt x="472" y="341" on="1"/>
      </contour>
    </TTGlyph>
    <TTGlyph name="ccircumflex" xMin="31" yMin="-8" xMax="481" yMax="724">
      <component glyphName="c" x="0" y="0" flags="0x204"/>
      <component glyphName="circumflex" x="85" y="0" flags="0x4"/>
    </TTGlyph>
    <TTGlyph name="cdotaccent" xMin="31" yMin="-8" xMax="472" yMax="667">
      <component glyphName="c" x="0" y="0" flags="0x204"/>
      <component glyphName="dotaccent" x="94" y="0" flags="0x4"/>
    </TTGlyph>
    <TTGlyph name="cedilla" xMin="101" yMin="-240" xMax="293" yMax="9">
      <contour>
        <pt x="225" y="3" on="1"/>
        <pt x="216" y="-5" on="0"/>
        <pt x="198" y="-32" on="0"/>
        <pt x="198" y="-43" on="1"/>
        <pt x="198" y="-52" on="0"/>
        <pt x="228" y="-62" on="0"/>
        <pt x="263" y="-78" on="0"/>
        <pt x="293" y="-103" on="0"/>
        <pt x="293" y="-127" on="1"/>
        <pt x="293" y="-159" on="0"/>
        <pt x="256" y="-202" on="0"/>
        <pt x="199" y="-228" on="0"/>
        <pt x="133" y="-239" on="0"/>
        <pt x="105" y="-240" on="1"/>
        <pt x="101" y="-178" on="1"/>
        <pt x="159" y="-167" on="1"/>
        <pt x="182" y="-162" on="0"/>
        <pt x="197" y="-150" on="0"/>
        <pt x="197" y="-142" on="1"/>
        <pt x="197" y="-134" on="0"/>
        <pt x="170" y="-123" on="0"/>
        <pt x="137" y="-110" on="0"/>
        <pt x="110" y="-90" on="0"/>
        <pt x="110" y="-73" on="1"/>
        <pt x="110" y="-62" on="0"/>
        <pt x="121" y="-39" on="0"/>
        <pt x="137" y="-17" on="0"/>
        <pt x="158" y="2" on="0"/>
        <pt x="167" y="9" on="1"/>
      </contour>
    </TTGlyph>
    <TTGlyph name="cent" xMin="98" yMin="-116" xMax="539" yMax="617">
      <contour>
        <pt x="460" y="305" on="1"/>
        <pt x="423" y="342" on="1"/>
        <pt x="410" y="354" on="0"/>
        <pt x="390" y="373" on="0"/>
        <pt x="380" y="380" on="1"/>
        <pt x="347" y="94" on="1"/>
        <pt x="388" y="99" on="0"/>
        <pt x="428" y="114" on="1"/>
        <pt x="493" y="138" on="1"/>
        <pt x="526" y="79" on="1"/>
        <pt x="489" y="46" on="0"/>
        <pt x="386" y="-2" on="0"/>
        <pt x="335" y="-7" on="1"/>
        <pt x="312" y="-116" on="1"/>
        <pt x="261" y="-116" on="1"/>
        <pt x="274" y="-5" on="1"/>
        <pt x="232" y="1" on="0"/>
        <pt x="166" y="38" on="0"/>
        <pt x="121" y="95" on="0"/>
        <pt x="98" y="170" on="0"/>
        <pt x="98" y="214" on="1"/>
        <pt x="98" y="268" on="0"/>
        <pt x="132" y="367" on="0"/>
        <pt x="193" y="443" on="0"/>
        <pt x="279" y="491" on="0"/>
        <pt x="332" y="495" on="1"/>
        <pt x="357" y="617" on="1"/>
        <pt x="408" y="617" on="1"/>
        <pt x="393" y="491" on="1"/>
        <pt x="446" y="480" on="0"/>
        <pt x="523" y="401" on="0"/>
        <pt x="539" y="341" on="1"/>
      </contour>
      <contour>
        <pt x="208" y="221" on="1"/>
        <pt x="208" y="172" on="0"/>
        <pt x="247" y="109" on="0"/>
        <pt x="286" y="98" on="1"/>
        <pt x="320" y="393" on="1"/>
        <pt x="294" y="390" on="0"/>
        <pt x="253" y="360" on="0"/>
        <pt x="224" y="313" on="0"/>
        <pt x="208" y="253" on="0"/>
      </contour>
    </TTGlyph>
    <TTGlyph name="cent.lprop" xMin="53" yMin="-116" xMax="494" yMax="617">
      <component glyphName="cent" x="-45" y="0" flags="0x4"/>
    </TTGlyph>
    <TTGlyph name="cent.oprop" xMin="49" yMin="-116" xMax="455" yMax="542">
      <component glyphName="cent.otab" x="-55" y="0" flags="0x4"/>
    </TTGlyph>
    <TTGlyph name="cent.otab" xMin="104" yMin="-116" xMax="510" yMax="542">
      <contour>
        <pt x="445" y="270" on="1"/>
        <pt x="404" y="316" on="1"/>
        <pt x="391" y="330" on="0"/>
        <pt x="373" y="341" on="0"/>
        <pt x="365" y="343" on="1"/>
        <pt x="335" y="86" on="1"/>
        <pt x="358" y="87" on="0"/>
        <pt x="399" y="97" on="0"/>
        <pt x="416" y="105" on="1"/>
        <pt x="462" y="125" on="1"/>
        <pt x="495" y="67" on="1"/>
        <pt x="460" y="36" on="0"/>
        <pt x="371" y="-6" on="0"/>
        <pt x="323" y="-10" on="1"/>
        <pt x="303" y="-116" on="1"/>
        <pt x="261" y="-116" on="1"/>
        <pt x="274" y="-9" on="1"/>
        <pt x="193" y="1" on="0"/>
        <pt x="104" y="108" on="0"/>
        <pt x="104" y="188" on="1"/>
        <pt x="104" y="236" on="0"/>
        <pt x="138" y="324" on="0"/>
        <pt x="198" y="392" on="0"/>
        <pt x="279" y="436" on="0"/>
        <pt x="326" y="440" on="1"/>
        <pt x="346" y="542" on="1"/>
        <pt x="388" y="542" on="1"/>
        <pt x="376" y="438" on="1"/>
        <pt x="428" y="430" on="0"/>
        <pt x="496" y="358" on="0"/>
        <pt x="510" y="301" on="1"/>
      </contour>
      <contour>
        <pt x="212" y="195" on="1"/>
        <pt x="212" y="153" on="0"/>
        <pt x="248" y="100" on="0"/>
        <pt x="285" y="90" on="1"/>
        <pt x="315" y="344" on="1"/>
        <pt x="290" y="339" on="0"/>
        <pt x="251" y="311" on="0"/>
        <pt x="225" y="271" on="0"/>
        <pt x="212" y="222" on="0"/>
      </contour>
    </TTGlyph>
    <TTGlyph name="circumflex" xMin="59" yMin="541" xMax="396" yMax="724">
      <contour>
        <pt x="235" y="637" on="1"/>
        <pt x="232" y="637" on="1"/>
        <pt x="98" y="541" on="1"/>
        <pt x="59" y="586" on="1"/>
        <pt x="196" y="711" on="1"/>
        <pt x="204" y="719" on="0"/>
        <pt x="216" y="724" on="0"/>
        <pt x="228" y="724" on="1"/>
        <pt x="260" y="724" on="1"/>
        <pt x="271" y="724" on="0"/>
        <pt x="279" y="720" on="0"/>
        <pt x="287" y="711" on="1"/>
        <pt x="396" y="586" on="1"/>
        <pt x="345" y="541" on="1"/>
      </contour>
    </TTGlyph>
    <TTGlyph name="circumflex.cap" xMin="88" yMin="721" xMax="425" yMax="904">
      <contour>
        <pt x="264" y="817" on="1"/>
        <pt x="261" y="817" on="1"/>
        <pt x="127" y="721" on="1"/>
        <pt x="88" y="766" on="1"/>
        <pt x="225" y="891" on="1"/>
        <pt x="233" y="899" on="0"/>
        <pt x="245" y="904" on="0"/>
        <pt x="257" y="904" on="1"/>
        <pt x="289" y="904" on="1"/>
        <pt x="300" y="904" on="0"/>
        <pt x="308" y="900" on="0"/>
        <pt x="316" y="891" on="1"/>
        <pt x="425" y="766" on="1"/>
        <pt x="374" y="721" on="1"/>
      </contour>
    </TTGlyph>
    <TTGlyph name="colon" xMin="24" yMin="0" xMax="193" yMax="438">
      <contour>
        <pt x="141" y="0" on="1"/>
        <pt x="24" y="0" on="1"/>
        <pt x="38" y="123" on="1"/>
        <pt x="136" y="123" on="1"/>
        <pt x="156" y="123" on="0"/>
        <pt x="153" y="104" on="1"/>
      </contour>
      <contour>
        <pt x="178" y="315" on="1"/>
        <pt x="61" y="315" on="1"/>
        <pt x="75" y="438" on="1"/>
        <pt x="173" y="438" on="1"/>
        <pt x="193" y="438" on="0"/>
        <pt x="190" y="419" on="1"/>
      </contour>
    </TTGlyph>
    <TTGlyph name="comma" xMin="-22" yMin="-156" xMax="154" yMax="123">
      <contour>
        <pt x="53" y="-16" on="1"/>
        <pt x="57" y="-10" on="0"/>
        <pt x="56" y="-3" on="0"/>
        <pt x="51" y="2" on="1"/>
        <pt x="39" y="15" on="1"/>
        <pt x="31" y="23" on="0"/>
        <pt x="27" y="34" on="0"/>
        <pt x="29" y="45" on="1"/>
        <pt x="38" y="123" on="1"/>
        <pt x="137" y="123" on="1"/>
        <pt x="148" y="123" on="0"/>
        <pt x="154" y="113" on="0"/>
        <pt x="153" y="104" on="1"/>
        <pt x="145" y="38" on="1"/>
        <pt x="142" y="13" on="0"/>
        <pt x="130" y="-28" on="0"/>
        <pt x="102" y="-72" on="0"/>
        <pt x="52" y="-122" on="0"/>
        <pt x="12" y="-156" on="1"/>
        <pt x="-22" y="-125" on="1"/>
      </contour>
    </TTGlyph>
    <TTGlyph name="commaaccent" xMin="88" yMin="-282" xMax="226" yMax="-58">
      <contour>
        <pt x="88" y="-270" on="1"/>
        <pt x="133" y="-58" on="1"/>
        <pt x="205" y="-58" on="1"/>
        <pt x="214" y="-58" on="0"/>
        <pt x="221" y="-62" on="0"/>
        <pt x="223" y="-71" on="1"/>
        <pt x="224" y="-79" on="1"/>
        <pt x="225" y="-85" on="0"/>
        <pt x="226" y="-100" on="0"/>
        <pt x="226" y="-105" on="1"/>
        <pt x="226" y="-121" on="0"/>
        <pt x="210" y="-163" on="0"/>
        <pt x="187" y="-202" on="1"/>
        <pt x="141" y="-282" on="1"/>
      </contour>
    </TTGlyph>
    <TTGlyph name="copyright" xMin="55" yMin="-10" xMax="710" yMax="673">
      <contour>
        <pt x="493" y="236" on="1"/>
        <pt x="467" y="215" on="0"/>
        <pt x="402" y="185" on="0"/>
        <pt x="365" y="185" on="1"/>
        <pt x="310" y="185" on="0"/>
        <pt x="277" y="220" on="1"/>
        <pt x="241" y="258" on="0"/>
        <pt x="241" y="319" on="1"/>
        <pt x="241" y="350" on="0"/>
        <pt x="263" y="409" on="0"/>
        <pt x="303" y="455" on="0"/>
        <pt x="358" y="483" on="0"/>
        <pt x="391" y="483" on="1"/>
        <pt x="432" y="483" on="0"/>
        <pt x="494" y="435" on="0"/>
        <pt x="508" y="390" on="1"/>
        <pt x="459" y="363" on="1"/>
        <pt x="433" y="393" on="1"/>
        <pt x="423" y="404" on="0"/>
        <pt x="402" y="415" on="0"/>
        <pt x="386" y="415" on="1"/>
        <pt x="353" y="415" on="0"/>
        <pt x="313" y="360" on="0"/>
        <pt x="313" y="322" on="1"/>
        <pt x="313" y="293" on="0"/>
        <pt x="342" y="254" on="0"/>
        <pt x="376" y="254" on="1"/>
        <pt x="389" y="254" on="0"/>
        <pt x="416" y="259" on="0"/>
        <pt x="430" y="264" on="1"/>
        <pt x="472" y="277" on="1"/>
      </contour>
      <contour>
        <pt x="144" y="303" on="1"/>
        <pt x="144" y="255" on="0"/>
        <pt x="172" y="171" on="0"/>
        <pt x="226" y="110" on="0"/>
        <pt x="305" y="75" on="0"/>
        <pt x="356" y="75" on="1"/>
        <pt x="414" y="75" on="0"/>
        <pt x="511" y="118" on="0"/>
        <pt x="582" y="194" on="0"/>
        <pt x="621" y="298" on="0"/>
        <pt x="621" y="360" on="1"/>
        <pt x="621" y="408" on="0"/>
        <pt x="593" y="492" on="0"/>
        <pt x="539" y="553" on="0"/>
        <pt x="460" y="588" on="0"/>
        <pt x="409" y="588" on="1"/>
        <pt x="351" y="588" on="0"/>
        <pt x="254" y="545" on="0"/>
        <pt x="183" y="469" on="0"/>
        <pt x="144" y="364" on="0"/>
      </contour>
      <contour>
        <pt x="710" y="366" on="1"/>
        <pt x="710" y="295" on="0"/>
        <pt x="656" y="159" on="0"/>
        <pt x="561" y="54" on="0"/>
        <pt x="429" y="-10" on="0"/>
        <pt x="351" y="-10" on="1"/>
        <pt x="285" y="-10" on="0"/>
        <pt x="176" y="39" on="0"/>
        <pt x="98" y="123" on="0"/>
        <pt x="55" y="235" on="0"/>
        <pt x="55" y="297" on="1"/>
        <pt x="55" y="368" on="0"/>
        <pt x="109" y="504" on="0"/>
        <pt x="204" y="609" on="0"/>
        <pt x="336" y="673" on="0"/>
        <pt x="414" y="673" on="1"/>
        <pt x="480" y="673" on="0"/>
        <pt x="589" y="624" on="0"/>
        <pt x="667" y="540" on="0"/>
        <pt x="710" y="428" on="0"/>
      </contour>
    </TTGlyph>
    <TTGlyph name="currency" xMin="51" yMin="82" xMax="585" yMax="580">
      <contour>
        <pt x="515" y="355" on="1"/>
        <pt x="515" y="320" on="0"/>
        <pt x="498" y="257" on="0"/>
        <pt x="482" y="231" on="1"/>
        <pt x="545" y="156" on="1"/>
        <pt x="465" y="82" on="1"/>
        <pt x="405" y="154" on="1"/>
        <pt x="382" y="140" on="0"/>
        <pt x="331" y="125" on="0"/>
        <pt x="304" y="125" on="1"/>
        <pt x="273" y="125" on="0"/>
        <pt x="219" y="143" on="0"/>
        <pt x="196" y="159" on="1"/>
        <pt x="114" y="82" on="1"/>
        <pt x="51" y="156" on="1"/>
        <pt x="136" y="235" on="1"/>
        <pt x="129" y="252" on="0"/>
        <pt x="121" y="287" on="0"/>
        <pt x="121" y="307" on="1"/>
        <pt x="121" y="342" on="0"/>
        <pt x="138" y="405" on="0"/>
        <pt x="154" y="431" on="1"/>
        <pt x="91" y="506" on="1"/>
        <pt x="171" y="580" on="1"/>
        <pt x="231" y="508" on="1"/>
        <pt x="254" y="522" on="0"/>
        <pt x="305" y="537" on="0"/>
        <pt x="332" y="537" on="1"/>
        <pt x="363" y="537" on="0"/>
        <pt x="417" y="519" on="0"/>
        <pt x="440" y="503" on="1"/>
        <pt x="522" y="580" on="1"/>
        <pt x="585" y="506" on="1"/>
        <pt x="500" y="427" on="1"/>
        <pt x="507" y="410" on="0"/>
        <pt x="515" y="375" on="0"/>
      </contour>
      <contour>
        <pt x="420" y="349" on="1"/>
        <pt x="420" y="367" on="0"/>
        <pt x="410" y="402" on="0"/>
        <pt x="388" y="429" on="0"/>
        <pt x="353" y="446" on="0"/>
        <pt x="328" y="446" on="1"/>
        <pt x="280" y="446" on="0"/>
        <pt x="216" y="376" on="0"/>
        <pt x="216" y="313" on="1"/>
        <pt x="216" y="295" on="0"/>
        <pt x="226" y="260" on="0"/>
        <pt x="248" y="233" on="0"/>
        <pt x="283" y="216" on="0"/>
        <pt x="308" y="216" on="1"/>
        <pt x="356" y="216" on="0"/>
        <pt x="420" y="286" on="0"/>
      </contour>
    </TTGlyph>
    <TTGlyph name="d" xMin="30" yMin="-8" xMax="528" yMax="709">
      <contour>
        <pt x="265" y="496" on="1"/>
        <pt x="294" y="496" on="0"/>
        <pt x="347" y="479" on="0"/>
        <pt x="379" y="459" on="1"/>
        <pt x="389" y="453" on="1"/>
        <pt x="419" y="709" on="1"/>
        <pt x="528" y="709" on="1"/>
        <pt x="456" y="92" on="1"/>
        <pt x="528" y="77" on="1"/>
        <pt x="521" y="20" on="1"/>
        <pt x="503" y="12" on="0"/>
        <pt x="456" y="-2" on="0"/>
        <pt x="438" y="-2" on="1"/>
        <pt x="411" y="-2" on="0"/>
        <pt x="364" y="27" on="0"/>
        <pt x="355" y="47" on="1"/>
        <pt x="336" y="35" on="1"/>
        <pt x="310" y="18" on="0"/>
        <pt x="240" y="-8" on="0"/>
        <pt x="207" y="-8" on="1"/>
        <pt x="171" y="-8" on="0"/>
        <pt x="107" y="24" on="0"/>
        <pt x="58" y="82" on="0"/>
        <pt x="30" y="163" on="0"/>
        <pt x="30" y="212" on="1"/>
        <pt x="30" y="282" on="0"/>
        <pt x="82" y="397" on="0"/>
        <pt x="123" y="435" on="1"/>
        <pt x="154" y="464" on="0"/>
        <pt x="230" y="496" on="0"/>
      </contour>
      <contour>
        <pt x="379" y="352" on="1"/>
        <pt x="381" y="364" on="0"/>
        <pt x="375" y="373" on="0"/>
        <pt x="367" y="377" on="1"/>
        <pt x="326" y="396" on="0"/>
        <pt x="280" y="396" on="1"/>
        <pt x="250" y="396" on="0"/>
        <pt x="199" y="372" on="0"/>
        <pt x="161" y="326" on="0"/>
        <pt x="139" y="257" on="0"/>
        <pt x="139" y="212" on="1"/>
        <pt x="139" y="152" on="0"/>
        <pt x="191" y="92" on="0"/>
        <pt x="233" y="92" on="1"/>
        <pt x="256" y="92" on="0"/>
        <pt x="312" y="106" on="0"/>
        <pt x="335" y="118" on="1"/>
        <pt x="346" y="124" on="0"/>
        <pt x="352" y="132" on="0"/>
        <pt x="353" y="140" on="1"/>
      </contour>
    </TTGlyph>
    <TTGlyph name="dagger" xMin="61" yMin="-229" xMax="536" yMax="663">
      <contour>
        <pt x="307" y="19" on="1"/>
        <pt x="305" y="2" on="0"/>
        <pt x="297" y="-44" on="0"/>
        <pt x="292" y="-67" on="1"/>
        <pt x="259" y="-229" on="1"/>
        <pt x="196" y="-229" on="1"/>
        <pt x="201" y="-67" on="1"/>
        <pt x="202" y="-40" on="0"/>
        <pt x="205" y="9" on="0"/>
        <pt x="208" y="35" on="1"/>
        <pt x="227" y="196" on="1"/>
        <pt x="229" y="216" on="0"/>
        <pt x="236" y="257" on="0"/>
        <pt x="241" y="283" on="1"/>
        <pt x="252" y="338" on="1"/>
        <pt x="177" y="330" on="1"/>
        <pt x="151" y="327" on="0"/>
        <pt x="114" y="325" on="0"/>
        <pt x="95" y="325" on="1"/>
        <pt x="61" y="325" on="1"/>
        <pt x="72" y="426" on="1"/>
        <pt x="106" y="426" on="1"/>
        <pt x="125" y="426" on="0"/>
        <pt x="168" y="423" on="0"/>
        <pt x="189" y="421" on="1"/>
        <pt x="263" y="413" on="1"/>
        <pt x="264" y="470" on="1"/>
        <pt x="265" y="494" on="0"/>
        <pt x="267" y="537" on="0"/>
        <pt x="269" y="557" on="1"/>
        <pt x="282" y="663" on="1"/>
        <pt x="382" y="663" on="1"/>
        <pt x="370" y="557" on="1"/>
        <pt x="368" y="537" on="0"/>
        <pt x="361" y="496" on="0"/>
        <pt x="356" y="470" on="1"/>
        <pt x="344" y="413" on="1"/>
        <pt x="420" y="421" on="1"/>
        <pt x="444" y="423" on="0"/>
        <pt x="483" y="426" on="0"/>
        <pt x="502" y="426" on="1"/>
        <pt x="536" y="426" on="1"/>
        <pt x="524" y="325" on="1"/>
        <pt x="491" y="325" on="1"/>
        <pt x="472" y="325" on="0"/>
        <pt x="432" y="328" on="0"/>
        <pt x="408" y="330" on="1"/>
        <pt x="334" y="338" on="1"/>
        <pt x="332" y="283" on="1"/>
        <pt x="331" y="257" on="0"/>
        <pt x="329" y="205" on="0"/>
        <pt x="326" y="179" on="1"/>
      </contour>
    </TTGlyph>
    <TTGlyph name="daggerdbl" xMin="24" yMin="-229" xMax="537" yMax="663">
      <contour>
        <pt x="297" y="14" on="1"/>
        <pt x="295" y="-43" on="1"/>
        <pt x="294" y="-71" on="0"/>
        <pt x="291" y="-122" on="0"/>
        <pt x="288" y="-148" on="1"/>
        <pt x="279" y="-229" on="1"/>
        <pt x="178" y="-229" on="1"/>
        <pt x="190" y="-130" on="1"/>
        <pt x="192" y="-110" on="0"/>
        <pt x="199" y="-69" on="0"/>
        <pt x="204" y="-43" on="1"/>
        <pt x="216" y="14" on="1"/>
        <pt x="140" y="6" on="1"/>
        <pt x="112" y="3" on="0"/>
        <pt x="76" y="1" on="0"/>
        <pt x="57" y="1" on="1"/>
        <pt x="24" y="1" on="1"/>
        <pt x="36" y="102" on="1"/>
        <pt x="70" y="102" on="1"/>
        <pt x="89" y="102" on="0"/>
        <pt x="124" y="100" on="0"/>
        <pt x="151" y="97" on="1"/>
        <pt x="224" y="89" on="1"/>
        <pt x="225" y="157" on="0"/>
        <pt x="239" y="277" on="0"/>
        <pt x="253" y="336" on="1"/>
        <pt x="178" y="328" on="1"/>
        <pt x="151" y="325" on="0"/>
        <pt x="114" y="323" on="0"/>
        <pt x="95" y="323" on="1"/>
        <pt x="61" y="323" on="1"/>
        <pt x="74" y="424" on="1"/>
        <pt x="107" y="424" on="1"/>
        <pt x="126" y="424" on="0"/>
        <pt x="162" y="422" on="0"/>
        <pt x="189" y="419" on="1"/>
        <pt x="263" y="411" on="1"/>
        <pt x="265" y="468" on="1"/>
        <pt x="266" y="492" on="0"/>
        <pt x="268" y="534" on="0"/>
        <pt x="270" y="555" on="1"/>
        <pt x="283" y="663" on="1"/>
        <pt x="384" y="663" on="1"/>
        <pt x="371" y="555" on="1"/>
        <pt x="369" y="538" on="0"/>
        <pt x="362" y="497" on="0"/>
        <pt x="356" y="468" on="1"/>
        <pt x="344" y="411" on="1"/>
        <pt x="420" y="419" on="1"/>
        <pt x="449" y="422" on="0"/>
        <pt x="485" y="424" on="0"/>
        <pt x="504" y="424" on="1"/>
        <pt x="537" y="424" on="1"/>
        <pt x="525" y="323" on="1"/>
        <pt x="491" y="323" on="1"/>
        <pt x="472" y="323" on="0"/>
        <pt x="437" y="325" on="0"/>
        <pt x="410" y="328" on="1"/>
        <pt x="336" y="336" on="1"/>
        <pt x="336" y="275" on="0"/>
        <pt x="322" y="155" on="0"/>
        <pt x="307" y="89" on="1"/>
        <pt x="383" y="97" on="1"/>
        <pt x="410" y="100" on="0"/>
        <pt x="447" y="102" on="0"/>
        <pt x="466" y="102" on="1"/>
        <pt x="500" y="102" on="1"/>
        <pt x="487" y="1" on="1"/>
        <pt x="454" y="1" on="1"/>
        <pt x="435" y="1" on="0"/>
        <pt x="399" y="3" on="0"/>
        <pt x="371" y="6" on="1"/>
      </contour>
    </TTGlyph>
    <TTGlyph name="dcaron" xMin="30" yMin="-8" xMax="706" yMax="709">
      <component glyphName="d" x="0" y="0" flags="0x4"/>
      <component glyphName="commaaccent" x="480" y="767" flags="0x4"/>
    </TTGlyph>
    <TTGlyph name="dcroat" xMin="30" yMin="-8" xMax="595" yMax="709">
      <contour>
        <pt x="265" y="496" on="1"/>
        <pt x="294" y="496" on="0"/>
        <pt x="347" y="480" on="0"/>
        <pt x="379" y="460" on="1"/>
        <pt x="389" y="454" on="1"/>
        <pt x="401" y="561" on="1"/>
        <pt x="245" y="561" on="1"/>
        <pt x="255" y="636" on="1"/>
        <pt x="410" y="636" on="1"/>
        <pt x="419" y="709" on="1"/>
        <pt x="528" y="709" on="1"/>
        <pt x="519" y="636" on="1"/>
        <pt x="595" y="622" on="1"/>
        <pt x="587" y="561" on="1"/>
        <pt x="510" y="561" on="1"/>
        <pt x="456" y="92" on="1"/>
        <pt x="528" y="77" on="1"/>
        <pt x="521" y="20" on="1"/>
        <pt x="503" y="12" on="0"/>
        <pt x="456" y="-2" on="0"/>
        <pt x="438" y="-2" on="1"/>
        <pt x="411" y="-2" on="0"/>
        <pt x="364" y="27" on="0"/>
        <pt x="355" y="47" on="1"/>
        <pt x="336" y="35" on="1"/>
        <pt x="310" y="18" on="0"/>
        <pt x="240" y="-8" on="0"/>
        <pt x="207" y="-8" on="1"/>
        <pt x="171" y="-8" on="0"/>
        <pt x="107" y="24" on="0"/>
        <pt x="58" y="82" on="0"/>
        <pt x="30" y="163" on="0"/>
        <pt x="30" y="212" on="1"/>
        <pt x="30" y="282" on="0"/>
        <pt x="82" y="397" on="0"/>
        <pt x="123" y="435" on="1"/>
        <pt x="154" y="464" on="0"/>
        <pt x="230" y="496" on="0"/>
      </contour>
      <contour>
        <pt x="379" y="352" on="1"/>
        <pt x="381" y="364" on="0"/>
        <pt x="375" y="373" on="0"/>
        <pt x="367" y="377" on="1"/>
        <pt x="326" y="396" on="0"/>
        <pt x="280" y="396" on="1"/>
        <pt x="250" y="396" on="0"/>
        <pt x="199" y="372" on="0"/>
        <pt x="161" y="326" on="0"/>
        <pt x="139" y="257" on="0"/>
        <pt x="139" y="212" on="1"/>
        <pt x="139" y="152" on="0"/>
        <pt x="191" y="92" on="0"/>
        <pt x="233" y="92" on="1"/>
        <pt x="256" y="92" on="0"/>
        <pt x="312" y="106" on="0"/>
        <pt x="335" y="118" on="1"/>
        <pt x="346" y="124" on="0"/>
        <pt x="352" y="132" on="0"/>
        <pt x="353" y="140" on="1"/>
      </contour>
    </TTGlyph>
    <TTGlyph name="degree" xMin="76" yMin="330" xMax="410" yMax="673">
      <contour>
        <pt x="410" y="515" on="1"/>
        <pt x="410" y="474" on="0"/>
        <pt x="380" y="406" on="0"/>
        <pt x="331" y="357" on="0"/>
        <pt x="267" y="330" on="0"/>
        <pt x="233" y="330" on="1"/>
        <pt x="201" y="330" on="0"/>
        <pt x="144" y="353" on="0"/>
        <pt x="101" y="394" on="0"/>
        <pt x="76" y="452" on="0"/>
        <pt x="76" y="488" on="1"/>
        <pt x="76" y="529" on="0"/>
        <pt x="106" y="597" on="0"/>
        <pt x="155" y="646" on="0"/>
        <pt x="219" y="673" on="0"/>
        <pt x="253" y="673" on="1"/>
        <pt x="285" y="673" on="0"/>
        <pt x="342" y="650" on="0"/>
        <pt x="385" y="609" on="0"/>
        <pt x="410" y="551" on="0"/>
      </contour>
      <contour>
        <pt x="320" y="512" on="1"/>
        <pt x="320" y="547" on="0"/>
        <pt x="281" y="586" on="0"/>
        <pt x="250" y="586" on="1"/>
        <pt x="209" y="586" on="0"/>
        <pt x="166" y="530" on="0"/>
        <pt x="166" y="491" on="1"/>
        <pt x="166" y="456" on="0"/>
        <pt x="205" y="417" on="0"/>
        <pt x="236" y="417" on="1"/>
        <pt x="277" y="417" on="0"/>
        <pt x="320" y="473" on="0"/>
      </contour>
    </TTGlyph>
    <TTGlyph name="dieresis" xMin="82" yMin="572" xMax="397" yMax="683">
      <contour>
        <pt x="194" y="572" on="1"/>
        <pt x="82" y="572" on="1"/>
        <pt x="94" y="683" on="1"/>
        <pt x="188" y="683" on="1"/>
        <pt x="199" y="683" on="0"/>
        <pt x="205" y="675" on="0"/>
        <pt x="204" y="665" on="1"/>
      </contour>
      <contour>
        <pt x="383" y="572" on="1"/>
        <pt x="271" y="572" on="1"/>
        <pt x="283" y="683" on="1"/>
        <pt x="377" y="683" on="1"/>
        <pt x="397" y="683" on="0"/>
        <pt x="394" y="665" on="1"/>
      </contour>
    </TTGlyph>
    <TTGlyph name="dieresis.cap" xMin="100" yMin="752" xMax="415" yMax="863">
      <contour>
        <pt x="212" y="752" on="1"/>
        <pt x="100" y="752" on="1"/>
        <pt x="112" y="863" on="1"/>
        <pt x="206" y="863" on="1"/>
        <pt x="217" y="863" on="0"/>
        <pt x="223" y="855" on="0"/>
        <pt x="222" y="845" on="1"/>
      </contour>
      <contour>
        <pt x="401" y="752" on="1"/>
        <pt x="289" y="752" on="1"/>
        <pt x="301" y="863" on="1"/>
        <pt x="395" y="863" on="1"/>
        <pt x="415" y="863" on="0"/>
        <pt x="412" y="845" on="1"/>
      </contour>
    </TTGlyph>
    <TTGlyph name="divide" xMin="69" yMin="30" xMax="460" yMax="461">
      <contour>
        <pt x="293" y="30" on="1"/>
        <pt x="184" y="30" on="1"/>
        <pt x="197" y="139" on="1"/>
        <pt x="288" y="139" on="1"/>
        <pt x="299" y="139" on="0"/>
        <pt x="305" y="130" on="0"/>
        <pt x="303" y="121" on="1"/>
      </contour>
      <contour>
        <pt x="331" y="352" on="1"/>
        <pt x="223" y="352" on="1"/>
        <pt x="235" y="461" on="1"/>
        <pt x="326" y="461" on="1"/>
        <pt x="337" y="461" on="0"/>
        <pt x="343" y="452" on="0"/>
        <pt x="342" y="443" on="1"/>
      </contour>
      <contour>
        <pt x="460" y="294" on="1"/>
        <pt x="449" y="197" on="1"/>
        <pt x="69" y="197" on="1"/>
        <pt x="80" y="294" on="1"/>
      </contour>
    </TTGlyph>
    <TTGlyph name="dollar" xMin="64" yMin="-116" xMax="555" yMax="789">
      <contour>
        <pt x="540" y="561" on="1"/>
        <pt x="471" y="565" on="1"/>
        <pt x="450" y="567" on="0"/>
        <pt x="412" y="568" on="0"/>
        <pt x="395" y="569" on="1"/>
        <pt x="375" y="400" on="1"/>
        <pt x="424" y="380" on="0"/>
        <pt x="486" y="343" on="0"/>
        <pt x="507" y="321" on="1"/>
        <pt x="551" y="274" on="0"/>
        <pt x="551" y="204" on="1"/>
        <pt x="551" y="158" on="0"/>
        <pt x="520" y="82" on="0"/>
        <pt x="461" y="26" on="0"/>
        <pt x="377" y="-7" on="0"/>
        <pt x="325" y="-9" on="1"/>
        <pt x="304" y="-116" on="1"/>
        <pt x="250" y="-116" on="1"/>
        <pt x="262" y="-7" on="1"/>
        <pt x="211" y="-2" on="0"/>
        <pt x="106" y="29" on="0"/>
        <pt x="64" y="50" on="1"/>
        <pt x="91" y="122" on="1"/>
        <pt x="149" y="112" on="1"/>
        <pt x="227" y="98" on="0"/>
        <pt x="274" y="94" on="1"/>
        <pt x="300" y="313" on="1"/>
        <pt x="249" y="334" on="0"/>
        <pt x="184" y="368" on="0"/>
        <pt x="161" y="388" on="1"/>
        <pt x="137" y="410" on="0"/>
        <pt x="112" y="465" on="0"/>
        <pt x="112" y="503" on="1"/>
        <pt x="112" y="542" on="0"/>
        <pt x="147" y="604" on="0"/>
        <pt x="209" y="648" on="0"/>
        <pt x="293" y="671" on="0"/>
        <pt x="342" y="673" on="1"/>
        <pt x="366" y="789" on="1"/>
        <pt x="421" y="789" on="1"/>
        <pt x="407" y="670" on="1"/>
        <pt x="482" y="662" on="0"/>
        <pt x="555" y="638" on="1"/>
      </contour>
      <contour>
        <pt x="443" y="196" on="1"/>
        <pt x="443" y="230" on="0"/>
        <pt x="406" y="268" on="0"/>
        <pt x="361" y="288" on="1"/>
        <pt x="338" y="95" on="1"/>
        <pt x="390" y="101" on="0"/>
        <pt x="443" y="153" on="0"/>
      </contour>
      <contour>
        <pt x="218" y="505" on="1"/>
        <pt x="218" y="480" on="0"/>
        <pt x="260" y="447" on="0"/>
        <pt x="313" y="425" on="1"/>
        <pt x="330" y="569" on="1"/>
        <pt x="274" y="567" on="0"/>
        <pt x="218" y="537" on="0"/>
      </contour>
    </TTGlyph>
    <TTGlyph name="dollar.lprop" xMin="37" yMin="-116" xMax="528" yMax="789">
      <component glyphName="dollar" x="-27" y="0" flags="0x4"/>
    </TTGlyph>
    <TTGlyph name="dollar.oprop" xMin="30" yMin="-116" xMax="430" yMax="604">
      <component glyphName="dollar.otab" x="-66" y="0" flags="0x4"/>
    </TTGlyph>
    <TTGlyph name="dollar.otab" xMin="96" yMin="-116" xMax="496" yMax="604">
      <contour>
        <pt x="123" y="108" on="1"/>
        <pt x="185" y="98" on="1"/>
        <pt x="211" y="93" on="0"/>
        <pt x="252" y="89" on="0"/>
        <pt x="269" y="87" on="1"/>
        <pt x="284" y="216" on="1"/>
        <pt x="255" y="227" on="1"/>
        <pt x="201" y="247" on="0"/>
        <pt x="135" y="306" on="0"/>
        <pt x="135" y="357" on="1"/>
        <pt x="135" y="391" on="0"/>
        <pt x="165" y="442" on="0"/>
        <pt x="216" y="476" on="0"/>
        <pt x="282" y="495" on="0"/>
        <pt x="318" y="496" on="1"/>
        <pt x="339" y="604" on="1"/>
        <pt x="381" y="604" on="1"/>
        <pt x="368" y="494" on="1"/>
        <pt x="401" y="491" on="0"/>
        <pt x="465" y="475" on="0"/>
        <pt x="496" y="463" on="1"/>
        <pt x="478" y="390" on="1"/>
        <pt x="432" y="395" on="1"/>
        <pt x="409" y="397" on="0"/>
        <pt x="372" y="400" on="0"/>
        <pt x="357" y="401" on="1"/>
        <pt x="344" y="297" on="1"/>
        <pt x="416" y="273" on="0"/>
        <pt x="489" y="211" on="0"/>
        <pt x="489" y="160" on="1"/>
        <pt x="489" y="121" on="0"/>
        <pt x="462" y="61" on="0"/>
        <pt x="414" y="18" on="0"/>
        <pt x="348" y="-6" on="0"/>
        <pt x="308" y="-7" on="1"/>
        <pt x="308" y="-8" on="1"/>
        <pt x="287" y="-116" on="1"/>
        <pt x="245" y="-116" on="1"/>
        <pt x="258" y="-6" on="1"/>
        <pt x="216" y="-1" on="0"/>
        <pt x="130" y="23" on="0"/>
        <pt x="96" y="41" on="1"/>
      </contour>
      <contour>
        <pt x="319" y="87" on="1"/>
        <pt x="354" y="91" on="0"/>
        <pt x="389" y="122" on="0"/>
        <pt x="389" y="145" on="1"/>
        <pt x="389" y="162" on="0"/>
        <pt x="365" y="186" on="0"/>
        <pt x="333" y="199" on="1"/>
      </contour>
      <contour>
        <pt x="234" y="362" on="1"/>
        <pt x="234" y="348" on="0"/>
        <pt x="263" y="327" on="0"/>
        <pt x="296" y="315" on="1"/>
        <pt x="307" y="401" on="1"/>
        <pt x="272" y="399" on="0"/>
        <pt x="234" y="381" on="0"/>
      </contour>
    </TTGlyph>
    <TTGlyph name="dotaccent" xMin="155" yMin="552" xMax="284" yMax="667">
      <contour>
        <pt x="271" y="552" on="1"/>
        <pt x="155" y="552" on="1"/>
        <pt x="169" y="667" on="1"/>
        <pt x="266" y="667" on="1"/>
        <pt x="277" y="667" on="0"/>
        <pt x="284" y="658" on="0"/>
        <pt x="282" y="648" on="1"/>
      </contour>
    </TTGlyph>
    <TTGlyph name="dotaccent.cap" xMin="207" yMin="732" xMax="336" yMax="847">
      <contour>
        <pt x="323" y="732" on="1"/>
        <pt x="207" y="732" on="1"/>
        <pt x="221" y="847" on="1"/>
        <pt x="318" y="847" on="1"/>
        <pt x="329" y="847" on="0"/>
        <pt x="336" y="838" on="0"/>
        <pt x="334" y="828" on="1"/>
      </contour>
    </TTGlyph>
    <TTGlyph name="dotlessi" xMin="36" yMin="0" xMax="202" yMax="488">
      <contour>
        <pt x="93" y="488" on="1"/>
        <pt x="202" y="488" on="1"/>
        <pt x="145" y="0" on="1"/>
        <pt x="36" y="0" on="1"/>
      </contour>
    </TTGlyph>
    <TTGlyph name="e" xMin="31" yMin="-8" xMax="487" yMax="496">
      <contour>
        <pt x="428" y="126" on="1"/>
        <pt x="458" y="65" on="1"/>
        <pt x="418" y="34" on="0"/>
        <pt x="307" y="-8" on="0"/>
        <pt x="253" y="-8" on="1"/>
        <pt x="201" y="-8" on="0"/>
        <pt x="119" y="26" on="0"/>
        <pt x="62" y="86" on="0"/>
        <pt x="31" y="169" on="0"/>
        <pt x="31" y="218" on="1"/>
        <pt x="31" y="280" on="0"/>
        <pt x="73" y="383" on="0"/>
        <pt x="143" y="456" on="0"/>
        <pt x="234" y="496" on="0"/>
        <pt x="282" y="496" on="1"/>
        <pt x="326" y="496" on="0"/>
        <pt x="401" y="465" on="0"/>
        <pt x="456" y="407" on="0"/>
        <pt x="487" y="326" on="0"/>
        <pt x="487" y="277" on="1"/>
        <pt x="487" y="266" on="0"/>
        <pt x="483" y="237" on="0"/>
        <pt x="479" y="226" on="1"/>
        <pt x="475" y="215" on="0"/>
        <pt x="463" y="209" on="0"/>
        <pt x="453" y="209" on="1"/>
        <pt x="139" y="209" on="1"/>
        <pt x="141" y="153" on="0"/>
        <pt x="205" y="91" on="0"/>
        <pt x="265" y="91" on="1"/>
        <pt x="285" y="91" on="0"/>
        <pt x="330" y="99" on="0"/>
        <pt x="362" y="108" on="1"/>
      </contour>
      <contour>
        <pt x="383" y="291" on="1"/>
        <pt x="381" y="335" on="0"/>
        <pt x="331" y="396" on="0"/>
        <pt x="281" y="396" on="1"/>
        <pt x="230" y="396" on="0"/>
        <pt x="163" y="340" on="0"/>
        <pt x="149" y="291" on="1"/>
      </contour>
    </TTGlyph>
    <TTGlyph name="eacute" xMin="31" yMin="-8" xMax="487" yMax="738">
      <component glyphName="e" x="0" y="0" flags="0x204"/>
      <component glyphName="acute" x="88" y="0" flags="0x4"/>
    </TTGlyph>
    <TTGlyph name="ebreve" xMin="31" yMin="-8" xMax="487" yMax="709">
      <component glyphName="e" x="0" y="0" flags="0x204"/>
      <component glyphName="breve" x="60" y="0" flags="0x4"/>
    </TTGlyph>
    <TTGlyph name="ecaron" xMin="31" yMin="-8" xMax="487" yMax="734">
      <component glyphName="e" x="0" y="0" flags="0x204"/>
      <component glyphName="caron" x="117" y="0" flags="0x4"/>
    </TTGlyph>
    <TTGlyph name="ecircumflex" xMin="31" yMin="-8" xMax="487" yMax="724">
      <component glyphName="e" x="0" y="0" flags="0x204"/>
      <component glyphName="circumflex" x="81" y="0" flags="0x4"/>
    </TTGlyph>
    <TTGlyph name="edieresis" xMin="31" yMin="-8" xMax="487" yMax="683">
      <component glyphName="e" x="0" y="0" flags="0x204"/>
      <component glyphName="dieresis" x="68" y="0" flags="0x4"/>
    </TTGlyph>
    <TTGlyph name="edotaccent" xMin="31" yMin="-8" xMax="487" yMax="667">
      <component glyphName="e" x="0" y="0" flags="0x204"/>
      <component glyphName="dotaccent" x="86" y="0" flags="0x4"/>
    </TTGlyph>
    <TTGlyph name="egrave" xMin="31" yMin="-8" xMax="487" yMax="739">
      <component glyphName="e" x="0" y="0" flags="0x204"/>
      <component glyphName="grave" x="102" y="0" flags="0x4"/>
    </TTGlyph>
    <TTGlyph name="eight" xMin="66" yMin="-10" xMax="579" yMax="673">
      <contour>
        <pt x="185" y="359" on="1"/>
        <pt x="160" y="377" on="0"/>
        <pt x="125" y="435" on="0"/>
        <pt x="125" y="475" on="1"/>
        <pt x="125" y="518" on="0"/>
        <pt x="163" y="590" on="0"/>
        <pt x="228" y="643" on="0"/>
        <pt x="315" y="673" on="0"/>
        <pt x="364" y="673" on="1"/>
        <pt x="411" y="673" on="0"/>
        <pt x="489" y="646" on="0"/>
        <pt x="545" y="600" on="0"/>
        <pt x="576" y="537" on="0"/>
        <pt x="576" y="500" on="1"/>
        <pt x="576" y="452" on="0"/>
        <pt x="521" y="371" on="0"/>
        <pt x="481" y="342" on="1"/>
        <pt x="523" y="321" on="0"/>
        <pt x="579" y="259" on="0"/>
        <pt x="579" y="208" on="1"/>
        <pt x="579" y="161" on="0"/>
        <pt x="535" y="82" on="0"/>
        <pt x="461" y="23" on="0"/>
        <pt x="364" y="-10" on="0"/>
        <pt x="311" y="-10" on="1"/>
        <pt x="256" y="-10" on="0"/>
        <pt x="166" y="22" on="0"/>
        <pt x="101" y="77" on="0"/>
        <pt x="66" y="149" on="0"/>
        <pt x="66" y="188" on="1"/>
        <pt x="66" y="245" on="0"/>
        <pt x="129" y="331" on="0"/>
      </contour>
      <contour>
        <pt x="389" y="378" on="1"/>
        <pt x="400" y="373" on="0"/>
        <pt x="409" y="376" on="0"/>
        <pt x="419" y="385" on="1"/>
        <pt x="441" y="405" on="0"/>
        <pt x="471" y="458" on="0"/>
        <pt x="471" y="484" on="1"/>
        <pt x="471" y="522" on="0"/>
        <pt x="410" y="570" on="0"/>
        <pt x="357" y="570" on="1"/>
        <pt x="333" y="570" on="0"/>
        <pt x="289" y="558" on="0"/>
        <pt x="256" y="535" on="0"/>
        <pt x="236" y="502" on="0"/>
        <pt x="236" y="482" on="1"/>
        <pt x="236" y="454" on="0"/>
        <pt x="282" y="421" on="0"/>
        <pt x="329" y="402" on="1"/>
      </contour>
      <contour>
        <pt x="268" y="312" on="1"/>
        <pt x="257" y="317" on="0"/>
        <pt x="245" y="315" on="0"/>
        <pt x="235" y="307" on="1"/>
        <pt x="208" y="286" on="0"/>
        <pt x="177" y="235" on="0"/>
        <pt x="177" y="204" on="1"/>
        <pt x="177" y="180" on="0"/>
        <pt x="198" y="139" on="0"/>
        <pt x="236" y="110" on="0"/>
        <pt x="289" y="94" on="0"/>
        <pt x="320" y="94" on="1"/>
        <pt x="349" y="94" on="0"/>
        <pt x="402" y="110" on="0"/>
        <pt x="441" y="137" on="0"/>
        <pt x="464" y="175" on="0"/>
        <pt x="464" y="197" on="1"/>
        <pt x="464" y="223" on="0"/>
        <pt x="410" y="258" on="0"/>
        <pt x="345" y="283" on="1"/>
      </contour>
    </TTGlyph>
    <TTGlyph name="eight.lprop" xMin="59" yMin="-10" xMax="572" yMax="673">
      <component glyphName="eight" x="-7" y="0" flags="0x4"/>
    </TTGlyph>
    <TTGlyph name="eight.oprop" xMin="45" yMin="-10" xMax="542" yMax="673">
      <component glyphName="eight.otab" x="-11" y="0" flags="0x4"/>
    </TTGlyph>
    <TTGlyph name="eight.otab" xMin="56" yMin="-10" xMax="553" yMax="673">
      <contour>
        <pt x="176" y="363" on="1"/>
        <pt x="154" y="381" on="0"/>
        <pt x="117" y="441" on="0"/>
        <pt x="117" y="480" on="1"/>
        <pt x="117" y="524" on="0"/>
        <pt x="157" y="595" on="0"/>
        <pt x="222" y="646" on="0"/>
        <pt x="304" y="673" on="0"/>
        <pt x="347" y="673" on="1"/>
        <pt x="389" y="673" on="0"/>
        <pt x="463" y="646" on="0"/>
        <pt x="518" y="599" on="0"/>
        <pt x="551" y="535" on="0"/>
        <pt x="551" y="498" on="1"/>
        <pt x="551" y="450" on="0"/>
        <pt x="496" y="368" on="0"/>
        <pt x="457" y="339" on="1"/>
        <pt x="497" y="318" on="0"/>
        <pt x="553" y="257" on="0"/>
        <pt x="553" y="208" on="1"/>
        <pt x="553" y="161" on="0"/>
        <pt x="512" y="82" on="0"/>
        <pt x="442" y="23" on="0"/>
        <pt x="348" y="-10" on="0"/>
        <pt x="295" y="-10" on="1"/>
        <pt x="244" y="-10" on="0"/>
        <pt x="157" y="20" on="0"/>
        <pt x="92" y="74" on="0"/>
        <pt x="56" y="148" on="0"/>
        <pt x="56" y="192" on="1"/>
        <pt x="56" y="220" on="0"/>
        <pt x="75" y="271" on="0"/>
        <pt x="108" y="314" on="0"/>
        <pt x="152" y="349" on="0"/>
      </contour>
      <contour>
        <pt x="372" y="376" on="1"/>
        <pt x="380" y="373" on="0"/>
        <pt x="390" y="375" on="0"/>
        <pt x="398" y="382" on="1"/>
        <pt x="419" y="402" on="0"/>
        <pt x="453" y="457" on="0"/>
        <pt x="453" y="484" on="1"/>
        <pt x="453" y="527" on="0"/>
        <pt x="388" y="577" on="0"/>
        <pt x="340" y="577" on="1"/>
        <pt x="315" y="577" on="0"/>
        <pt x="271" y="563" on="0"/>
        <pt x="239" y="539" on="0"/>
        <pt x="221" y="506" on="0"/>
        <pt x="221" y="487" on="1"/>
        <pt x="221" y="456" on="0"/>
        <pt x="270" y="416" on="0"/>
        <pt x="312" y="399" on="1"/>
      </contour>
      <contour>
        <pt x="253" y="315" on="1"/>
        <pt x="245" y="318" on="0"/>
        <pt x="232" y="317" on="0"/>
        <pt x="224" y="311" on="1"/>
        <pt x="201" y="294" on="0"/>
        <pt x="161" y="238" on="0"/>
        <pt x="161" y="205" on="1"/>
        <pt x="161" y="152" on="0"/>
        <pt x="239" y="89" on="0"/>
        <pt x="302" y="89" on="1"/>
        <pt x="334" y="89" on="0"/>
        <pt x="387" y="107" on="0"/>
        <pt x="425" y="137" on="0"/>
        <pt x="446" y="175" on="0"/>
        <pt x="446" y="196" on="1"/>
        <pt x="446" y="223" on="0"/>
        <pt x="391" y="262" on="0"/>
        <pt x="328" y="286" on="1"/>
      </contour>
    </TTGlyph>
    <TTGlyph name="ellipsis" xMin="24" yMin="0" xMax="592" yMax="123">
      <contour>
        <pt x="141" y="0" on="1"/>
        <pt x="24" y="0" on="1"/>
        <pt x="38" y="123" on="1"/>
        <pt x="136" y="123" on="1"/>
        <pt x="156" y="123" on="0"/>
        <pt x="153" y="104" on="1"/>
      </contour>
      <contour>
        <pt x="359" y="0" on="1"/>
        <pt x="242" y="0" on="1"/>
        <pt x="256" y="123" on="1"/>
        <pt x="354" y="123" on="1"/>
        <pt x="374" y="123" on="0"/>
        <pt x="371" y="104" on="1"/>
      </contour>
      <contour>
        <pt x="577" y="0" on="1"/>
        <pt x="460" y="0" on="1"/>
        <pt x="474" y="123" on="1"/>
        <pt x="572" y="123" on="1"/>
        <pt x="592" y="123" on="0"/>
        <pt x="589" y="104" on="1"/>
      </contour>
    </TTGlyph>
    <TTGlyph name="emacron" xMin="31" yMin="-8" xMax="487" yMax="674">
      <component glyphName="e" x="0" y="0" flags="0x204"/>
      <component glyphName="macron" x="70" y="0" flags="0x4"/>
    </TTGlyph>
    <TTGlyph name="emdash" xMin="47" yMin="195" xMax="1020" yMax="294">
      <contour>
        <pt x="47" y="195" on="1"/>
        <pt x="60" y="294" on="1"/>
        <pt x="1020" y="294" on="1"/>
        <pt x="1007" y="195" on="1"/>
      </contour>
    </TTGlyph>
    <TTGlyph name="emdash.cap" xMin="59" yMin="282" xMax="1032" yMax="381">
      <component glyphName="emdash" x="12" y="87" flags="0x204"/>
    </TTGlyph>
    <TTGlyph name="endash" xMin="47" yMin="195" xMax="540" yMax="294">
      <contour>
        <pt x="47" y="195" on="1"/>
        <pt x="60" y="294" on="1"/>
        <pt x="540" y="294" on="1"/>
        <pt x="527" y="195" on="1"/>
      </contour>
    </TTGlyph>
    <TTGlyph name="endash.cap" xMin="59" yMin="282" xMax="552" yMax="381">
      <component glyphName="endash" x="12" y="87" flags="0x204"/>
    </TTGlyph>
    <TTGlyph name="eng" xMin="35" yMin="-212" xMax="497" yMax="496">
      <contour>
        <pt x="454" y="-48" on="1"/>
        <pt x="449" y="-92" on="0"/>
        <pt x="426" y="-151" on="0"/>
        <pt x="406" y="-171" on="1"/>
        <pt x="366" y="-212" on="0"/>
        <pt x="290" y="-212" on="1"/>
        <pt x="270" y="-212" on="0"/>
        <pt x="225" y="-204" on="0"/>
        <pt x="210" y="-198" on="1"/>
        <pt x="217" y="-137" on="1"/>
        <pt x="256" y="-130" on="1"/>
        <pt x="283" y="-125" on="0"/>
        <pt x="315" y="-114" on="0"/>
        <pt x="334" y="-98" on="0"/>
        <pt x="342" y="-72" on="0"/>
        <pt x="344" y="-52" on="1"/>
        <pt x="383" y="279" on="1"/>
        <pt x="385" y="292" on="0"/>
        <pt x="387" y="321" on="0"/>
        <pt x="387" y="328" on="1"/>
        <pt x="387" y="362" on="0"/>
        <pt x="341" y="389" on="0"/>
        <pt x="298" y="389" on="1"/>
        <pt x="296" y="389" on="1"/>
        <pt x="271" y="389" on="0"/>
        <pt x="216" y="377" on="0"/>
        <pt x="196" y="367" on="1"/>
        <pt x="186" y="362" on="0"/>
        <pt x="185" y="350" on="1"/>
        <pt x="144" y="0" on="1"/>
        <pt x="35" y="0" on="1"/>
        <pt x="92" y="488" on="1"/>
        <pt x="175" y="488" on="1"/>
        <pt x="184" y="443" on="1"/>
        <pt x="204" y="455" on="1"/>
        <pt x="239" y="475" on="0"/>
        <pt x="300" y="496" on="0"/>
        <pt x="332" y="496" on="1"/>
        <pt x="368" y="496" on="0"/>
        <pt x="433" y="473" on="0"/>
        <pt x="456" y="450" on="1"/>
        <pt x="480" y="425" on="0"/>
        <pt x="497" y="368" on="0"/>
        <pt x="497" y="339" on="1"/>
        <pt x="497" y="325" on="0"/>
        <pt x="494" y="290" on="0"/>
        <pt x="492" y="270" on="1"/>
      </contour>
    </TTGlyph>
    <TTGlyph name="eogonek" xMin="31" yMin="-218" xMax="487" yMax="496">
      <contour>
        <pt x="428" y="126" on="1"/>
        <pt x="458" y="65" on="1"/>
        <pt x="397" y="23" on="0"/>
        <pt x="318" y="-61" on="0"/>
        <pt x="318" y="-100" on="1"/>
        <pt x="318" y="-118" on="0"/>
        <pt x="341" y="-140" on="0"/>
        <pt x="364" y="-140" on="1"/>
        <pt x="383" y="-140" on="0"/>
        <pt x="401" y="-137" on="1"/>
        <pt x="431" y="-132" on="1"/>
        <pt x="442" y="-192" on="1"/>
        <pt x="418" y="-204" on="0"/>
        <pt x="364" y="-218" on="0"/>
        <pt x="341" y="-218" on="1"/>
        <pt x="289" y="-218" on="0"/>
        <pt x="225" y="-162" on="0"/>
        <pt x="225" y="-122" on="1"/>
        <pt x="225" y="-85" on="0"/>
        <pt x="270" y="-25" on="0"/>
        <pt x="300" y="-3" on="1"/>
        <pt x="291" y="-6" on="0"/>
        <pt x="267" y="-8" on="0"/>
        <pt x="253" y="-8" on="1"/>
        <pt x="201" y="-8" on="0"/>
        <pt x="119" y="26" on="0"/>
        <pt x="62" y="86" on="0"/>
        <pt x="31" y="169" on="0"/>
        <pt x="31" y="218" on="1"/>
        <pt x="31" y="280" on="0"/>
        <pt x="73" y="383" on="0"/>
        <pt x="143" y="456" on="0"/>
        <pt x="234" y="496" on="0"/>
        <pt x="282" y="496" on="1"/>
        <pt x="326" y="496" on="0"/>
        <pt x="401" y="465" on="0"/>
        <pt x="456" y="407" on="0"/>
        <pt x="487" y="326" on="0"/>
        <pt x="487" y="277" on="1"/>
        <pt x="487" y="266" on="0"/>
        <pt x="483" y="237" on="0"/>
        <pt x="479" y="226" on="1"/>
        <pt x="475" y="215" on="0"/>
        <pt x="463" y="209" on="0"/>
        <pt x="453" y="209" on="1"/>
        <pt x="139" y="209" on="1"/>
        <pt x="141" y="153" on="0"/>
        <pt x="205" y="91" on="0"/>
        <pt x="265" y="91" on="1"/>
        <pt x="285" y="91" on="0"/>
        <pt x="330" y="99" on="0"/>
        <pt x="362" y="108" on="1"/>
      </contour>
      <contour>
        <pt x="383" y="291" on="1"/>
        <pt x="381" y="335" on="0"/>
        <pt x="331" y="396" on="0"/>
        <pt x="281" y="396" on="1"/>
        <pt x="230" y="396" on="0"/>
        <pt x="163" y="340" on="0"/>
        <pt x="149" y="291" on="1"/>
      </contour>
    </TTGlyph>
    <TTGlyph name="equal" xMin="56" yMin="98" xMax="471" yMax="393">
      <contour>
        <pt x="471" y="393" on="1"/>
        <pt x="460" y="296" on="1"/>
        <pt x="80" y="296" on="1"/>
        <pt x="91" y="393" on="1"/>
      </contour>
      <contour>
        <pt x="447" y="195" on="1"/>
        <pt x="436" y="98" on="1"/>
        <pt x="56" y="98" on="1"/>
        <pt x="67" y="195" on="1"/>
      </contour>
    </TTGlyph>
    <TTGlyph name="estimated" xMin="65" yMin="-10" xMax="828" yMax="673">
      <contour>
        <pt x="211" y="323" on="1"/>
        <pt x="203" y="323" on="0"/>
        <pt x="203" y="317" on="1"/>
        <pt x="203" y="130" on="1"/>
        <pt x="203" y="123" on="0"/>
        <pt x="209" y="115" on="0"/>
        <pt x="215" y="109" on="1"/>
        <pt x="259" y="64" on="0"/>
        <pt x="380" y="11" on="0"/>
        <pt x="449" y="11" on="1"/>
        <pt x="523" y="11" on="0"/>
        <pt x="648" y="71" on="0"/>
        <pt x="693" y="121" on="1"/>
        <pt x="749" y="121" on="1"/>
        <pt x="695" y="61" on="0"/>
        <pt x="539" y="-10" on="0"/>
        <pt x="448" y="-10" on="1"/>
        <pt x="369" y="-10" on="0"/>
        <pt x="229" y="43" on="0"/>
        <pt x="125" y="135" on="0"/>
        <pt x="65" y="260" on="0"/>
        <pt x="65" y="331" on="1"/>
        <pt x="65" y="402" on="0"/>
        <pt x="125" y="527" on="0"/>
        <pt x="229" y="620" on="0"/>
        <pt x="369" y="673" on="0"/>
        <pt x="448" y="673" on="1"/>
        <pt x="526" y="673" on="0"/>
        <pt x="664" y="620" on="0"/>
        <pt x="767" y="527" on="0"/>
        <pt x="828" y="402" on="0"/>
        <pt x="828" y="331" on="1"/>
        <pt x="828" y="323" on="1"/>
      </contour>
      <contour>
        <pt x="689" y="537" on="1"/>
        <pt x="689" y="543" on="0"/>
        <pt x="682" y="553" on="0"/>
        <pt x="676" y="559" on="1"/>
        <pt x="634" y="603" on="0"/>
        <pt x="515" y="653" on="0"/>
        <pt x="449" y="653" on="1"/>
        <pt x="380" y="653" on="0"/>
        <pt x="260" y="601" on="0"/>
        <pt x="215" y="556" on="1"/>
        <pt x="209" y="550" on="0"/>
        <pt x="203" y="540" on="0"/>
        <pt x="203" y="532" on="1"/>
        <pt x="203" y="347" on="1"/>
        <pt x="203" y="342" on="0"/>
        <pt x="211" y="342" on="1"/>
        <pt x="681" y="342" on="1"/>
        <pt x="689" y="342" on="0"/>
        <pt x="689" y="347" on="1"/>
      </contour>
    </TTGlyph>
    <TTGlyph name="eth" xMin="39" yMin="-11" xMax="515" yMax="727">
      <contour>
        <pt x="412" y="607" on="1"/>
        <pt x="515" y="491" on="0"/>
        <pt x="515" y="331" on="1"/>
        <pt x="515" y="257" on="0"/>
        <pt x="478" y="131" on="0"/>
        <pt x="411" y="40" on="0"/>
        <pt x="315" y="-11" on="0"/>
        <pt x="255" y="-11" on="1"/>
        <pt x="207" y="-11" on="0"/>
        <pt x="128" y="24" on="0"/>
        <pt x="71" y="85" on="0"/>
        <pt x="39" y="168" on="0"/>
        <pt x="39" y="216" on="1"/>
        <pt x="39" y="271" on="0"/>
        <pt x="75" y="364" on="0"/>
        <pt x="139" y="430" on="0"/>
        <pt x="226" y="467" on="0"/>
        <pt x="277" y="467" on="1"/>
        <pt x="308" y="467" on="0"/>
        <pt x="370" y="447" on="0"/>
        <pt x="392" y="433" on="1"/>
        <pt x="386" y="467" on="0"/>
        <pt x="350" y="539" on="0"/>
        <pt x="325" y="565" on="1"/>
        <pt x="192" y="501" on="1"/>
        <pt x="153" y="571" on="1"/>
        <pt x="255" y="621" on="1"/>
        <pt x="185" y="668" on="1"/>
        <pt x="223" y="727" on="1"/>
        <pt x="286" y="705" on="0"/>
        <pt x="346" y="664" on="1"/>
        <pt x="466" y="722" on="1"/>
        <pt x="504" y="651" on="1"/>
      </contour>
      <contour>
        <pt x="406" y="326" on="1"/>
        <pt x="406" y="338" on="0"/>
        <pt x="398" y="348" on="0"/>
        <pt x="388" y="353" on="1"/>
        <pt x="371" y="361" on="0"/>
        <pt x="320" y="373" on="0"/>
        <pt x="291" y="373" on="1"/>
        <pt x="258" y="373" on="0"/>
        <pt x="203" y="353" on="0"/>
        <pt x="184" y="333" on="1"/>
        <pt x="148" y="294" on="0"/>
        <pt x="148" y="223" on="1"/>
        <pt x="148" y="195" on="0"/>
        <pt x="162" y="146" on="0"/>
        <pt x="190" y="110" on="0"/>
        <pt x="232" y="90" on="0"/>
        <pt x="259" y="90" on="1"/>
        <pt x="298" y="90" on="0"/>
        <pt x="354" y="128" on="0"/>
        <pt x="389" y="193" on="0"/>
        <pt x="406" y="278" on="0"/>
      </contour>
    </TTGlyph>
    <TTGlyph name="exclam" xMin="37" yMin="0" xMax="229" yMax="663">
      <contour>
        <pt x="153" y="0" on="1"/>
        <pt x="37" y="0" on="1"/>
        <pt x="50" y="115" on="1"/>
        <pt x="148" y="115" on="1"/>
        <pt x="160" y="115" on="0"/>
        <pt x="167" y="106" on="0"/>
        <pt x="165" y="96" on="1"/>
      </contour>
      <contour>
        <pt x="153" y="183" on="1"/>
        <pt x="79" y="183" on="1"/>
        <pt x="84" y="337" on="1"/>
        <pt x="85" y="363" on="0"/>
        <pt x="88" y="408" on="0"/>
        <pt x="90" y="431" on="1"/>
        <pt x="117" y="663" on="1"/>
        <pt x="229" y="663" on="1"/>
        <pt x="202" y="431" on="1"/>
        <pt x="200" y="410" on="0"/>
        <pt x="192" y="369" on="0"/>
        <pt x="187" y="345" on="1"/>
      </contour>
    </TTGlyph>
    <TTGlyph name="exclamdown" xMin="14" yMin="-175" xMax="206" yMax="488">
      <component glyphName="exclam" x="243" y="488" scale="-0.99994" flags="0x4"/>
    </TTGlyph>
    <TTGlyph name="exclamdown.cap" xMin="38" yMin="0" xMax="230" yMax="663">
      <component glyphName="exclam" x="267" y="663" scale="-0.99994" flags="0x4"/>
    </TTGlyph>
    <TTGlyph name="f" xMin="22" yMin="-206" xMax="444" yMax="717">
      <contour>
        <pt x="30" y="470" on="1"/>
        <pt x="113" y="486" on="1"/>
        <pt x="109" y="499" on="0"/>
        <pt x="106" y="526" on="0"/>
        <pt x="106" y="537" on="1"/>
        <pt x="106" y="576" on="0"/>
        <pt x="135" y="642" on="0"/>
        <pt x="185" y="690" on="0"/>
        <pt x="252" y="717" on="0"/>
        <pt x="290" y="717" on="1"/>
        <pt x="331" y="717" on="0"/>
        <pt x="411" y="691" on="0"/>
        <pt x="444" y="667" on="1"/>
        <pt x="418" y="599" on="1"/>
        <pt x="369" y="609" on="1"/>
        <pt x="349" y="613" on="0"/>
        <pt x="316" y="618" on="0"/>
        <pt x="299" y="618" on="1"/>
        <pt x="257" y="618" on="0"/>
        <pt x="214" y="575" on="0"/>
        <pt x="214" y="537" on="1"/>
        <pt x="214" y="515" on="0"/>
        <pt x="220" y="488" on="1"/>
        <pt x="383" y="488" on="1"/>
        <pt x="373" y="400" on="1"/>
        <pt x="214" y="400" on="1"/>
        <pt x="144" y="-206" on="1"/>
        <pt x="35" y="-206" on="1"/>
        <pt x="105" y="400" on="1"/>
        <pt x="22" y="400" on="1"/>
      </contour>
    </TTGlyph>
</ttFont>
